# MagicaVoxel @ Ephtracy

# group
g map_jiha_object_1

# material
mtllib map_jiha_object_1.mtl
usemtl palette

# normals
vn -1 0 0
vn 1 0 0
vn 0 0 1
vn 0 0 -1
vn 0 -1 0
vn 0 1 0

# texcoords
vt 0.978516 0.5
vt 0.982422 0.5
vt 0.986328 0.5

# verts
v -12 0 4
v -12 0 -3
v -12 2 4
v -12 2 3
v -12 2 -3
v -12 3 4
v -12 3 3
v -12 6 -2
v -12 6 -3
v -12 7 -2
v -12 7 -3
v -11 2 -2
v -11 2 -3
v -11 6 -2
v -11 6 -3
v -10 2 3
v -10 2 -2
v -10 3 4
v -10 3 3
v -10 3 -2
v -10 4 4
v -10 4 3
v -10 7 -2
v -10 7 -3
v -10 8 -2
v -10 8 -3
v -8 3 3
v -8 3 -3
v -8 4 4
v -8 4 3
v -8 4 -3
v -8 5 4
v -8 5 3
v -8 8 -2
v -8 8 -3
v -8 9 -2
v -8 9 -3
v -7 4 -2
v -7 4 -3
v -7 8 -2
v -7 8 -3
v -6 4 3
v -6 4 -2
v -6 5 4
v -6 5 3
v -6 5 -2
v -6 6 4
v -6 6 3
v -6 9 -2
v -6 9 -3
v -6 10 -2
v -6 10 -3
v -4 5 3
v -4 5 -3
v -4 6 4
v -4 6 3
v -4 6 -3
v -4 7 4
v -4 7 3
v -4 10 -2
v -4 10 -3
v -4 11 -2
v -4 11 -3
v -3 6 -2
v -3 6 -3
v -3 10 -2
v -3 10 -3
v -2 6 3
v -2 6 -2
v -2 7 4
v -2 7 3
v -2 7 -2
v -2 8 4
v -2 8 3
v -2 11 -2
v -2 11 -3
v -2 12 -2
v -2 12 -3
v 0 7 3
v 0 7 -3
v 0 8 4
v 0 8 3
v 0 8 -3
v 0 9 4
v 0 9 3
v 0 12 -2
v 0 12 -3
v 0 13 -2
v 0 13 -3
v 1 8 -2
v 1 8 -3
v 1 12 -2
v 1 12 -3
v 2 8 3
v 2 8 -2
v 2 9 4
v 2 9 3
v 2 9 -2
v 2 10 4
v 2 10 3
v 2 13 -2
v 2 13 -3
v 2 14 -2
v 2 14 -3
v 4 9 3
v 4 9 -3
v 4 10 4
v 4 10 3
v 4 10 -3
v 4 11 4
v 4 11 3
v 4 14 -2
v 4 14 -3
v 4 15 -2
v 4 15 -3
v 5 10 -2
v 5 10 -3
v 5 14 -2
v 5 14 -3
v 6 10 3
v 6 10 -2
v 6 11 4
v 6 11 3
v 6 11 -2
v 6 12 4
v 6 12 3
v 6 15 -2
v 6 15 -3
v 6 16 -2
v 6 16 -3
v 8 11 3
v 8 11 -3
v 8 12 4
v 8 12 3
v 8 12 -3
v 8 13 4
v 8 13 3
v 8 16 -2
v 8 16 -3
v 8 17 -2
v 8 17 -3
v 9 12 -2
v 9 12 -3
v 9 16 -2
v 9 16 -3
v -10 3 -2
v -10 3 -3
v -10 7 -2
v -10 7 -3
v -8 7 -2
v -8 7 -3
v -8 8 -2
v -8 8 -3
v -6 5 -2
v -6 5 -3
v -6 9 -2
v -6 9 -3
v -4 9 -2
v -4 9 -3
v -4 10 -2
v -4 10 -3
v -2 7 -2
v -2 7 -3
v -2 11 -2
v -2 11 -3
v 0 11 -2
v 0 11 -3
v 0 12 -2
v 0 12 -3
v 2 9 -2
v 2 9 -3
v 2 13 -2
v 2 13 -3
v 4 13 -2
v 4 13 -3
v 4 14 -2
v 4 14 -3
v 6 11 -2
v 6 11 -3
v 6 15 -2
v 6 15 -3
v 8 15 -2
v 8 15 -3
v 8 16 -2
v 8 16 -3
v 10 12 -2
v 10 12 -3
v 10 16 -2
v 10 16 -3
v 12 0 4
v 12 0 -3
v 12 12 4
v 12 12 3
v 12 12 -3
v 12 13 4
v 12 13 3
v 12 16 -2
v 12 16 -3
v 12 17 -2
v 12 17 -3
v -12 0 4
v -12 2 4
v -12 3 4
v -10 2 4
v -10 3 4
v -10 4 4
v -8 3 4
v -8 4 4
v -8 5 4
v -7 1 4
v -7 2 4
v -6 1 4
v -6 2 4
v -6 4 4
v -6 5 4
v -6 6 4
v -4 5 4
v -4 6 4
v -4 7 4
v -2 6 4
v -2 7 4
v -2 8 4
v 0 2 4
v 0 3 4
v 0 7 4
v 0 8 4
v 0 9 4
v 1 2 4
v 1 3 4
v 2 8 4
v 2 9 4
v 2 10 4
v 4 9 4
v 4 10 4
v 4 11 4
v 6 10 4
v 6 11 4
v 6 12 4
v 8 3 4
v 8 4 4
v 8 11 4
v 8 12 4
v 8 13 4
v 9 3 4
v 9 4 4
v 9 6 4
v 9 7 4
v 10 6 4
v 10 7 4
v 12 0 4
v 12 12 4
v 12 13 4
v -12 6 -2
v -12 7 -2
v -11 2 -2
v -11 6 -2
v -10 2 -2
v -10 3 -2
v -10 7 -2
v -10 8 -2
v -8 7 -2
v -8 8 -2
v -8 9 -2
v -7 4 -2
v -7 8 -2
v -6 4 -2
v -6 5 -2
v -6 9 -2
v -6 10 -2
v -4 9 -2
v -4 10 -2
v -4 11 -2
v -3 6 -2
v -3 10 -2
v -2 6 -2
v -2 7 -2
v -2 11 -2
v -2 12 -2
v 0 11 -2
v 0 12 -2
v 0 13 -2
v 1 8 -2
v 1 12 -2
v 2 8 -2
v 2 9 -2
v 2 13 -2
v 2 14 -2
v 4 13 -2
v 4 14 -2
v 4 15 -2
v 5 10 -2
v 5 14 -2
v 6 10 -2
v 6 11 -2
v 6 15 -2
v 6 16 -2
v 8 15 -2
v 8 16 -2
v 8 17 -2
v 9 12 -2
v 9 16 -2
v 10 12 -2
v 10 16 -2
v 12 16 -2
v 12 17 -2
v -12 2 3
v -12 3 3
v -10 2 3
v -10 3 3
v -10 4 3
v -8 3 3
v -8 4 3
v -8 5 3
v -6 4 3
v -6 5 3
v -6 6 3
v -4 5 3
v -4 6 3
v -4 7 3
v -2 6 3
v -2 7 3
v -2 8 3
v 0 7 3
v 0 8 3
v 0 9 3
v 2 8 3
v 2 9 3
v 2 10 3
v 4 9 3
v 4 10 3
v 4 11 3
v 6 10 3
v 6 11 3
v 6 12 3
v 8 11 3
v 8 12 3
v 8 13 3
v 12 12 3
v 12 13 3
v -12 0 -3
v -12 2 -3
v -12 6 -3
v -12 7 -3
v -11 2 -3
v -11 6 -3
v -10 2 -3
v -10 3 -3
v -10 7 -3
v -10 8 -3
v -8 3 -3
v -8 4 -3
v -8 7 -3
v -8 8 -3
v -8 9 -3
v -7 4 -3
v -7 8 -3
v -6 4 -3
v -6 5 -3
v -6 9 -3
v -6 10 -3
v -4 5 -3
v -4 6 -3
v -4 9 -3
v -4 10 -3
v -4 11 -3
v -3 6 -3
v -3 10 -3
v -2 6 -3
v -2 7 -3
v -2 11 -3
v -2 12 -3
v 0 7 -3
v 0 8 -3
v 0 11 -3
v 0 12 -3
v 0 13 -3
v 1 8 -3
v 1 12 -3
v 2 8 -3
v 2 9 -3
v 2 13 -3
v 2 14 -3
v 4 9 -3
v 4 10 -3
v 4 13 -3
v 4 14 -3
v 4 15 -3
v 5 10 -3
v 5 14 -3
v 6 10 -3
v 6 11 -3
v 6 15 -3
v 6 16 -3
v 8 11 -3
v 8 12 -3
v 8 15 -3
v 8 16 -3
v 8 17 -3
v 9 12 -3
v 9 16 -3
v 10 12 -3
v 10 16 -3
v 12 0 -3
v 12 12 -3
v 12 16 -3
v 12 17 -3
v -12 0 4
v 12 0 4
v -12 0 -3
v 12 0 -3
v -12 6 -2
v -11 6 -2
v -12 6 -3
v -11 6 -3
v -10 7 -2
v -8 7 -2
v -10 7 -3
v -8 7 -3
v -8 8 -2
v -7 8 -2
v -8 8 -3
v -7 8 -3
v -6 9 -2
v -4 9 -2
v -6 9 -3
v -4 9 -3
v -4 10 -2
v -3 10 -2
v -4 10 -3
v -3 10 -3
v -2 11 -2
v 0 11 -2
v -2 11 -3
v 0 11 -3
v 0 12 -2
v 1 12 -2
v 0 12 -3
v 1 12 -3
v 2 13 -2
v 4 13 -2
v 2 13 -3
v 4 13 -3
v 4 14 -2
v 5 14 -2
v 4 14 -3
v 5 14 -3
v 6 15 -2
v 8 15 -2
v 6 15 -3
v 8 15 -3
v 8 16 -2
v 9 16 -2
v 10 16 -2
v 12 16 -2
v 8 16 -3
v 9 16 -3
v 10 16 -3
v 12 16 -3
v -12 2 3
v -10 2 3
v -11 2 -2
v -10 2 -2
v -12 2 -3
v -11 2 -3
v -12 3 4
v -10 3 4
v -12 3 3
v -10 3 3
v -8 3 3
v -10 3 -2
v -10 3 -3
v -8 3 -3
v -10 4 4
v -8 4 4
v -10 4 3
v -8 4 3
v -6 4 3
v -7 4 -2
v -6 4 -2
v -8 4 -3
v -7 4 -3
v -8 5 4
v -6 5 4
v -8 5 3
v -6 5 3
v -4 5 3
v -6 5 -2
v -6 5 -3
v -4 5 -3
v -6 6 4
v -4 6 4
v -6 6 3
v -4 6 3
v -2 6 3
v -3 6 -2
v -2 6 -2
v -4 6 -3
v -3 6 -3
v -4 7 4
v -2 7 4
v -4 7 3
v -2 7 3
v 0 7 3
v -12 7 -2
v -10 7 -2
v -2 7 -2
v -12 7 -3
v -10 7 -3
v -2 7 -3
v 0 7 -3
v -2 8 4
v 0 8 4
v -2 8 3
v 0 8 3
v 2 8 3
v -10 8 -2
v -8 8 -2
v 1 8 -2
v 2 8 -2
v -10 8 -3
v -8 8 -3
v 0 8 -3
v 1 8 -3
v 0 9 4
v 2 9 4
v 0 9 3
v 2 9 3
v 4 9 3
v -8 9 -2
v -6 9 -2
v 2 9 -2
v -8 9 -3
v -6 9 -3
v 2 9 -3
v 4 9 -3
v 2 10 4
v 4 10 4
v 2 10 3
v 4 10 3
v 6 10 3
v -6 10 -2
v -4 10 -2
v 5 10 -2
v 6 10 -2
v -6 10 -3
v -4 10 -3
v 4 10 -3
v 5 10 -3
v 4 11 4
v 6 11 4
v 4 11 3
v 6 11 3
v 8 11 3
v -4 11 -2
v -2 11 -2
v 6 11 -2
v -4 11 -3
v -2 11 -3
v 6 11 -3
v 8 11 -3
v 6 12 4
v 8 12 4
v 6 12 3
v 8 12 3
v 12 12 3
v -2 12 -2
v 0 12 -2
v 9 12 -2
v 10 12 -2
v -2 12 -3
v 0 12 -3
v 8 12 -3
v 9 12 -3
v 10 12 -3
v 12 12 -3
v 8 13 4
v 12 13 4
v 8 13 3
v 12 13 3
v 0 13 -2
v 2 13 -2
v 0 13 -3
v 2 13 -3
v 2 14 -2
v 4 14 -2
v 2 14 -3
v 4 14 -3
v 4 15 -2
v 6 15 -2
v 4 15 -3
v 6 15 -3
v 6 16 -2
v 8 16 -2
v 6 16 -3
v 8 16 -3
v 8 17 -2
v 12 17 -2
v 8 17 -3
v 12 17 -3

# faces
f 3/2/1 2/2/1 1/2/1
f 4/2/1 2/2/1 3/2/1
f 5/2/1 2/2/1 4/2/1
f 6/1/1 4/1/1 3/1/1
f 7/1/1 4/1/1 6/1/1
f 10/3/1 9/3/1 8/3/1
f 11/3/1 9/3/1 10/3/1
f 14/3/1 13/3/1 12/3/1
f 15/3/1 13/3/1 14/3/1
f 19/2/1 17/2/1 16/2/1
f 20/2/1 17/2/1 19/2/1
f 21/1/1 19/1/1 18/1/1
f 22/1/1 19/1/1 21/1/1
f 25/3/1 24/3/1 23/3/1
f 26/3/1 24/3/1 25/3/1
f 30/2/1 28/2/1 27/2/1
f 31/2/1 28/2/1 30/2/1
f 32/1/1 30/1/1 29/1/1
f 33/1/1 30/1/1 32/1/1
f 36/3/1 35/3/1 34/3/1
f 37/3/1 35/3/1 36/3/1
f 40/3/1 39/3/1 38/3/1
f 41/3/1 39/3/1 40/3/1
f 45/2/1 43/2/1 42/2/1
f 46/2/1 43/2/1 45/2/1
f 47/1/1 45/1/1 44/1/1
f 48/1/1 45/1/1 47/1/1
f 51/3/1 50/3/1 49/3/1
f 52/3/1 50/3/1 51/3/1
f 56/2/1 54/2/1 53/2/1
f 57/2/1 54/2/1 56/2/1
f 58/1/1 56/1/1 55/1/1
f 59/1/1 56/1/1 58/1/1
f 62/3/1 61/3/1 60/3/1
f 63/3/1 61/3/1 62/3/1
f 66/3/1 65/3/1 64/3/1
f 67/3/1 65/3/1 66/3/1
f 71/2/1 69/2/1 68/2/1
f 72/2/1 69/2/1 71/2/1
f 73/1/1 71/1/1 70/1/1
f 74/1/1 71/1/1 73/1/1
f 77/3/1 76/3/1 75/3/1
f 78/3/1 76/3/1 77/3/1
f 82/2/1 80/2/1 79/2/1
f 83/2/1 80/2/1 82/2/1
f 84/1/1 82/1/1 81/1/1
f 85/1/1 82/1/1 84/1/1
f 88/3/1 87/3/1 86/3/1
f 89/3/1 87/3/1 88/3/1
f 92/3/1 91/3/1 90/3/1
f 93/3/1 91/3/1 92/3/1
f 97/2/1 95/2/1 94/2/1
f 98/2/1 95/2/1 97/2/1
f 99/1/1 97/1/1 96/1/1
f 100/1/1 97/1/1 99/1/1
f 103/3/1 102/3/1 101/3/1
f 104/3/1 102/3/1 103/3/1
f 108/2/1 106/2/1 105/2/1
f 109/2/1 106/2/1 108/2/1
f 110/1/1 108/1/1 107/1/1
f 111/1/1 108/1/1 110/1/1
f 114/3/1 113/3/1 112/3/1
f 115/3/1 113/3/1 114/3/1
f 118/3/1 117/3/1 116/3/1
f 119/3/1 117/3/1 118/3/1
f 123/2/1 121/2/1 120/2/1
f 124/2/1 121/2/1 123/2/1
f 125/1/1 123/1/1 122/1/1
f 126/1/1 123/1/1 125/1/1
f 129/3/1 128/3/1 127/3/1
f 130/3/1 128/3/1 129/3/1
f 134/2/1 132/2/1 131/2/1
f 135/2/1 132/2/1 134/2/1
f 136/1/1 134/1/1 133/1/1
f 137/1/1 134/1/1 136/1/1
f 140/3/1 139/3/1 138/3/1
f 141/3/1 139/3/1 140/3/1
f 144/3/1 143/3/1 142/3/1
f 145/3/1 143/3/1 144/3/1
f 146/3/2 147/3/2 148/3/2
f 148/3/2 147/3/2 149/3/2
f 150/3/2 151/3/2 152/3/2
f 152/3/2 151/3/2 153/3/2
f 154/3/2 155/3/2 156/3/2
f 156/3/2 155/3/2 157/3/2
f 158/3/2 159/3/2 160/3/2
f 160/3/2 159/3/2 161/3/2
f 162/3/2 163/3/2 164/3/2
f 164/3/2 163/3/2 165/3/2
f 166/3/2 167/3/2 168/3/2
f 168/3/2 167/3/2 169/3/2
f 170/3/2 171/3/2 172/3/2
f 172/3/2 171/3/2 173/3/2
f 174/3/2 175/3/2 176/3/2
f 176/3/2 175/3/2 177/3/2
f 178/3/2 179/3/2 180/3/2
f 180/3/2 179/3/2 181/3/2
f 182/3/2 183/3/2 184/3/2
f 184/3/2 183/3/2 185/3/2
f 186/3/2 187/3/2 188/3/2
f 188/3/2 187/3/2 189/3/2
f 190/2/2 191/2/2 192/2/2
f 192/2/2 191/2/2 193/2/2
f 193/2/2 191/2/2 194/2/2
f 192/1/2 193/1/2 195/1/2
f 195/1/2 193/1/2 196/1/2
f 197/3/2 198/3/2 199/3/2
f 199/3/2 198/3/2 200/3/2
f 204/2/3 202/2/3 201/2/3
f 204/1/3 203/1/3 202/1/3
f 205/1/3 203/1/3 204/1/3
f 207/2/3 205/2/3 204/2/3
f 207/1/3 206/1/3 205/1/3
f 208/1/3 206/1/3 207/1/3
f 210/2/3 204/2/3 201/2/3
f 210/2/3 207/2/3 204/2/3
f 210/2/3 208/2/3 207/2/3
f 211/2/3 208/2/3 210/2/3
f 212/2/3 210/2/3 201/2/3
f 212/3/3 211/3/3 210/3/3
f 213/2/3 208/2/3 211/2/3
f 213/3/3 211/3/3 212/3/3
f 214/1/3 209/1/3 208/1/3
f 214/2/3 208/2/3 213/2/3
f 215/1/3 209/1/3 214/1/3
f 217/2/3 213/2/3 212/2/3
f 217/1/3 216/1/3 215/1/3
f 217/2/3 215/2/3 214/2/3
f 217/2/3 214/2/3 213/2/3
f 218/1/3 216/1/3 217/1/3
f 220/2/3 218/2/3 217/2/3
f 220/1/3 219/1/3 218/1/3
f 221/1/3 219/1/3 220/1/3
f 223/2/3 217/2/3 212/2/3
f 223/2/3 220/2/3 217/2/3
f 223/2/3 221/2/3 220/2/3
f 224/2/3 221/2/3 223/2/3
f 225/1/3 222/1/3 221/1/3
f 225/2/3 221/2/3 224/2/3
f 226/1/3 222/1/3 225/1/3
f 228/1/3 224/1/3 223/1/3
f 228/2/3 223/2/3 212/2/3
f 229/2/3 226/2/3 225/2/3
f 229/1/3 224/1/3 228/1/3
f 229/2/3 225/2/3 224/2/3
f 230/1/3 227/1/3 226/1/3
f 230/2/3 226/2/3 229/2/3
f 230/2/3 229/2/3 228/2/3
f 231/1/3 227/1/3 230/1/3
f 233/2/3 231/2/3 230/2/3
f 233/1/3 232/1/3 231/1/3
f 234/1/3 232/1/3 233/1/3
f 236/2/3 234/2/3 233/2/3
f 236/1/3 235/1/3 234/1/3
f 237/1/3 235/1/3 236/1/3
f 239/2/3 230/2/3 228/2/3
f 239/2/3 233/2/3 230/2/3
f 239/2/3 237/2/3 236/2/3
f 239/2/3 236/2/3 233/2/3
f 240/2/3 237/2/3 239/2/3
f 241/1/3 238/1/3 237/1/3
f 241/2/3 237/2/3 240/2/3
f 242/1/3 238/1/3 241/1/3
f 244/3/3 240/3/3 239/3/3
f 244/2/3 239/2/3 228/2/3
f 245/2/3 242/2/3 241/2/3
f 245/3/3 240/3/3 244/3/3
f 245/2/3 241/2/3 240/2/3
f 246/2/3 242/2/3 245/2/3
f 247/2/3 242/2/3 246/2/3
f 248/2/3 245/2/3 244/2/3
f 248/2/3 246/2/3 245/2/3
f 248/1/3 247/1/3 246/1/3
f 249/2/3 242/2/3 247/2/3
f 249/1/3 247/1/3 248/1/3
f 250/2/3 212/2/3 201/2/3
f 250/2/3 228/2/3 212/2/3
f 250/2/3 249/2/3 248/2/3
f 250/2/3 248/2/3 244/2/3
f 250/2/3 244/2/3 228/2/3
f 251/2/3 242/2/3 249/2/3
f 251/2/3 249/2/3 250/2/3
f 251/1/3 243/1/3 242/1/3
f 252/1/3 243/1/3 251/1/3
f 256/3/3 254/3/3 253/3/3
f 257/3/3 256/3/3 255/3/3
f 258/3/3 256/3/3 257/3/3
f 259/3/3 254/3/3 256/3/3
f 259/3/3 256/3/3 258/3/3
f 261/3/3 260/3/3 259/3/3
f 262/3/3 260/3/3 261/3/3
f 265/3/3 263/3/3 262/3/3
f 266/3/3 265/3/3 264/3/3
f 267/3/3 265/3/3 266/3/3
f 268/3/3 263/3/3 265/3/3
f 268/3/3 265/3/3 267/3/3
f 270/3/3 269/3/3 268/3/3
f 271/3/3 269/3/3 270/3/3
f 274/3/3 272/3/3 271/3/3
f 275/3/3 274/3/3 273/3/3
f 276/3/3 274/3/3 275/3/3
f 277/3/3 272/3/3 274/3/3
f 277/3/3 274/3/3 276/3/3
f 279/3/3 278/3/3 277/3/3
f 280/3/3 278/3/3 279/3/3
f 283/3/3 281/3/3 280/3/3
f 284/3/3 283/3/3 282/3/3
f 285/3/3 283/3/3 284/3/3
f 286/3/3 281/3/3 283/3/3
f 286/3/3 283/3/3 285/3/3
f 288/3/3 287/3/3 286/3/3
f 289/3/3 287/3/3 288/3/3
f 292/3/3 290/3/3 289/3/3
f 293/3/3 292/3/3 291/3/3
f 294/3/3 292/3/3 293/3/3
f 295/3/3 290/3/3 292/3/3
f 295/3/3 292/3/3 294/3/3
f 297/3/3 296/3/3 295/3/3
f 298/3/3 296/3/3 297/3/3
f 301/3/3 299/3/3 298/3/3
f 302/3/3 301/3/3 300/3/3
f 303/3/3 299/3/3 301/3/3
f 303/3/3 301/3/3 302/3/3
f 304/3/3 299/3/3 303/3/3
f 305/3/3 299/3/3 304/3/3
f 306/1/4 307/1/4 308/1/4
f 308/1/4 307/1/4 309/1/4
f 309/1/4 310/1/4 311/1/4
f 311/1/4 310/1/4 312/1/4
f 312/1/4 313/1/4 314/1/4
f 314/1/4 313/1/4 315/1/4
f 315/1/4 316/1/4 317/1/4
f 317/1/4 316/1/4 318/1/4
f 318/1/4 319/1/4 320/1/4
f 320/1/4 319/1/4 321/1/4
f 321/1/4 322/1/4 323/1/4
f 323/1/4 322/1/4 324/1/4
f 324/1/4 325/1/4 326/1/4
f 326/1/4 325/1/4 327/1/4
f 327/1/4 328/1/4 329/1/4
f 329/1/4 328/1/4 330/1/4
f 330/1/4 331/1/4 332/1/4
f 332/1/4 331/1/4 333/1/4
f 333/1/4 334/1/4 335/1/4
f 335/1/4 334/1/4 336/1/4
f 336/1/4 337/1/4 338/1/4
f 338/1/4 337/1/4 339/1/4
f 340/2/4 341/2/4 344/2/4
f 342/3/4 343/3/4 345/3/4
f 340/2/4 344/2/4 346/2/4
f 344/3/4 345/3/4 346/3/4
f 346/3/4 345/3/4 347/3/4
f 345/3/4 343/3/4 348/3/4
f 347/3/4 345/3/4 348/3/4
f 346/2/4 347/2/4 350/2/4
f 348/3/4 349/3/4 352/3/4
f 352/3/4 349/3/4 353/3/4
f 350/2/4 351/2/4 355/2/4
f 353/3/4 354/3/4 356/3/4
f 350/2/4 355/2/4 357/2/4
f 355/3/4 356/3/4 357/3/4
f 357/3/4 356/3/4 358/3/4
f 356/3/4 354/3/4 359/3/4
f 358/3/4 356/3/4 359/3/4
f 357/2/4 358/2/4 361/2/4
f 359/3/4 360/3/4 363/3/4
f 363/3/4 360/3/4 364/3/4
f 361/2/4 362/2/4 366/2/4
f 364/3/4 365/3/4 367/3/4
f 361/2/4 366/2/4 368/2/4
f 366/3/4 367/3/4 368/3/4
f 368/3/4 367/3/4 369/3/4
f 367/3/4 365/3/4 370/3/4
f 369/3/4 367/3/4 370/3/4
f 368/2/4 369/2/4 372/2/4
f 370/3/4 371/3/4 374/3/4
f 374/3/4 371/3/4 375/3/4
f 372/2/4 373/2/4 377/2/4
f 375/3/4 376/3/4 378/3/4
f 372/2/4 377/2/4 379/2/4
f 377/3/4 378/3/4 379/3/4
f 379/3/4 378/3/4 380/3/4
f 378/3/4 376/3/4 381/3/4
f 380/3/4 378/3/4 381/3/4
f 379/2/4 380/2/4 383/2/4
f 381/3/4 382/3/4 385/3/4
f 385/3/4 382/3/4 386/3/4
f 383/2/4 384/2/4 388/2/4
f 386/3/4 387/3/4 389/3/4
f 383/2/4 388/2/4 390/2/4
f 388/3/4 389/3/4 390/3/4
f 390/3/4 389/3/4 391/3/4
f 389/3/4 387/3/4 392/3/4
f 391/3/4 389/3/4 392/3/4
f 390/2/4 391/2/4 394/2/4
f 392/3/4 393/3/4 396/3/4
f 396/3/4 393/3/4 397/3/4
f 394/2/4 395/2/4 399/2/4
f 397/3/4 398/3/4 400/3/4
f 394/2/4 399/2/4 401/2/4
f 399/3/4 400/3/4 401/3/4
f 400/3/4 398/3/4 402/3/4
f 401/3/4 400/3/4 402/3/4
f 394/2/4 401/2/4 403/2/4
f 340/2/4 346/2/4 403/2/4
f 346/2/4 350/2/4 403/2/4
f 350/2/4 357/2/4 403/2/4
f 390/2/4 394/2/4 403/2/4
f 383/2/4 390/2/4 403/2/4
f 357/2/4 361/2/4 403/2/4
f 361/2/4 368/2/4 403/2/4
f 379/2/4 383/2/4 403/2/4
f 372/2/4 379/2/4 403/2/4
f 368/2/4 372/2/4 403/2/4
f 403/2/4 401/2/4 404/2/4
f 402/3/4 398/3/4 405/3/4
f 405/3/4 398/3/4 406/3/4
f 409/2/5 408/2/5 407/2/5
f 410/2/5 408/2/5 409/2/5
f 413/3/5 412/3/5 411/3/5
f 414/3/5 412/3/5 413/3/5
f 417/3/5 416/3/5 415/3/5
f 418/3/5 416/3/5 417/3/5
f 421/3/5 420/3/5 419/3/5
f 422/3/5 420/3/5 421/3/5
f 425/3/5 424/3/5 423/3/5
f 426/3/5 424/3/5 425/3/5
f 429/3/5 428/3/5 427/3/5
f 430/3/5 428/3/5 429/3/5
f 433/3/5 432/3/5 431/3/5
f 434/3/5 432/3/5 433/3/5
f 437/3/5 436/3/5 435/3/5
f 438/3/5 436/3/5 437/3/5
f 441/3/5 440/3/5 439/3/5
f 442/3/5 440/3/5 441/3/5
f 445/3/5 444/3/5 443/3/5
f 446/3/5 444/3/5 445/3/5
f 449/3/5 448/3/5 447/3/5
f 450/3/5 448/3/5 449/3/5
f 455/3/5 452/3/5 451/3/5
f 456/3/5 452/3/5 455/3/5
f 457/3/5 454/3/5 453/3/5
f 458/3/5 454/3/5 457/3/5
f 459/2/6 460/2/6 461/2/6
f 461/2/6 460/2/6 462/2/6
f 459/2/6 461/2/6 463/2/6
f 463/2/6 461/2/6 464/2/6
f 465/1/6 466/1/6 467/1/6
f 467/1/6 466/1/6 468/1/6
f 468/2/6 469/2/6 470/2/6
f 470/2/6 469/2/6 471/2/6
f 471/2/6 469/2/6 472/2/6
f 473/1/6 474/1/6 475/1/6
f 475/1/6 474/1/6 476/1/6
f 476/2/6 477/2/6 478/2/6
f 478/2/6 477/2/6 479/2/6
f 476/2/6 478/2/6 480/2/6
f 480/2/6 478/2/6 481/2/6
f 482/1/6 483/1/6 484/1/6
f 484/1/6 483/1/6 485/1/6
f 485/2/6 486/2/6 487/2/6
f 487/2/6 486/2/6 488/2/6
f 488/2/6 486/2/6 489/2/6
f 490/1/6 491/1/6 492/1/6
f 492/1/6 491/1/6 493/1/6
f 493/2/6 494/2/6 495/2/6
f 495/2/6 494/2/6 496/2/6
f 493/2/6 495/2/6 497/2/6
f 497/2/6 495/2/6 498/2/6
f 499/1/6 500/1/6 501/1/6
f 501/1/6 500/1/6 502/1/6
f 502/2/6 503/2/6 506/2/6
f 504/3/6 505/3/6 507/3/6
f 507/3/6 505/3/6 508/3/6
f 506/2/6 503/2/6 509/2/6
f 509/2/6 503/2/6 510/2/6
f 511/1/6 512/1/6 513/1/6
f 513/1/6 512/1/6 514/1/6
f 514/2/6 515/2/6 518/2/6
f 518/2/6 515/2/6 519/2/6
f 516/3/6 517/3/6 520/3/6
f 520/3/6 517/3/6 521/3/6
f 514/2/6 518/2/6 522/2/6
f 522/2/6 518/2/6 523/2/6
f 524/1/6 525/1/6 526/1/6
f 526/1/6 525/1/6 527/1/6
f 527/2/6 528/2/6 531/2/6
f 529/3/6 530/3/6 532/3/6
f 532/3/6 530/3/6 533/3/6
f 531/2/6 528/2/6 534/2/6
f 534/2/6 528/2/6 535/2/6
f 536/1/6 537/1/6 538/1/6
f 538/1/6 537/1/6 539/1/6
f 539/2/6 540/2/6 543/2/6
f 543/2/6 540/2/6 544/2/6
f 541/3/6 542/3/6 545/3/6
f 545/3/6 542/3/6 546/3/6
f 539/2/6 543/2/6 547/2/6
f 547/2/6 543/2/6 548/2/6
f 549/1/6 550/1/6 551/1/6
f 551/1/6 550/1/6 552/1/6
f 552/2/6 553/2/6 556/2/6
f 554/3/6 555/3/6 557/3/6
f 557/3/6 555/3/6 558/3/6
f 556/2/6 553/2/6 559/2/6
f 559/2/6 553/2/6 560/2/6
f 561/1/6 562/1/6 563/1/6
f 563/1/6 562/1/6 564/1/6
f 564/2/6 565/2/6 568/2/6
f 568/2/6 565/2/6 569/2/6
f 566/3/6 567/3/6 570/3/6
f 570/3/6 567/3/6 571/3/6
f 564/2/6 568/2/6 572/2/6
f 572/2/6 568/2/6 573/2/6
f 569/2/6 565/2/6 574/2/6
f 574/2/6 565/2/6 575/2/6
f 576/1/6 577/1/6 578/1/6
f 578/1/6 577/1/6 579/1/6
f 580/3/6 581/3/6 582/3/6
f 582/3/6 581/3/6 583/3/6
f 584/3/6 585/3/6 586/3/6
f 586/3/6 585/3/6 587/3/6
f 588/3/6 589/3/6 590/3/6
f 590/3/6 589/3/6 591/3/6
f 592/3/6 593/3/6 594/3/6
f 594/3/6 593/3/6 595/3/6
f 596/3/6 597/3/6 598/3/6
f 598/3/6 597/3/6 599/3/6
