# MagicaVoxel @ Ephtracy

# group
g map_jiha_object_3

# material
mtllib map_jiha_object_3.mtl
usemtl palette

# normals
vn -1 0 0
vn 1 0 0
vn 0 0 1
vn 0 0 -1
vn 0 -1 0
vn 0 1 0

# texcoords
vt 0.978516 0.5
vt 0.982422 0.5
vt 0.986328 0.5

# verts
v -12 0 3.5
v -12 0 -3.5
v -12 12 3.5
v -12 12 2.5
v -12 12 -3.5
v -12 13 3.5
v -12 13 2.5
v -12 16 -2.5
v -12 16 -3.5
v -12 17 -2.5
v -12 17 -3.5
v -10 12 -2.5
v -10 12 -3.5
v -10 16 -2.5
v -10 16 -3.5
v -8 15 -2.5
v -8 15 -3.5
v -8 16 -2.5
v -8 16 -3.5
v -6 11 -2.5
v -6 11 -3.5
v -6 15 -2.5
v -6 15 -3.5
v -4 13 -2.5
v -4 13 -3.5
v -4 14 -2.5
v -4 14 -3.5
v -2 9 -2.5
v -2 9 -3.5
v -2 13 -2.5
v -2 13 -3.5
v 0 11 -2.5
v 0 11 -3.5
v 0 12 -2.5
v 0 12 -3.5
v 2 7 -2.5
v 2 7 -3.5
v 2 11 -2.5
v 2 11 -3.5
v 4 9 -2.5
v 4 9 -3.5
v 4 10 -2.5
v 4 10 -3.5
v 6 5 -2.5
v 6 5 -3.5
v 6 9 -2.5
v 6 9 -3.5
v 8 7 -2.5
v 8 7 -3.5
v 8 8 -2.5
v 8 8 -3.5
v 10 3 -2.5
v 10 3 -3.5
v 10 7 -2.5
v 10 7 -3.5
v -9 12 -2.5
v -9 12 -3.5
v -9 16 -2.5
v -9 16 -3.5
v -8 11 2.5
v -8 11 -3.5
v -8 12 3.5
v -8 12 2.5
v -8 12 -3.5
v -8 13 3.5
v -8 13 2.5
v -8 16 -2.5
v -8 16 -3.5
v -8 17 -2.5
v -8 17 -3.5
v -6 10 2.5
v -6 10 -2.5
v -6 11 3.5
v -6 11 2.5
v -6 11 -2.5
v -6 12 3.5
v -6 12 2.5
v -6 15 -2.5
v -6 15 -3.5
v -6 16 -2.5
v -6 16 -3.5
v -5 10 -2.5
v -5 10 -3.5
v -5 14 -2.5
v -5 14 -3.5
v -4 9 2.5
v -4 9 -3.5
v -4 10 3.5
v -4 10 2.5
v -4 10 -3.5
v -4 11 3.5
v -4 11 2.5
v -4 14 -2.5
v -4 14 -3.5
v -4 15 -2.5
v -4 15 -3.5
v -2 8 2.5
v -2 8 -2.5
v -2 9 3.5
v -2 9 2.5
v -2 9 -2.5
v -2 10 3.5
v -2 10 2.5
v -2 13 -2.5
v -2 13 -3.5
v -2 14 -2.5
v -2 14 -3.5
v -1 8 -2.5
v -1 8 -3.5
v -1 12 -2.5
v -1 12 -3.5
v 0 7 2.5
v 0 7 -3.5
v 0 8 3.5
v 0 8 2.5
v 0 8 -3.5
v 0 9 3.5
v 0 9 2.5
v 0 12 -2.5
v 0 12 -3.5
v 0 13 -2.5
v 0 13 -3.5
v 2 6 2.5
v 2 6 -2.5
v 2 7 3.5
v 2 7 2.5
v 2 7 -2.5
v 2 8 3.5
v 2 8 2.5
v 2 11 -2.5
v 2 11 -3.5
v 2 12 -2.5
v 2 12 -3.5
v 3 6 -2.5
v 3 6 -3.5
v 3 10 -2.5
v 3 10 -3.5
v 4 5 2.5
v 4 5 -3.5
v 4 6 3.5
v 4 6 2.5
v 4 6 -3.5
v 4 7 3.5
v 4 7 2.5
v 4 10 -2.5
v 4 10 -3.5
v 4 11 -2.5
v 4 11 -3.5
v 6 4 2.5
v 6 4 -2.5
v 6 5 3.5
v 6 5 2.5
v 6 5 -2.5
v 6 6 3.5
v 6 6 2.5
v 6 9 -2.5
v 6 9 -3.5
v 6 10 -2.5
v 6 10 -3.5
v 7 4 -2.5
v 7 4 -3.5
v 7 8 -2.5
v 7 8 -3.5
v 8 3 2.5
v 8 3 -3.5
v 8 4 3.5
v 8 4 2.5
v 8 4 -3.5
v 8 5 3.5
v 8 5 2.5
v 8 8 -2.5
v 8 8 -3.5
v 8 9 -2.5
v 8 9 -3.5
v 10 2 2.5
v 10 2 -2.5
v 10 3 3.5
v 10 3 2.5
v 10 3 -2.5
v 10 4 3.5
v 10 4 2.5
v 10 7 -2.5
v 10 7 -3.5
v 10 8 -2.5
v 10 8 -3.5
v 11 2 -2.5
v 11 2 -3.5
v 11 6 -2.5
v 11 6 -3.5
v 12 0 3.5
v 12 0 -3.5
v 12 2 3.5
v 12 2 2.5
v 12 2 -3.5
v 12 3 3.5
v 12 3 2.5
v 12 6 -2.5
v 12 6 -3.5
v 12 7 -2.5
v 12 7 -3.5
v -12 0 3.5
v -12 12 3.5
v -12 13 3.5
v -10 6 3.5
v -10 7 3.5
v -9 3 3.5
v -9 4 3.5
v -9 6 3.5
v -9 7 3.5
v -8 3 3.5
v -8 4 3.5
v -8 11 3.5
v -8 12 3.5
v -8 13 3.5
v -6 10 3.5
v -6 11 3.5
v -6 12 3.5
v -4 9 3.5
v -4 10 3.5
v -4 11 3.5
v -2 8 3.5
v -2 9 3.5
v -2 10 3.5
v -1 2 3.5
v -1 3 3.5
v 0 2 3.5
v 0 3 3.5
v 0 7 3.5
v 0 8 3.5
v 0 9 3.5
v 2 6 3.5
v 2 7 3.5
v 2 8 3.5
v 4 5 3.5
v 4 6 3.5
v 4 7 3.5
v 6 1 3.5
v 6 2 3.5
v 6 4 3.5
v 6 5 3.5
v 6 6 3.5
v 7 1 3.5
v 7 2 3.5
v 8 3 3.5
v 8 4 3.5
v 8 5 3.5
v 10 2 3.5
v 10 3 3.5
v 10 4 3.5
v 12 0 3.5
v 12 2 3.5
v 12 3 3.5
v -12 16 -2.5
v -12 17 -2.5
v -10 12 -2.5
v -10 16 -2.5
v -9 12 -2.5
v -9 16 -2.5
v -8 15 -2.5
v -8 16 -2.5
v -8 17 -2.5
v -6 10 -2.5
v -6 11 -2.5
v -6 15 -2.5
v -6 16 -2.5
v -5 10 -2.5
v -5 14 -2.5
v -4 13 -2.5
v -4 14 -2.5
v -4 15 -2.5
v -2 8 -2.5
v -2 9 -2.5
v -2 13 -2.5
v -2 14 -2.5
v -1 8 -2.5
v -1 12 -2.5
v 0 11 -2.5
v 0 12 -2.5
v 0 13 -2.5
v 2 6 -2.5
v 2 7 -2.5
v 2 11 -2.5
v 2 12 -2.5
v 3 6 -2.5
v 3 10 -2.5
v 4 9 -2.5
v 4 10 -2.5
v 4 11 -2.5
v 6 4 -2.5
v 6 5 -2.5
v 6 9 -2.5
v 6 10 -2.5
v 7 4 -2.5
v 7 8 -2.5
v 8 7 -2.5
v 8 8 -2.5
v 8 9 -2.5
v 10 2 -2.5
v 10 3 -2.5
v 10 7 -2.5
v 10 8 -2.5
v 11 2 -2.5
v 11 6 -2.5
v 12 6 -2.5
v 12 7 -2.5
v -12 12 2.5
v -12 13 2.5
v -8 11 2.5
v -8 12 2.5
v -8 13 2.5
v -6 10 2.5
v -6 11 2.5
v -6 12 2.5
v -4 9 2.5
v -4 10 2.5
v -4 11 2.5
v -2 8 2.5
v -2 9 2.5
v -2 10 2.5
v 0 7 2.5
v 0 8 2.5
v 0 9 2.5
v 2 6 2.5
v 2 7 2.5
v 2 8 2.5
v 4 5 2.5
v 4 6 2.5
v 4 7 2.5
v 6 4 2.5
v 6 5 2.5
v 6 6 2.5
v 8 3 2.5
v 8 4 2.5
v 8 5 2.5
v 10 2 2.5
v 10 3 2.5
v 10 4 2.5
v 12 2 2.5
v 12 3 2.5
v -12 0 -3.5
v -12 12 -3.5
v -12 16 -3.5
v -12 17 -3.5
v -10 12 -3.5
v -10 16 -3.5
v -9 12 -3.5
v -9 16 -3.5
v -8 11 -3.5
v -8 12 -3.5
v -8 15 -3.5
v -8 16 -3.5
v -8 17 -3.5
v -6 10 -3.5
v -6 11 -3.5
v -6 15 -3.5
v -6 16 -3.5
v -5 10 -3.5
v -5 14 -3.5
v -4 9 -3.5
v -4 10 -3.5
v -4 13 -3.5
v -4 14 -3.5
v -4 15 -3.5
v -2 8 -3.5
v -2 9 -3.5
v -2 13 -3.5
v -2 14 -3.5
v -1 8 -3.5
v -1 12 -3.5
v 0 7 -3.5
v 0 8 -3.5
v 0 11 -3.5
v 0 12 -3.5
v 0 13 -3.5
v 2 6 -3.5
v 2 7 -3.5
v 2 11 -3.5
v 2 12 -3.5
v 3 6 -3.5
v 3 10 -3.5
v 4 5 -3.5
v 4 6 -3.5
v 4 9 -3.5
v 4 10 -3.5
v 4 11 -3.5
v 6 4 -3.5
v 6 5 -3.5
v 6 9 -3.5
v 6 10 -3.5
v 7 4 -3.5
v 7 8 -3.5
v 8 3 -3.5
v 8 4 -3.5
v 8 7 -3.5
v 8 8 -3.5
v 8 9 -3.5
v 10 2 -3.5
v 10 3 -3.5
v 10 7 -3.5
v 10 8 -3.5
v 11 2 -3.5
v 11 6 -3.5
v 12 0 -3.5
v 12 2 -3.5
v 12 6 -3.5
v 12 7 -3.5
v -12 0 3.5
v 12 0 3.5
v -12 0 -3.5
v 12 0 -3.5
v 11 6 -2.5
v 12 6 -2.5
v 11 6 -3.5
v 12 6 -3.5
v 8 7 -2.5
v 10 7 -2.5
v 8 7 -3.5
v 10 7 -3.5
v 7 8 -2.5
v 8 8 -2.5
v 7 8 -3.5
v 8 8 -3.5
v 4 9 -2.5
v 6 9 -2.5
v 4 9 -3.5
v 6 9 -3.5
v 3 10 -2.5
v 4 10 -2.5
v 3 10 -3.5
v 4 10 -3.5
v 0 11 -2.5
v 2 11 -2.5
v 0 11 -3.5
v 2 11 -3.5
v -1 12 -2.5
v 0 12 -2.5
v -1 12 -3.5
v 0 12 -3.5
v -4 13 -2.5
v -2 13 -2.5
v -4 13 -3.5
v -2 13 -3.5
v -5 14 -2.5
v -4 14 -2.5
v -5 14 -3.5
v -4 14 -3.5
v -8 15 -2.5
v -6 15 -2.5
v -8 15 -3.5
v -6 15 -3.5
v -12 16 -2.5
v -10 16 -2.5
v -9 16 -2.5
v -8 16 -2.5
v -12 16 -3.5
v -10 16 -3.5
v -9 16 -3.5
v -8 16 -3.5
v 10 2 2.5
v 12 2 2.5
v 10 2 -2.5
v 11 2 -2.5
v 11 2 -3.5
v 12 2 -3.5
v 10 3 3.5
v 12 3 3.5
v 8 3 2.5
v 10 3 2.5
v 12 3 2.5
v 10 3 -2.5
v 8 3 -3.5
v 10 3 -3.5
v 8 4 3.5
v 10 4 3.5
v 6 4 2.5
v 8 4 2.5
v 10 4 2.5
v 6 4 -2.5
v 7 4 -2.5
v 7 4 -3.5
v 8 4 -3.5
v 6 5 3.5
v 8 5 3.5
v 4 5 2.5
v 6 5 2.5
v 8 5 2.5
v 6 5 -2.5
v 4 5 -3.5
v 6 5 -3.5
v 4 6 3.5
v 6 6 3.5
v 2 6 2.5
v 4 6 2.5
v 6 6 2.5
v 2 6 -2.5
v 3 6 -2.5
v 3 6 -3.5
v 4 6 -3.5
v 2 7 3.5
v 4 7 3.5
v 0 7 2.5
v 2 7 2.5
v 4 7 2.5
v 2 7 -2.5
v 10 7 -2.5
v 12 7 -2.5
v 0 7 -3.5
v 2 7 -3.5
v 10 7 -3.5
v 12 7 -3.5
v 0 8 3.5
v 2 8 3.5
v -2 8 2.5
v 0 8 2.5
v 2 8 2.5
v -2 8 -2.5
v -1 8 -2.5
v 8 8 -2.5
v 10 8 -2.5
v -1 8 -3.5
v 0 8 -3.5
v 8 8 -3.5
v 10 8 -3.5
v -2 9 3.5
v 0 9 3.5
v -4 9 2.5
v -2 9 2.5
v 0 9 2.5
v -2 9 -2.5
v 6 9 -2.5
v 8 9 -2.5
v -4 9 -3.5
v -2 9 -3.5
v 6 9 -3.5
v 8 9 -3.5
v -4 10 3.5
v -2 10 3.5
v -6 10 2.5
v -4 10 2.5
v -2 10 2.5
v -6 10 -2.5
v -5 10 -2.5
v 4 10 -2.5
v 6 10 -2.5
v -5 10 -3.5
v -4 10 -3.5
v 4 10 -3.5
v 6 10 -3.5
v -6 11 3.5
v -4 11 3.5
v -8 11 2.5
v -6 11 2.5
v -4 11 2.5
v -6 11 -2.5
v 2 11 -2.5
v 4 11 -2.5
v -8 11 -3.5
v -6 11 -3.5
v 2 11 -3.5
v 4 11 -3.5
v -8 12 3.5
v -6 12 3.5
v -12 12 2.5
v -8 12 2.5
v -6 12 2.5
v -10 12 -2.5
v -9 12 -2.5
v 0 12 -2.5
v 2 12 -2.5
v -12 12 -3.5
v -10 12 -3.5
v -9 12 -3.5
v -8 12 -3.5
v 0 12 -3.5
v 2 12 -3.5
v -12 13 3.5
v -8 13 3.5
v -12 13 2.5
v -8 13 2.5
v -2 13 -2.5
v 0 13 -2.5
v -2 13 -3.5
v 0 13 -3.5
v -4 14 -2.5
v -2 14 -2.5
v -4 14 -3.5
v -2 14 -3.5
v -6 15 -2.5
v -4 15 -2.5
v -6 15 -3.5
v -4 15 -3.5
v -8 16 -2.5
v -6 16 -2.5
v -8 16 -3.5
v -6 16 -3.5
v -12 17 -2.5
v -8 17 -2.5
v -12 17 -3.5
v -8 17 -3.5

# faces
f 3/2/1 2/2/1 1/2/1
f 4/2/1 2/2/1 3/2/1
f 5/2/1 2/2/1 4/2/1
f 6/1/1 4/1/1 3/1/1
f 7/1/1 4/1/1 6/1/1
f 10/3/1 9/3/1 8/3/1
f 11/3/1 9/3/1 10/3/1
f 14/3/1 13/3/1 12/3/1
f 15/3/1 13/3/1 14/3/1
f 18/3/1 17/3/1 16/3/1
f 19/3/1 17/3/1 18/3/1
f 22/3/1 21/3/1 20/3/1
f 23/3/1 21/3/1 22/3/1
f 26/3/1 25/3/1 24/3/1
f 27/3/1 25/3/1 26/3/1
f 30/3/1 29/3/1 28/3/1
f 31/3/1 29/3/1 30/3/1
f 34/3/1 33/3/1 32/3/1
f 35/3/1 33/3/1 34/3/1
f 38/3/1 37/3/1 36/3/1
f 39/3/1 37/3/1 38/3/1
f 42/3/1 41/3/1 40/3/1
f 43/3/1 41/3/1 42/3/1
f 46/3/1 45/3/1 44/3/1
f 47/3/1 45/3/1 46/3/1
f 50/3/1 49/3/1 48/3/1
f 51/3/1 49/3/1 50/3/1
f 54/3/1 53/3/1 52/3/1
f 55/3/1 53/3/1 54/3/1
f 56/3/2 57/3/2 58/3/2
f 58/3/2 57/3/2 59/3/2
f 60/2/2 61/2/2 63/2/2
f 63/2/2 61/2/2 64/2/2
f 62/1/2 63/1/2 65/1/2
f 65/1/2 63/1/2 66/1/2
f 67/3/2 68/3/2 69/3/2
f 69/3/2 68/3/2 70/3/2
f 71/2/2 72/2/2 74/2/2
f 74/2/2 72/2/2 75/2/2
f 73/1/2 74/1/2 76/1/2
f 76/1/2 74/1/2 77/1/2
f 78/3/2 79/3/2 80/3/2
f 80/3/2 79/3/2 81/3/2
f 82/3/2 83/3/2 84/3/2
f 84/3/2 83/3/2 85/3/2
f 86/2/2 87/2/2 89/2/2
f 89/2/2 87/2/2 90/2/2
f 88/1/2 89/1/2 91/1/2
f 91/1/2 89/1/2 92/1/2
f 93/3/2 94/3/2 95/3/2
f 95/3/2 94/3/2 96/3/2
f 97/2/2 98/2/2 100/2/2
f 100/2/2 98/2/2 101/2/2
f 99/1/2 100/1/2 102/1/2
f 102/1/2 100/1/2 103/1/2
f 104/3/2 105/3/2 106/3/2
f 106/3/2 105/3/2 107/3/2
f 108/3/2 109/3/2 110/3/2
f 110/3/2 109/3/2 111/3/2
f 112/2/2 113/2/2 115/2/2
f 115/2/2 113/2/2 116/2/2
f 114/1/2 115/1/2 117/1/2
f 117/1/2 115/1/2 118/1/2
f 119/3/2 120/3/2 121/3/2
f 121/3/2 120/3/2 122/3/2
f 123/2/2 124/2/2 126/2/2
f 126/2/2 124/2/2 127/2/2
f 125/1/2 126/1/2 128/1/2
f 128/1/2 126/1/2 129/1/2
f 130/3/2 131/3/2 132/3/2
f 132/3/2 131/3/2 133/3/2
f 134/3/2 135/3/2 136/3/2
f 136/3/2 135/3/2 137/3/2
f 138/2/2 139/2/2 141/2/2
f 141/2/2 139/2/2 142/2/2
f 140/1/2 141/1/2 143/1/2
f 143/1/2 141/1/2 144/1/2
f 145/3/2 146/3/2 147/3/2
f 147/3/2 146/3/2 148/3/2
f 149/2/2 150/2/2 152/2/2
f 152/2/2 150/2/2 153/2/2
f 151/1/2 152/1/2 154/1/2
f 154/1/2 152/1/2 155/1/2
f 156/3/2 157/3/2 158/3/2
f 158/3/2 157/3/2 159/3/2
f 160/3/2 161/3/2 162/3/2
f 162/3/2 161/3/2 163/3/2
f 164/2/2 165/2/2 167/2/2
f 167/2/2 165/2/2 168/2/2
f 166/1/2 167/1/2 169/1/2
f 169/1/2 167/1/2 170/1/2
f 171/3/2 172/3/2 173/3/2
f 173/3/2 172/3/2 174/3/2
f 175/2/2 176/2/2 178/2/2
f 178/2/2 176/2/2 179/2/2
f 177/1/2 178/1/2 180/1/2
f 180/1/2 178/1/2 181/1/2
f 182/3/2 183/3/2 184/3/2
f 184/3/2 183/3/2 185/3/2
f 186/3/2 187/3/2 188/3/2
f 188/3/2 187/3/2 189/3/2
f 190/2/2 191/2/2 192/2/2
f 192/2/2 191/2/2 193/2/2
f 193/2/2 191/2/2 194/2/2
f 192/1/2 193/1/2 195/1/2
f 195/1/2 193/1/2 196/1/2
f 197/3/2 198/3/2 199/3/2
f 199/3/2 198/3/2 200/3/2
f 204/2/3 202/2/3 201/2/3
f 205/2/3 202/2/3 204/2/3
f 206/2/3 204/2/3 201/2/3
f 207/2/3 204/2/3 206/2/3
f 208/1/3 205/1/3 204/1/3
f 208/2/3 204/2/3 207/2/3
f 209/2/3 202/2/3 205/2/3
f 209/1/3 205/1/3 208/1/3
f 210/3/3 207/3/3 206/3/3
f 210/2/3 206/2/3 201/2/3
f 211/2/3 208/2/3 207/2/3
f 211/3/3 207/3/3 210/3/3
f 211/2/3 209/2/3 208/2/3
f 212/2/3 202/2/3 209/2/3
f 212/2/3 209/2/3 211/2/3
f 213/1/3 203/1/3 202/1/3
f 213/2/3 202/2/3 212/2/3
f 214/1/3 203/1/3 213/1/3
f 215/2/3 212/2/3 211/2/3
f 215/2/3 211/2/3 210/2/3
f 216/1/3 213/1/3 212/1/3
f 216/2/3 212/2/3 215/2/3
f 217/1/3 213/1/3 216/1/3
f 218/2/3 215/2/3 210/2/3
f 219/1/3 216/1/3 215/1/3
f 219/2/3 215/2/3 218/2/3
f 220/1/3 216/1/3 219/1/3
f 221/2/3 218/2/3 210/2/3
f 222/1/3 219/1/3 218/1/3
f 222/2/3 218/2/3 221/2/3
f 223/1/3 219/1/3 222/1/3
f 224/2/3 210/2/3 201/2/3
f 224/2/3 221/2/3 210/2/3
f 225/2/3 221/2/3 224/2/3
f 226/2/3 224/2/3 201/2/3
f 226/1/3 225/1/3 224/1/3
f 227/2/3 221/2/3 225/2/3
f 227/1/3 225/1/3 226/1/3
f 228/2/3 221/2/3 227/2/3
f 229/1/3 222/1/3 221/1/3
f 229/2/3 221/2/3 228/2/3
f 230/1/3 222/1/3 229/1/3
f 231/2/3 228/2/3 227/2/3
f 231/2/3 227/2/3 226/2/3
f 232/1/3 229/1/3 228/1/3
f 232/2/3 228/2/3 231/2/3
f 233/1/3 229/1/3 232/1/3
f 234/2/3 231/2/3 226/2/3
f 235/1/3 232/1/3 231/1/3
f 235/2/3 231/2/3 234/2/3
f 236/1/3 232/1/3 235/1/3
f 237/2/3 226/2/3 201/2/3
f 237/2/3 234/2/3 226/2/3
f 238/2/3 234/2/3 237/2/3
f 239/2/3 234/2/3 238/2/3
f 240/1/3 235/1/3 234/1/3
f 240/2/3 234/2/3 239/2/3
f 241/1/3 235/1/3 240/1/3
f 242/2/3 237/2/3 201/2/3
f 242/3/3 238/3/3 237/3/3
f 243/2/3 239/2/3 238/2/3
f 243/3/3 238/3/3 242/3/3
f 244/2/3 243/2/3 242/2/3
f 244/2/3 239/2/3 243/2/3
f 245/1/3 240/1/3 239/1/3
f 245/2/3 239/2/3 244/2/3
f 246/1/3 240/1/3 245/1/3
f 247/2/3 244/2/3 242/2/3
f 248/1/3 245/1/3 244/1/3
f 248/2/3 244/2/3 247/2/3
f 249/1/3 245/1/3 248/1/3
f 250/2/3 242/2/3 201/2/3
f 250/2/3 247/2/3 242/2/3
f 251/1/3 248/1/3 247/1/3
f 251/2/3 247/2/3 250/2/3
f 252/1/3 248/1/3 251/1/3
f 256/3/3 254/3/3 253/3/3
f 257/3/3 256/3/3 255/3/3
f 258/3/3 254/3/3 256/3/3
f 258/3/3 256/3/3 257/3/3
f 260/3/3 254/3/3 258/3/3
f 261/3/3 254/3/3 260/3/3
f 264/3/3 260/3/3 259/3/3
f 265/3/3 260/3/3 264/3/3
f 266/3/3 263/3/3 262/3/3
f 266/3/3 264/3/3 263/3/3
f 267/3/3 264/3/3 266/3/3
f 269/3/3 264/3/3 267/3/3
f 270/3/3 264/3/3 269/3/3
f 273/3/3 269/3/3 268/3/3
f 274/3/3 269/3/3 273/3/3
f 275/3/3 272/3/3 271/3/3
f 275/3/3 273/3/3 272/3/3
f 276/3/3 273/3/3 275/3/3
f 278/3/3 273/3/3 276/3/3
f 279/3/3 273/3/3 278/3/3
f 282/3/3 278/3/3 277/3/3
f 283/3/3 278/3/3 282/3/3
f 284/3/3 281/3/3 280/3/3
f 284/3/3 282/3/3 281/3/3
f 285/3/3 282/3/3 284/3/3
f 287/3/3 282/3/3 285/3/3
f 288/3/3 282/3/3 287/3/3
f 291/3/3 287/3/3 286/3/3
f 292/3/3 287/3/3 291/3/3
f 293/3/3 290/3/3 289/3/3
f 293/3/3 291/3/3 290/3/3
f 294/3/3 291/3/3 293/3/3
f 296/3/3 291/3/3 294/3/3
f 297/3/3 291/3/3 296/3/3
f 300/3/3 296/3/3 295/3/3
f 301/3/3 296/3/3 300/3/3
f 302/3/3 299/3/3 298/3/3
f 302/3/3 300/3/3 299/3/3
f 303/3/3 300/3/3 302/3/3
f 304/3/3 300/3/3 303/3/3
f 305/3/3 300/3/3 304/3/3
f 306/1/4 307/1/4 309/1/4
f 309/1/4 307/1/4 310/1/4
f 308/1/4 309/1/4 312/1/4
f 312/1/4 309/1/4 313/1/4
f 311/1/4 312/1/4 315/1/4
f 315/1/4 312/1/4 316/1/4
f 314/1/4 315/1/4 318/1/4
f 318/1/4 315/1/4 319/1/4
f 317/1/4 318/1/4 321/1/4
f 321/1/4 318/1/4 322/1/4
f 320/1/4 321/1/4 324/1/4
f 324/1/4 321/1/4 325/1/4
f 323/1/4 324/1/4 327/1/4
f 327/1/4 324/1/4 328/1/4
f 326/1/4 327/1/4 330/1/4
f 330/1/4 327/1/4 331/1/4
f 329/1/4 330/1/4 333/1/4
f 333/1/4 330/1/4 334/1/4
f 332/1/4 333/1/4 336/1/4
f 336/1/4 333/1/4 337/1/4
f 335/1/4 336/1/4 338/1/4
f 338/1/4 336/1/4 339/1/4
f 340/2/4 341/2/4 344/2/4
f 342/3/4 343/3/4 345/3/4
f 340/2/4 344/2/4 346/2/4
f 344/3/4 345/3/4 346/3/4
f 345/3/4 343/3/4 347/3/4
f 346/3/4 345/3/4 347/3/4
f 340/2/4 346/2/4 348/2/4
f 348/2/4 346/2/4 349/2/4
f 347/3/4 343/3/4 351/3/4
f 351/3/4 343/3/4 352/3/4
f 340/2/4 348/2/4 353/2/4
f 353/2/4 348/2/4 354/2/4
f 350/3/4 351/3/4 355/3/4
f 355/3/4 351/3/4 356/3/4
f 353/3/4 354/3/4 357/3/4
f 340/2/4 353/2/4 357/2/4
f 354/3/4 355/3/4 357/3/4
f 357/3/4 355/3/4 358/3/4
f 340/2/4 357/2/4 359/2/4
f 359/2/4 357/2/4 360/2/4
f 358/3/4 355/3/4 362/3/4
f 362/3/4 355/3/4 363/3/4
f 340/2/4 359/2/4 364/2/4
f 364/2/4 359/2/4 365/2/4
f 361/3/4 362/3/4 366/3/4
f 366/3/4 362/3/4 367/3/4
f 364/3/4 365/3/4 368/3/4
f 340/2/4 364/2/4 368/2/4
f 365/3/4 366/3/4 368/3/4
f 368/3/4 366/3/4 369/3/4
f 340/2/4 368/2/4 370/2/4
f 370/2/4 368/2/4 371/2/4
f 369/3/4 366/3/4 373/3/4
f 373/3/4 366/3/4 374/3/4
f 340/2/4 370/2/4 375/2/4
f 375/2/4 370/2/4 376/2/4
f 372/3/4 373/3/4 377/3/4
f 377/3/4 373/3/4 378/3/4
f 375/3/4 376/3/4 379/3/4
f 340/2/4 375/2/4 379/2/4
f 376/3/4 377/3/4 379/3/4
f 379/3/4 377/3/4 380/3/4
f 340/2/4 379/2/4 381/2/4
f 381/2/4 379/2/4 382/2/4
f 380/3/4 377/3/4 384/3/4
f 384/3/4 377/3/4 385/3/4
f 340/2/4 381/2/4 386/2/4
f 386/2/4 381/2/4 387/2/4
f 383/3/4 384/3/4 388/3/4
f 388/3/4 384/3/4 389/3/4
f 386/3/4 387/3/4 390/3/4
f 340/2/4 386/2/4 390/2/4
f 387/3/4 388/3/4 390/3/4
f 390/3/4 388/3/4 391/3/4
f 340/2/4 390/2/4 392/2/4
f 392/2/4 390/2/4 393/2/4
f 391/3/4 388/3/4 395/3/4
f 395/3/4 388/3/4 396/3/4
f 340/2/4 392/2/4 397/2/4
f 397/2/4 392/2/4 398/2/4
f 394/3/4 395/3/4 399/3/4
f 399/3/4 395/3/4 400/3/4
f 397/3/4 398/3/4 401/3/4
f 340/2/4 397/2/4 401/2/4
f 398/3/4 399/3/4 401/3/4
f 401/3/4 399/3/4 402/3/4
f 340/2/4 401/2/4 403/2/4
f 403/2/4 401/2/4 404/2/4
f 402/3/4 399/3/4 405/3/4
f 405/3/4 399/3/4 406/3/4
f 409/2/5 408/2/5 407/2/5
f 410/2/5 408/2/5 409/2/5
f 413/3/5 412/3/5 411/3/5
f 414/3/5 412/3/5 413/3/5
f 417/3/5 416/3/5 415/3/5
f 418/3/5 416/3/5 417/3/5
f 421/3/5 420/3/5 419/3/5
f 422/3/5 420/3/5 421/3/5
f 425/3/5 424/3/5 423/3/5
f 426/3/5 424/3/5 425/3/5
f 429/3/5 428/3/5 427/3/5
f 430/3/5 428/3/5 429/3/5
f 433/3/5 432/3/5 431/3/5
f 434/3/5 432/3/5 433/3/5
f 437/3/5 436/3/5 435/3/5
f 438/3/5 436/3/5 437/3/5
f 441/3/5 440/3/5 439/3/5
f 442/3/5 440/3/5 441/3/5
f 445/3/5 444/3/5 443/3/5
f 446/3/5 444/3/5 445/3/5
f 449/3/5 448/3/5 447/3/5
f 450/3/5 448/3/5 449/3/5
f 455/3/5 452/3/5 451/3/5
f 456/3/5 452/3/5 455/3/5
f 457/3/5 454/3/5 453/3/5
f 458/3/5 454/3/5 457/3/5
f 459/2/6 460/2/6 461/2/6
f 461/2/6 460/2/6 462/2/6
f 462/2/6 460/2/6 463/2/6
f 463/2/6 460/2/6 464/2/6
f 465/1/6 466/1/6 468/1/6
f 468/1/6 466/1/6 469/1/6
f 467/2/6 468/2/6 470/2/6
f 467/2/6 470/2/6 471/2/6
f 471/2/6 470/2/6 472/2/6
f 473/1/6 474/1/6 476/1/6
f 476/1/6 474/1/6 477/1/6
f 475/2/6 476/2/6 478/2/6
f 478/2/6 476/2/6 479/2/6
f 479/2/6 476/2/6 480/2/6
f 480/2/6 476/2/6 481/2/6
f 482/1/6 483/1/6 485/1/6
f 485/1/6 483/1/6 486/1/6
f 484/2/6 485/2/6 487/2/6
f 484/2/6 487/2/6 488/2/6
f 488/2/6 487/2/6 489/2/6
f 490/1/6 491/1/6 493/1/6
f 493/1/6 491/1/6 494/1/6
f 492/2/6 493/2/6 495/2/6
f 495/2/6 493/2/6 496/2/6
f 496/2/6 493/2/6 497/2/6
f 497/2/6 493/2/6 498/2/6
f 499/1/6 500/1/6 502/1/6
f 502/1/6 500/1/6 503/1/6
f 501/2/6 502/2/6 504/2/6
f 501/2/6 504/2/6 507/2/6
f 507/2/6 504/2/6 508/2/6
f 505/3/6 506/3/6 509/3/6
f 509/3/6 506/3/6 510/3/6
f 511/1/6 512/1/6 514/1/6
f 514/1/6 512/1/6 515/1/6
f 513/2/6 514/2/6 516/2/6
f 516/2/6 514/2/6 517/2/6
f 517/2/6 514/2/6 520/2/6
f 520/2/6 514/2/6 521/2/6
f 518/3/6 519/3/6 522/3/6
f 522/3/6 519/3/6 523/3/6
f 524/1/6 525/1/6 527/1/6
f 527/1/6 525/1/6 528/1/6
f 526/2/6 527/2/6 529/2/6
f 526/2/6 529/2/6 532/2/6
f 532/2/6 529/2/6 533/2/6
f 530/3/6 531/3/6 534/3/6
f 534/3/6 531/3/6 535/3/6
f 536/1/6 537/1/6 539/1/6
f 539/1/6 537/1/6 540/1/6
f 538/2/6 539/2/6 541/2/6
f 541/2/6 539/2/6 542/2/6
f 542/2/6 539/2/6 545/2/6
f 545/2/6 539/2/6 546/2/6
f 543/3/6 544/3/6 547/3/6
f 547/3/6 544/3/6 548/3/6
f 549/1/6 550/1/6 552/1/6
f 552/1/6 550/1/6 553/1/6
f 551/2/6 552/2/6 554/2/6
f 551/2/6 554/2/6 557/2/6
f 557/2/6 554/2/6 558/2/6
f 555/3/6 556/3/6 559/3/6
f 559/3/6 556/3/6 560/3/6
f 561/1/6 562/1/6 564/1/6
f 564/1/6 562/1/6 565/1/6
f 563/2/6 564/2/6 566/2/6
f 566/2/6 564/2/6 567/2/6
f 563/2/6 566/2/6 570/2/6
f 570/2/6 566/2/6 571/2/6
f 567/2/6 564/2/6 572/2/6
f 572/2/6 564/2/6 573/2/6
f 568/3/6 569/3/6 574/3/6
f 574/3/6 569/3/6 575/3/6
f 576/1/6 577/1/6 578/1/6
f 578/1/6 577/1/6 579/1/6
f 580/3/6 581/3/6 582/3/6
f 582/3/6 581/3/6 583/3/6
f 584/3/6 585/3/6 586/3/6
f 586/3/6 585/3/6 587/3/6
f 588/3/6 589/3/6 590/3/6
f 590/3/6 589/3/6 591/3/6
f 592/3/6 593/3/6 594/3/6
f 594/3/6 593/3/6 595/3/6
f 596/3/6 597/3/6 598/3/6
f 598/3/6 597/3/6 599/3/6
