# MagicaVoxel @ Ephtracy

# group
g map_jiha_mul_zulzul_8

# material
mtllib map_jiha_mul_zulzul_8.mtl
usemtl palette

# normals
vn -1 0 0
vn 1 0 0
vn 0 0 1
vn 0 0 -1
vn 0 -1 0
vn 0 1 0

# texcoords
vt 0.564453 0.5
vt 0.587891 0.5
vt 0.611328 0.5

# verts
v -10 0 1.5
v -10 0 -4.5
v -10 1 1.5
v -10 1 -4.5
v -9 0 2.5
v -9 0 1.5
v -9 0 -4.5
v -9 0 -5.5
v -9 1 2.5
v -9 1 1.5
v -9 1 -4.5
v -9 1 -5.5
v -7 0 3.5
v -7 0 2.5
v -7 1 3.5
v -7 1 2.5
v -7 1 -3.5
v -7 1 -4.5
v -7 8 -3.5
v -7 8 -4.5
v -6 0 4.5
v -6 0 3.5
v -6 1 4.5
v -6 1 3.5
v -6 1 -1.5
v -6 1 -2.5
v -6 1 -3.5
v -6 3 -1.5
v -6 3 -2.5
v -6 8 -1.5
v -6 8 -3.5
v -5 1 0.5
v -5 1 -1.5
v -5 3 -1.5
v -5 8 0.5
v -5 8 -1.5
v -4 0 5.5
v -4 0 4.5
v -4 1 5.5
v -4 1 4.5
v -4 1 2.5
v -4 1 0.5
v -4 2 1.5
v -4 2 0.5
v -4 7 1.5
v -4 7 0.5
v -4 8 2.5
v -4 8 0.5
v -2 8 2.5
v -2 8 0.5
v -2 8 -0.5
v -2 8 -2.5
v -2 8 -3.5
v -2 8 -4.5
v -2 12 -2.5
v -2 12 -3.5
v -2 13 0.5
v -2 13 -0.5
v -2 13 -1.5
v -2 13 -2.5
v -2 17 1.5
v -2 17 0.5
v -2 18 2.5
v -2 18 1.5
v -2 18 0.5
v -2 18 -1.5
v -2 18 -2.5
v -2 18 -4.5
v -7 0 -3.5
v -7 0 -5.5
v -7 1 -3.5
v -7 1 -4.5
v -7 1 -5.5
v -6 0 -1.5
v -6 0 -3.5
v -6 1 -1.5
v -6 1 -2.5
v -6 1 -3.5
v -6 2 -3.5
v -6 2 -4.5
v -6 7 -3.5
v -6 7 -4.5
v -5 0 0.5
v -5 0 -1.5
v -5 1 0.5
v -5 1 -1.5
v -5 2 -1.5
v -5 2 -2.5
v -5 2 -3.5
v -5 3 -1.5
v -5 3 -2.5
v -5 5 -1.5
v -5 5 -3.5
v -4 0 2.5
v -4 0 0.5
v -4 1 2.5
v -4 1 0.5
v -4 2 0.5
v -4 2 -1.5
v -4 5 0.5
v -4 5 -1.5
v -3 1 2.5
v -3 1 -4.5
v -3 2 1.5
v -3 2 0.5
v -3 2 -4.5
v -3 5 0.5
v -3 5 -3.5
v -3 7 2.5
v -3 7 1.5
v -3 7 0.5
v -3 7 -2.5
v -3 7 -3.5
v -2 0 5.5
v -2 0 2.5
v -2 1 5.5
v -2 1 2.5
v -1 7 2.5
v -1 7 1.5
v -1 15 1.5
v -1 16 2.5
v -1 16 1.5
v 0 7 1.5
v 0 7 -4.5
v 0 15 1.5
v 0 15 0.5
v 0 15 -2.5
v 0 16 2.5
v 0 16 1.5
v 0 16 -2.5
v 0 16 -3.5
v 0 17 2.5
v 0 17 1.5
v 0 17 -3.5
v 0 17 -4.5
v 1 15 1.5
v 1 15 0.5
v 1 15 -2.5
v 1 16 1.5
v 1 16 0.5
v 1 16 -2.5
v 4 16 1.5
v 4 16 -3.5
v 4 17 1.5
v 4 17 -2.5
v 4 17 -3.5
v 10 17 2.5
v 10 17 0.5
v 10 17 -0.5
v 10 17 -4.5
v 10 18 2.5
v 10 18 0.5
v 10 18 -0.5
v 10 18 -4.5
v -4 0 5.5
v -4 1 5.5
v -2 0 5.5
v -2 1 5.5
v -6 0 4.5
v -6 1 4.5
v -4 0 4.5
v -4 1 4.5
v -7 0 3.5
v -7 1 3.5
v -6 0 3.5
v -6 1 3.5
v -9 0 2.5
v -9 1 2.5
v -7 0 2.5
v -7 1 2.5
v -4 1 2.5
v -4 8 2.5
v -3 1 2.5
v -3 7 2.5
v -2 8 2.5
v -2 18 2.5
v -1 7 2.5
v -1 16 2.5
v 0 16 2.5
v 0 17 2.5
v 10 17 2.5
v 10 18 2.5
v -10 0 1.5
v -10 1 1.5
v -9 0 1.5
v -9 1 1.5
v -1 7 1.5
v -1 15 1.5
v -1 16 1.5
v 0 7 1.5
v 0 15 1.5
v 0 16 1.5
v 0 17 1.5
v 1 15 1.5
v 1 16 1.5
v 1 17 1.5
v 4 16 1.5
v 4 17 1.5
v -5 1 0.5
v -5 8 0.5
v -4 1 0.5
v -4 2 0.5
v -4 7 0.5
v -4 8 0.5
v -6 1 -1.5
v -6 3 -1.5
v -6 8 -1.5
v -5 1 -1.5
v -5 3 -1.5
v -5 8 -1.5
v -7 1 -3.5
v -7 8 -3.5
v -6 1 -3.5
v -6 8 -3.5
v -4 0 2.5
v -4 1 2.5
v -3 1 2.5
v -2 0 2.5
v -2 1 2.5
v -5 0 0.5
v -5 1 0.5
v -4 0 0.5
v -4 1 0.5
v -4 2 0.5
v -4 5 0.5
v -3 2 0.5
v -3 5 0.5
v -6 0 -1.5
v -6 1 -1.5
v -5 0 -1.5
v -5 1 -1.5
v -5 2 -1.5
v -5 3 -1.5
v -5 5 -1.5
v -4 2 -1.5
v -4 5 -1.5
v 0 15 -2.5
v 0 16 -2.5
v 1 15 -2.5
v 1 16 -2.5
v -7 0 -3.5
v -7 1 -3.5
v -6 0 -3.5
v -6 1 -3.5
v -6 2 -3.5
v -6 7 -3.5
v -5 2 -3.5
v -5 5 -3.5
v -3 5 -3.5
v -3 7 -3.5
v 0 16 -3.5
v 0 17 -3.5
v 4 16 -3.5
v 4 17 -3.5
v -10 0 -4.5
v -10 1 -4.5
v -9 0 -4.5
v -9 1 -4.5
v -7 1 -4.5
v -7 8 -4.5
v -6 2 -4.5
v -6 7 -4.5
v -3 1 -4.5
v -3 2 -4.5
v -2 8 -4.5
v -2 18 -4.5
v 0 7 -4.5
v 0 17 -4.5
v 10 17 -4.5
v 10 18 -4.5
v -9 0 -5.5
v -9 1 -5.5
v -7 0 -5.5
v -7 1 -5.5
v -4 0 5.5
v -2 0 5.5
v -6 0 4.5
v -4 0 4.5
v -7 0 3.5
v -6 0 3.5
v -9 0 2.5
v -7 0 2.5
v -4 0 2.5
v -2 0 2.5
v -10 0 1.5
v -9 0 1.5
v -8 0 1.5
v -7 0 1.5
v -9 0 0.5
v -8 0 0.5
v -7 0 0.5
v -6 0 0.5
v -5 0 0.5
v -4 0 0.5
v -6 0 -1.5
v -5 0 -1.5
v -8 0 -2.5
v -7 0 -2.5
v -9 0 -3.5
v -7 0 -3.5
v -6 0 -3.5
v -10 0 -4.5
v -9 0 -4.5
v -9 0 -5.5
v -7 0 -5.5
v -4 1 2.5
v -3 1 2.5
v -5 1 0.5
v -4 1 0.5
v -6 1 -1.5
v -5 1 -1.5
v -6 1 -2.5
v -5 1 -2.5
v -7 1 -3.5
v -6 1 -3.5
v -7 1 -4.5
v -3 1 -4.5
v -4 5 0.5
v -3 5 0.5
v -5 5 -1.5
v -4 5 -1.5
v -5 5 -3.5
v -3 5 -3.5
v -3 7 2.5
v -1 7 2.5
v -3 7 1.5
v -1 7 1.5
v 0 7 1.5
v -3 7 0.5
v -3 7 -2.5
v -1 7 -2.5
v -6 7 -3.5
v -3 7 -3.5
v -1 7 -3.5
v -6 7 -4.5
v 0 7 -4.5
v 0 15 1.5
v 1 15 1.5
v 0 15 0.5
v 1 15 0.5
v 0 15 -2.5
v 1 15 -2.5
v -1 16 2.5
v 0 16 2.5
v -1 16 1.5
v 0 16 1.5
v 1 16 1.5
v 4 16 1.5
v 1 16 0.5
v 0 16 -2.5
v 1 16 -2.5
v 0 16 -3.5
v 4 16 -3.5
v 0 17 2.5
v 10 17 2.5
v 0 17 1.5
v 1 17 1.5
v 4 17 1.5
v 6 17 0.5
v 10 17 0.5
v 6 17 -0.5
v 10 17 -0.5
v 4 17 -2.5
v 8 17 -2.5
v 0 17 -3.5
v 4 17 -3.5
v 8 17 -3.5
v 0 17 -4.5
v 10 17 -4.5
v -4 1 5.5
v -2 1 5.5
v -6 1 4.5
v -4 1 4.5
v -7 1 3.5
v -6 1 3.5
v -9 1 2.5
v -7 1 2.5
v -4 1 2.5
v -3 1 2.5
v -2 1 2.5
v -10 1 1.5
v -9 1 1.5
v -8 1 1.5
v -7 1 1.5
v -9 1 0.5
v -8 1 0.5
v -7 1 0.5
v -6 1 0.5
v -5 1 0.5
v -4 1 0.5
v -6 1 -1.5
v -5 1 -1.5
v -8 1 -2.5
v -7 1 -2.5
v -6 1 -2.5
v -9 1 -3.5
v -7 1 -3.5
v -6 1 -3.5
v -10 1 -4.5
v -9 1 -4.5
v -7 1 -4.5
v -9 1 -5.5
v -7 1 -5.5
v -4 2 0.5
v -3 2 0.5
v -5 2 -1.5
v -4 2 -1.5
v -5 2 -2.5
v -6 2 -3.5
v -5 2 -3.5
v -6 2 -4.5
v -3 2 -4.5
v -4 8 2.5
v -2 8 2.5
v -5 8 0.5
v -4 8 0.5
v -2 8 0.5
v -2 8 -0.5
v -6 8 -1.5
v -5 8 -1.5
v -4 8 -2.5
v -2 8 -2.5
v -7 8 -3.5
v -6 8 -3.5
v -4 8 -3.5
v -2 8 -3.5
v -7 8 -4.5
v -2 8 -4.5
v -2 18 2.5
v 10 18 2.5
v -2 18 1.5
v 3 18 1.5
v -2 18 0.5
v 3 18 0.5
v 6 18 0.5
v 10 18 0.5
v 6 18 -0.5
v 10 18 -0.5
v -2 18 -1.5
v -1 18 -1.5
v -2 18 -2.5
v -1 18 -2.5
v 3 18 -2.5
v 8 18 -2.5
v 3 18 -3.5
v 8 18 -3.5
v -2 18 -4.5
v 10 18 -4.5

# faces
f 3/2/1 2/2/1 1/2/1
f 4/2/1 2/2/1 3/2/1
f 9/2/1 6/2/1 5/2/1
f 10/2/1 6/2/1 9/2/1
f 11/2/1 8/2/1 7/2/1
f 12/2/1 8/2/1 11/2/1
f 15/2/1 14/2/1 13/2/1
f 16/2/1 14/2/1 15/2/1
f 19/2/1 18/2/1 17/2/1
f 20/2/1 18/2/1 19/2/1
f 23/2/1 22/2/1 21/2/1
f 24/2/1 22/2/1 23/2/1
f 28/1/1 26/1/1 25/1/1
f 29/2/1 27/2/1 26/2/1
f 29/1/1 26/1/1 28/1/1
f 30/2/1 29/2/1 28/2/1
f 31/2/1 27/2/1 29/2/1
f 31/2/1 29/2/1 30/2/1
f 34/2/1 33/2/1 32/2/1
f 35/2/1 34/2/1 32/2/1
f 36/2/1 34/2/1 35/2/1
f 39/2/1 38/2/1 37/2/1
f 40/2/1 38/2/1 39/2/1
f 43/2/1 42/2/1 41/2/1
f 44/2/1 42/2/1 43/2/1
f 45/2/1 43/2/1 41/2/1
f 45/3/1 44/3/1 43/3/1
f 46/3/1 44/3/1 45/3/1
f 47/2/1 45/2/1 41/2/1
f 47/2/1 46/2/1 45/2/1
f 48/2/1 46/2/1 47/2/1
f 55/2/1 52/2/1 51/2/1
f 55/3/1 53/3/1 52/3/1
f 56/2/1 54/2/1 53/2/1
f 56/3/1 53/3/1 55/3/1
f 57/2/1 50/2/1 49/2/1
f 57/1/1 51/1/1 50/1/1
f 58/2/1 56/2/1 55/2/1
f 58/1/1 51/1/1 57/1/1
f 58/2/1 55/2/1 51/2/1
f 59/2/1 56/2/1 58/2/1
f 60/2/1 56/2/1 59/2/1
f 61/2/1 57/2/1 49/2/1
f 61/2/1 58/2/1 57/2/1
f 61/2/1 59/2/1 58/2/1
f 62/2/1 59/2/1 61/2/1
f 63/2/1 61/2/1 49/2/1
f 64/3/1 62/3/1 61/3/1
f 64/2/1 61/2/1 63/2/1
f 65/2/1 59/2/1 62/2/1
f 65/3/1 62/3/1 64/3/1
f 66/1/1 60/1/1 59/1/1
f 66/2/1 59/2/1 65/2/1
f 67/2/1 56/2/1 60/2/1
f 67/1/1 60/1/1 66/1/1
f 68/2/1 54/2/1 56/2/1
f 68/2/1 56/2/1 67/2/1
f 69/2/2 70/2/2 71/2/2
f 71/2/2 70/2/2 72/2/2
f 72/2/2 70/2/2 73/2/2
f 74/2/2 75/2/2 76/2/2
f 76/2/2 75/2/2 77/2/2
f 77/2/2 75/2/2 78/2/2
f 79/2/2 80/2/2 81/2/2
f 81/2/2 80/2/2 82/2/2
f 83/1/2 84/1/2 85/1/2
f 85/1/2 84/1/2 86/1/2
f 87/1/2 88/1/2 90/1/2
f 88/2/2 89/2/2 91/2/2
f 90/1/2 88/1/2 91/1/2
f 90/2/2 91/2/2 92/2/2
f 91/2/2 89/2/2 93/2/2
f 92/2/2 91/2/2 93/2/2
f 94/2/2 95/2/2 96/2/2
f 96/2/2 95/2/2 97/2/2
f 98/2/2 99/2/2 100/2/2
f 100/2/2 99/2/2 101/2/2
f 102/2/2 103/2/2 104/2/2
f 104/2/2 103/2/2 105/2/2
f 105/2/2 103/2/2 106/2/2
f 104/3/2 105/3/2 107/3/2
f 102/2/2 104/2/2 109/2/2
f 104/3/2 107/3/2 110/3/2
f 109/2/2 104/2/2 110/2/2
f 107/2/2 108/2/2 111/2/2
f 110/3/2 107/3/2 111/3/2
f 111/2/2 108/2/2 112/2/2
f 112/2/2 108/2/2 113/2/2
f 114/2/2 115/2/2 116/2/2
f 116/2/2 115/2/2 117/2/2
f 118/2/2 119/2/2 120/2/2
f 118/2/2 120/2/2 121/2/2
f 121/2/2 120/2/2 122/2/2
f 123/2/2 124/2/2 125/2/2
f 125/2/2 124/2/2 126/2/2
f 126/2/2 124/2/2 127/2/2
f 127/2/2 124/2/2 130/2/2
f 130/2/2 124/2/2 131/2/2
f 128/2/2 129/2/2 132/2/2
f 132/2/2 129/2/2 133/2/2
f 131/2/2 124/2/2 134/2/2
f 134/2/2 124/2/2 135/2/2
f 136/3/2 137/3/2 139/3/2
f 137/2/2 138/2/2 140/2/2
f 139/3/2 137/3/2 140/3/2
f 140/2/2 138/2/2 141/2/2
f 142/2/2 143/2/2 144/2/2
f 144/2/2 143/2/2 145/2/2
f 145/2/2 143/2/2 146/2/2
f 147/2/2 148/2/2 151/2/2
f 148/1/2 149/1/2 152/1/2
f 151/2/2 148/2/2 152/2/2
f 149/2/2 150/2/2 153/2/2
f 152/1/2 149/1/2 153/1/2
f 153/2/2 150/2/2 154/2/2
f 157/2/3 156/2/3 155/2/3
f 158/2/3 156/2/3 157/2/3
f 161/2/3 160/2/3 159/2/3
f 162/2/3 160/2/3 161/2/3
f 165/2/3 164/2/3 163/2/3
f 166/2/3 164/2/3 165/2/3
f 169/2/3 168/2/3 167/2/3
f 170/2/3 168/2/3 169/2/3
f 173/2/3 172/2/3 171/2/3
f 174/2/3 172/2/3 173/2/3
f 175/2/3 172/2/3 174/2/3
f 177/2/3 175/2/3 174/2/3
f 177/2/3 176/2/3 175/2/3
f 178/2/3 176/2/3 177/2/3
f 179/2/3 176/2/3 178/2/3
f 180/2/3 176/2/3 179/2/3
f 181/2/3 176/2/3 180/2/3
f 182/2/3 176/2/3 181/2/3
f 185/2/3 184/2/3 183/2/3
f 186/2/3 184/2/3 185/2/3
f 190/2/3 188/2/3 187/2/3
f 191/3/3 189/3/3 188/3/3
f 191/2/3 188/2/3 190/2/3
f 192/3/3 189/3/3 191/3/3
f 194/3/3 193/3/3 192/3/3
f 194/3/3 192/3/3 191/3/3
f 195/3/3 193/3/3 194/3/3
f 196/3/3 193/3/3 195/3/3
f 197/2/3 196/2/3 195/2/3
f 198/2/3 196/2/3 197/2/3
f 201/2/3 200/2/3 199/2/3
f 202/2/3 200/2/3 201/2/3
f 203/2/3 200/2/3 202/2/3
f 204/2/3 200/2/3 203/2/3
f 208/1/3 206/1/3 205/1/3
f 209/2/3 207/2/3 206/2/3
f 209/1/3 206/1/3 208/1/3
f 210/2/3 207/2/3 209/2/3
f 213/2/3 212/2/3 211/2/3
f 214/2/3 212/2/3 213/2/3
f 215/2/4 216/2/4 217/2/4
f 215/2/4 217/2/4 218/2/4
f 218/2/4 217/2/4 219/2/4
f 220/2/4 221/2/4 222/2/4
f 222/2/4 221/2/4 223/2/4
f 224/3/4 225/3/4 226/3/4
f 226/3/4 225/3/4 227/3/4
f 228/1/4 229/1/4 230/1/4
f 230/1/4 229/1/4 231/1/4
f 233/2/4 234/2/4 235/2/4
f 232/2/4 233/2/4 235/2/4
f 235/2/4 234/2/4 236/2/4
f 237/2/4 238/2/4 239/2/4
f 239/2/4 238/2/4 240/2/4
f 241/2/4 242/2/4 243/2/4
f 243/2/4 242/2/4 244/2/4
f 245/2/4 246/2/4 247/2/4
f 247/2/4 246/2/4 248/2/4
f 248/2/4 246/2/4 249/2/4
f 249/2/4 246/2/4 250/2/4
f 251/2/4 252/2/4 253/2/4
f 253/2/4 252/2/4 254/2/4
f 255/2/4 256/2/4 257/2/4
f 257/2/4 256/2/4 258/2/4
f 259/2/4 260/2/4 261/2/4
f 261/2/4 260/2/4 262/2/4
f 259/2/4 261/2/4 263/2/4
f 263/2/4 261/2/4 264/2/4
f 262/2/4 260/2/4 265/2/4
f 262/2/4 265/2/4 267/2/4
f 265/2/4 266/2/4 267/2/4
f 267/2/4 266/2/4 268/2/4
f 268/2/4 266/2/4 269/2/4
f 269/2/4 266/2/4 270/2/4
f 271/2/4 272/2/4 273/2/4
f 273/2/4 272/2/4 274/2/4
f 278/2/5 276/2/5 275/2/5
f 280/2/5 278/2/5 277/2/5
f 282/2/5 280/2/5 279/2/5
f 283/2/5 276/2/5 278/2/5
f 283/2/5 278/2/5 280/2/5
f 283/2/5 280/2/5 282/2/5
f 284/2/5 276/2/5 283/2/5
f 286/2/5 282/2/5 281/2/5
f 286/2/5 283/2/5 282/2/5
f 287/2/5 283/2/5 286/2/5
f 288/2/5 283/2/5 287/2/5
f 289/2/5 286/2/5 285/2/5
f 289/2/5 287/2/5 286/2/5
f 290/3/5 288/3/5 287/3/5
f 290/2/5 287/2/5 289/2/5
f 291/2/5 283/2/5 288/2/5
f 291/3/5 288/3/5 290/3/5
f 292/2/5 283/2/5 291/2/5
f 293/2/5 283/2/5 292/2/5
f 294/2/5 283/2/5 293/2/5
f 295/2/5 291/2/5 290/2/5
f 295/2/5 292/2/5 291/2/5
f 295/1/5 293/1/5 292/1/5
f 296/1/5 293/1/5 295/1/5
f 297/3/5 290/3/5 289/3/5
f 297/2/5 295/2/5 290/2/5
f 298/2/5 295/2/5 297/2/5
f 299/2/5 289/2/5 285/2/5
f 299/3/5 297/3/5 289/3/5
f 299/3/5 298/3/5 297/3/5
f 300/2/5 295/2/5 298/2/5
f 300/3/5 298/3/5 299/3/5
f 301/2/5 295/2/5 300/2/5
f 302/2/5 299/2/5 285/2/5
f 302/2/5 300/2/5 299/2/5
f 303/2/5 300/2/5 302/2/5
f 304/2/5 300/2/5 303/2/5
f 305/2/5 300/2/5 304/2/5
f 309/2/5 307/2/5 306/2/5
f 311/2/5 309/2/5 308/2/5
f 312/1/5 311/1/5 310/1/5
f 313/2/5 309/2/5 311/2/5
f 313/1/5 311/1/5 312/1/5
f 315/2/5 313/2/5 312/2/5
f 316/2/5 315/2/5 314/2/5
f 317/2/5 307/2/5 309/2/5
f 317/2/5 315/2/5 316/2/5
f 317/2/5 309/2/5 313/2/5
f 317/2/5 313/2/5 315/2/5
f 321/2/5 319/2/5 318/2/5
f 322/2/5 321/2/5 320/2/5
f 323/2/5 319/2/5 321/2/5
f 323/2/5 321/2/5 322/2/5
f 326/2/5 325/2/5 324/2/5
f 327/2/5 325/2/5 326/2/5
f 329/2/5 327/2/5 326/2/5
f 329/2/5 328/2/5 327/2/5
f 330/2/5 328/2/5 329/2/5
f 331/2/5 328/2/5 330/2/5
f 333/3/5 331/3/5 330/3/5
f 334/2/5 328/2/5 331/2/5
f 334/3/5 331/3/5 333/3/5
f 335/2/5 333/2/5 332/2/5
f 335/2/5 334/2/5 333/2/5
f 336/2/5 328/2/5 334/2/5
f 336/2/5 334/2/5 335/2/5
f 339/3/5 338/3/5 337/3/5
f 340/3/5 338/3/5 339/3/5
f 341/2/5 340/2/5 339/2/5
f 342/2/5 340/2/5 341/2/5
f 345/2/5 344/2/5 343/2/5
f 346/2/5 344/2/5 345/2/5
f 349/2/5 348/2/5 347/2/5
f 351/2/5 348/2/5 349/2/5
f 352/2/5 351/2/5 350/2/5
f 353/2/5 348/2/5 351/2/5
f 353/2/5 351/2/5 352/2/5
f 356/2/5 355/2/5 354/2/5
f 357/2/5 355/2/5 356/2/5
f 358/2/5 355/2/5 357/2/5
f 359/2/5 355/2/5 358/2/5
f 360/2/5 355/2/5 359/2/5
f 361/2/5 359/2/5 358/2/5
f 361/1/5 360/1/5 359/1/5
f 362/1/5 360/1/5 361/1/5
f 363/2/5 361/2/5 358/2/5
f 363/2/5 362/2/5 361/2/5
f 364/2/5 362/2/5 363/2/5
f 366/3/5 364/3/5 363/3/5
f 367/2/5 362/2/5 364/2/5
f 367/3/5 364/3/5 366/3/5
f 368/2/5 366/2/5 365/2/5
f 368/2/5 367/2/5 366/2/5
f 369/2/5 362/2/5 367/2/5
f 369/2/5 367/2/5 368/2/5
f 370/2/6 371/2/6 373/2/6
f 372/2/6 373/2/6 375/2/6
f 374/2/6 375/2/6 377/2/6
f 373/2/6 371/2/6 378/2/6
f 375/2/6 373/2/6 378/2/6
f 377/2/6 375/2/6 378/2/6
f 378/2/6 371/2/6 379/2/6
f 379/2/6 371/2/6 380/2/6
f 376/2/6 377/2/6 382/2/6
f 377/2/6 378/2/6 382/2/6
f 382/2/6 378/2/6 383/2/6
f 383/2/6 378/2/6 384/2/6
f 381/2/6 382/2/6 385/2/6
f 382/2/6 383/2/6 385/2/6
f 383/3/6 384/3/6 386/3/6
f 385/2/6 383/2/6 386/2/6
f 384/2/6 378/2/6 387/2/6
f 386/3/6 384/3/6 387/3/6
f 387/2/6 378/2/6 388/2/6
f 388/2/6 378/2/6 389/2/6
f 389/2/6 378/2/6 390/2/6
f 386/2/6 387/2/6 391/2/6
f 387/2/6 388/2/6 391/2/6
f 388/1/6 389/1/6 391/1/6
f 391/1/6 389/1/6 392/1/6
f 385/3/6 386/3/6 393/3/6
f 386/2/6 391/2/6 393/2/6
f 393/2/6 391/2/6 394/2/6
f 394/2/6 391/2/6 395/2/6
f 381/2/6 385/2/6 396/2/6
f 385/3/6 393/3/6 396/3/6
f 393/3/6 394/3/6 396/3/6
f 394/2/6 395/2/6 397/2/6
f 396/3/6 394/3/6 397/3/6
f 397/2/6 395/2/6 398/2/6
f 381/2/6 396/2/6 399/2/6
f 396/2/6 397/2/6 399/2/6
f 399/2/6 397/2/6 400/2/6
f 400/2/6 397/2/6 401/2/6
f 400/2/6 401/2/6 402/2/6
f 402/2/6 401/2/6 403/2/6
f 404/2/6 405/2/6 407/2/6
f 406/2/6 407/2/6 408/2/6
f 408/2/6 407/2/6 410/2/6
f 409/2/6 410/2/6 411/2/6
f 407/2/6 405/2/6 412/2/6
f 411/2/6 410/2/6 412/2/6
f 410/2/6 407/2/6 412/2/6
f 413/2/6 414/2/6 416/2/6
f 416/2/6 414/2/6 417/2/6
f 415/2/6 416/2/6 418/2/6
f 416/2/6 417/2/6 418/2/6
f 415/2/6 418/2/6 420/2/6
f 420/2/6 418/2/6 421/2/6
f 419/2/6 420/2/6 421/2/6
f 421/2/6 418/2/6 422/2/6
f 419/2/6 421/2/6 424/2/6
f 421/3/6 422/3/6 425/3/6
f 424/2/6 421/2/6 425/2/6
f 425/3/6 422/3/6 426/3/6
f 423/2/6 424/2/6 427/2/6
f 424/2/6 425/2/6 427/2/6
f 425/2/6 426/2/6 427/2/6
f 427/2/6 426/2/6 428/2/6
f 429/2/6 430/2/6 431/2/6
f 431/2/6 430/2/6 432/2/6
f 431/3/6 432/3/6 433/3/6
f 432/2/6 430/2/6 434/2/6
f 433/3/6 432/3/6 434/3/6
f 434/2/6 430/2/6 435/2/6
f 435/2/6 430/2/6 436/2/6
f 433/2/6 434/2/6 437/2/6
f 434/2/6 435/2/6 437/2/6
f 435/1/6 436/1/6 437/1/6
f 437/1/6 436/1/6 438/1/6
f 433/2/6 437/2/6 439/2/6
f 437/2/6 438/2/6 439/2/6
f 439/2/6 438/2/6 440/2/6
f 439/1/6 440/1/6 441/1/6
f 440/2/6 438/2/6 442/2/6
f 441/1/6 440/1/6 442/1/6
f 442/2/6 438/2/6 443/2/6
f 443/2/6 438/2/6 444/2/6
f 441/2/6 442/2/6 445/2/6
f 442/2/6 443/2/6 445/2/6
f 443/3/6 444/3/6 445/3/6
f 444/2/6 438/2/6 446/2/6
f 445/3/6 444/3/6 446/3/6
f 441/2/6 445/2/6 447/2/6
f 445/2/6 446/2/6 447/2/6
f 446/2/6 438/2/6 448/2/6
f 447/2/6 446/2/6 448/2/6
