# MagicaVoxel @ Ephtracy

# group
g map_jiha_mul_zulzul_4

# material
mtllib map_jiha_mul_zulzul_4.mtl
usemtl palette

# normals
vn -1 0 0
vn 1 0 0
vn 0 0 1
vn 0 0 -1
vn 0 -1 0
vn 0 1 0

# texcoords
vt 0.564453 0.5
vt 0.587891 0.5
vt 0.611328 0.5

# verts
v -10 0 1.5
v -10 0 0.5
v -10 0 -0.5
v -10 0 -4.5
v -10 1 1.5
v -10 1 0.5
v -10 1 -0.5
v -10 1 -4.5
v -9 0 2.5
v -9 0 1.5
v -9 0 -4.5
v -9 0 -5.5
v -9 1 2.5
v -9 1 1.5
v -9 1 -4.5
v -9 1 -5.5
v -7 0 3.5
v -7 0 2.5
v -7 1 3.5
v -7 1 2.5
v -7 1 -3.5
v -7 1 -4.5
v -7 8 -3.5
v -7 8 -4.5
v -6 0 4.5
v -6 0 3.5
v -6 1 4.5
v -6 1 3.5
v -6 1 -1.5
v -6 1 -2.5
v -6 1 -3.5
v -6 2 -2.5
v -6 2 -3.5
v -6 5 -1.5
v -6 5 -2.5
v -6 8 -1.5
v -6 8 -2.5
v -6 8 -3.5
v -5 1 0.5
v -5 1 -0.5
v -5 1 -1.5
v -5 4 0.5
v -5 4 -0.5
v -5 5 -1.5
v -5 8 0.5
v -5 8 -1.5
v -4 0 5.5
v -4 0 4.5
v -4 1 5.5
v -4 1 4.5
v -4 1 2.5
v -4 1 0.5
v -4 4 0.5
v -4 8 2.5
v -4 8 0.5
v -2 8 2.5
v -2 8 -4.5
v -2 9 1.5
v -2 9 0.5
v -2 14 1.5
v -2 14 0.5
v -2 14 -2.5
v -2 14 -3.5
v -2 15 0.5
v -2 15 -0.5
v -2 18 2.5
v -2 18 0.5
v -2 18 -0.5
v -2 18 -2.5
v -2 18 -3.5
v -2 18 -4.5
v -7 0 -3.5
v -7 0 -5.5
v -7 1 -3.5
v -7 1 -4.5
v -7 1 -5.5
v -6 0 -1.5
v -6 0 -2.5
v -6 0 -3.5
v -6 1 -1.5
v -6 1 -2.5
v -6 1 -3.5
v -6 2 -3.5
v -6 2 -4.5
v -6 7 -3.5
v -6 7 -4.5
v -5 0 0.5
v -5 0 -0.5
v -5 0 -1.5
v -5 1 0.5
v -5 1 -0.5
v -5 1 -1.5
v -5 2 -1.5
v -5 2 -2.5
v -5 2 -3.5
v -5 5 -1.5
v -5 5 -2.5
v -5 5 -3.5
v -4 0 2.5
v -4 0 0.5
v -4 1 2.5
v -4 1 0.5
v -4 2 0.5
v -4 2 -0.5
v -4 2 -1.5
v -4 4 0.5
v -4 4 -0.5
v -4 5 0.5
v -4 5 -1.5
v -3 1 2.5
v -3 1 -4.5
v -3 2 0.5
v -3 2 -4.5
v -3 5 0.5
v -3 5 -3.5
v -3 7 2.5
v -3 7 -3.5
v -2 0 5.5
v -2 0 2.5
v -2 1 5.5
v -2 1 2.5
v -1 7 2.5
v -1 7 1.5
v -1 15 1.5
v -1 16 2.5
v -1 16 1.5
v 0 7 1.5
v 0 7 -4.5
v 0 15 1.5
v 0 15 0.5
v 0 15 -2.5
v 0 16 2.5
v 0 16 1.5
v 0 16 -2.5
v 0 16 -3.5
v 0 17 2.5
v 0 17 1.5
v 0 17 -3.5
v 0 17 -4.5
v 1 15 1.5
v 1 15 0.5
v 1 15 -2.5
v 1 16 1.5
v 1 16 0.5
v 1 16 -2.5
v 4 16 1.5
v 4 16 -3.5
v 4 17 1.5
v 4 17 -1.5
v 4 17 -2.5
v 4 17 -3.5
v 10 17 2.5
v 10 17 -4.5
v 10 18 2.5
v 10 18 -4.5
v -4 0 5.5
v -4 1 5.5
v -2 0 5.5
v -2 1 5.5
v -6 0 4.5
v -6 1 4.5
v -4 0 4.5
v -4 1 4.5
v -7 0 3.5
v -7 1 3.5
v -6 0 3.5
v -6 1 3.5
v -9 0 2.5
v -9 1 2.5
v -7 0 2.5
v -7 1 2.5
v -4 1 2.5
v -4 8 2.5
v -3 1 2.5
v -3 7 2.5
v -2 8 2.5
v -2 18 2.5
v -1 7 2.5
v -1 16 2.5
v 0 16 2.5
v 0 17 2.5
v 10 17 2.5
v 10 18 2.5
v -10 0 1.5
v -10 1 1.5
v -9 0 1.5
v -9 1 1.5
v -1 7 1.5
v -1 15 1.5
v -1 16 1.5
v 0 7 1.5
v 0 15 1.5
v 0 16 1.5
v 0 17 1.5
v 1 15 1.5
v 1 16 1.5
v 1 17 1.5
v 4 16 1.5
v 4 17 1.5
v -5 1 0.5
v -5 4 0.5
v -5 8 0.5
v -4 1 0.5
v -4 4 0.5
v -4 8 0.5
v -6 1 -1.5
v -6 5 -1.5
v -6 8 -1.5
v -5 1 -1.5
v -5 5 -1.5
v -5 8 -1.5
v -7 1 -3.5
v -7 8 -3.5
v -6 1 -3.5
v -6 2 -3.5
v -6 8 -3.5
v -4 0 2.5
v -4 1 2.5
v -3 1 2.5
v -2 0 2.5
v -2 1 2.5
v -5 0 0.5
v -5 1 0.5
v -4 0 0.5
v -4 1 0.5
v -4 2 0.5
v -4 4 0.5
v -4 5 0.5
v -3 2 0.5
v -3 5 0.5
v -6 0 -1.5
v -6 1 -1.5
v -5 0 -1.5
v -5 1 -1.5
v -5 2 -1.5
v -5 5 -1.5
v -4 2 -1.5
v -4 5 -1.5
v 0 15 -2.5
v 0 16 -2.5
v 1 15 -2.5
v 1 16 -2.5
v -7 0 -3.5
v -7 1 -3.5
v -6 0 -3.5
v -6 1 -3.5
v -6 2 -3.5
v -6 7 -3.5
v -5 2 -3.5
v -5 5 -3.5
v -5 7 -3.5
v -3 5 -3.5
v -3 7 -3.5
v 0 16 -3.5
v 0 17 -3.5
v 4 16 -3.5
v 4 17 -3.5
v -10 0 -4.5
v -10 1 -4.5
v -9 0 -4.5
v -9 1 -4.5
v -7 1 -4.5
v -7 8 -4.5
v -6 2 -4.5
v -6 7 -4.5
v -3 1 -4.5
v -3 2 -4.5
v -2 8 -4.5
v -2 18 -4.5
v 0 7 -4.5
v 0 17 -4.5
v 10 17 -4.5
v 10 18 -4.5
v -9 0 -5.5
v -9 1 -5.5
v -7 0 -5.5
v -7 1 -5.5
v -4 0 5.5
v -2 0 5.5
v -6 0 4.5
v -4 0 4.5
v -7 0 3.5
v -6 0 3.5
v -9 0 2.5
v -7 0 2.5
v -6 0 2.5
v -4 0 2.5
v -2 0 2.5
v -10 0 1.5
v -9 0 1.5
v -7 0 1.5
v -6 0 1.5
v -10 0 0.5
v -9 0 0.5
v -7 0 0.5
v -5 0 0.5
v -4 0 0.5
v -10 0 -0.5
v -9 0 -0.5
v -7 0 -0.5
v -5 0 -0.5
v -7 0 -1.5
v -6 0 -1.5
v -5 0 -1.5
v -9 0 -2.5
v -8 0 -2.5
v -7 0 -2.5
v -6 0 -2.5
v -9 0 -3.5
v -8 0 -3.5
v -7 0 -3.5
v -6 0 -3.5
v -10 0 -4.5
v -9 0 -4.5
v -9 0 -5.5
v -7 0 -5.5
v -4 1 2.5
v -3 1 2.5
v -5 1 0.5
v -4 1 0.5
v -5 1 -0.5
v -4 1 -0.5
v -6 1 -1.5
v -5 1 -1.5
v -6 1 -2.5
v -7 1 -3.5
v -6 1 -3.5
v -7 1 -4.5
v -3 1 -4.5
v -4 5 0.5
v -3 5 0.5
v -5 5 -1.5
v -4 5 -1.5
v -5 5 -2.5
v -5 5 -3.5
v -3 5 -3.5
v -3 7 2.5
v -1 7 2.5
v -1 7 1.5
v 0 7 1.5
v -2 7 -2.5
v -1 7 -2.5
v -6 7 -3.5
v -5 7 -3.5
v -3 7 -3.5
v -2 7 -3.5
v -1 7 -3.5
v -6 7 -4.5
v 0 7 -4.5
v 0 15 1.5
v 1 15 1.5
v 0 15 0.5
v 1 15 0.5
v 0 15 -2.5
v 1 15 -2.5
v -1 16 2.5
v 0 16 2.5
v -1 16 1.5
v 0 16 1.5
v 1 16 1.5
v 4 16 1.5
v 1 16 0.5
v 0 16 -2.5
v 1 16 -2.5
v 0 16 -3.5
v 4 16 -3.5
v 0 17 2.5
v 10 17 2.5
v 0 17 1.5
v 1 17 1.5
v 4 17 1.5
v 4 17 -1.5
v 7 17 -1.5
v 4 17 -2.5
v 7 17 -2.5
v 0 17 -3.5
v 4 17 -3.5
v 0 17 -4.5
v 10 17 -4.5
v -4 1 5.5
v -2 1 5.5
v -6 1 4.5
v -4 1 4.5
v -7 1 3.5
v -6 1 3.5
v -9 1 2.5
v -7 1 2.5
v -6 1 2.5
v -4 1 2.5
v -3 1 2.5
v -2 1 2.5
v -10 1 1.5
v -9 1 1.5
v -7 1 1.5
v -6 1 1.5
v -10 1 0.5
v -9 1 0.5
v -7 1 0.5
v -5 1 0.5
v -4 1 0.5
v -10 1 -0.5
v -9 1 -0.5
v -7 1 -0.5
v -5 1 -0.5
v -7 1 -1.5
v -6 1 -1.5
v -5 1 -1.5
v -9 1 -2.5
v -8 1 -2.5
v -7 1 -2.5
v -6 1 -2.5
v -9 1 -3.5
v -8 1 -3.5
v -7 1 -3.5
v -6 1 -3.5
v -10 1 -4.5
v -9 1 -4.5
v -7 1 -4.5
v -9 1 -5.5
v -7 1 -5.5
v -4 2 0.5
v -3 2 0.5
v -4 2 -0.5
v -5 2 -1.5
v -4 2 -1.5
v -5 2 -2.5
v -6 2 -3.5
v -5 2 -3.5
v -6 2 -4.5
v -3 2 -4.5
v -4 8 2.5
v -2 8 2.5
v -5 8 0.5
v -4 8 0.5
v -6 8 -1.5
v -5 8 -1.5
v -3 8 -1.5
v -6 8 -2.5
v -5 8 -2.5
v -3 8 -2.5
v -7 8 -3.5
v -6 8 -3.5
v -5 8 -3.5
v -7 8 -4.5
v -2 8 -4.5
v -2 18 2.5
v 10 18 2.5
v -2 18 0.5
v 1 18 0.5
v -2 18 -0.5
v 1 18 -0.5
v 2 18 -1.5
v 7 18 -1.5
v -2 18 -2.5
v 1 18 -2.5
v 2 18 -2.5
v 7 18 -2.5
v -2 18 -3.5
v 1 18 -3.5
v -2 18 -4.5
v 10 18 -4.5

# faces
f 5/2/1 2/2/1 1/2/1
f 6/3/1 3/3/1 2/3/1
f 6/2/1 2/2/1 5/2/1
f 7/2/1 4/2/1 3/2/1
f 7/3/1 3/3/1 6/3/1
f 8/2/1 4/2/1 7/2/1
f 13/2/1 10/2/1 9/2/1
f 14/2/1 10/2/1 13/2/1
f 15/2/1 12/2/1 11/2/1
f 16/2/1 12/2/1 15/2/1
f 19/2/1 18/2/1 17/2/1
f 20/2/1 18/2/1 19/2/1
f 23/2/1 22/2/1 21/2/1
f 24/2/1 22/2/1 23/2/1
f 27/2/1 26/2/1 25/2/1
f 28/2/1 26/2/1 27/2/1
f 32/2/1 31/2/1 30/2/1
f 32/2/1 30/2/1 29/2/1
f 33/2/1 31/2/1 32/2/1
f 34/2/1 32/2/1 29/2/1
f 35/3/1 33/3/1 32/3/1
f 35/2/1 32/2/1 34/2/1
f 36/1/1 35/1/1 34/1/1
f 37/3/1 33/3/1 35/3/1
f 37/1/1 35/1/1 36/1/1
f 38/3/1 33/3/1 37/3/1
f 42/1/1 40/1/1 39/1/1
f 43/2/1 41/2/1 40/2/1
f 43/1/1 40/1/1 42/1/1
f 44/2/1 43/2/1 42/2/1
f 44/2/1 41/2/1 43/2/1
f 45/2/1 44/2/1 42/2/1
f 46/2/1 44/2/1 45/2/1
f 49/2/1 48/2/1 47/2/1
f 50/2/1 48/2/1 49/2/1
f 53/2/1 52/2/1 51/2/1
f 54/2/1 53/2/1 51/2/1
f 55/2/1 53/2/1 54/2/1
f 58/2/1 57/2/1 56/2/1
f 59/2/1 57/2/1 58/2/1
f 60/2/1 58/2/1 56/2/1
f 60/3/1 59/3/1 58/3/1
f 61/2/1 57/2/1 59/2/1
f 61/3/1 59/3/1 60/3/1
f 62/2/1 57/2/1 61/2/1
f 63/2/1 57/2/1 62/2/1
f 64/2/1 61/2/1 60/2/1
f 64/2/1 62/2/1 61/2/1
f 65/2/1 62/2/1 64/2/1
f 66/2/1 60/2/1 56/2/1
f 66/2/1 64/2/1 60/2/1
f 67/1/1 65/1/1 64/1/1
f 67/2/1 64/2/1 66/2/1
f 68/2/1 62/2/1 65/2/1
f 68/1/1 65/1/1 67/1/1
f 69/3/1 63/3/1 62/3/1
f 69/2/1 62/2/1 68/2/1
f 70/2/1 57/2/1 63/2/1
f 70/3/1 63/3/1 69/3/1
f 71/2/1 57/2/1 70/2/1
f 72/2/2 73/2/2 74/2/2
f 74/2/2 73/2/2 75/2/2
f 75/2/2 73/2/2 76/2/2
f 77/3/2 78/3/2 80/3/2
f 78/2/2 79/2/2 81/2/2
f 80/3/2 78/3/2 81/3/2
f 81/2/2 79/2/2 82/2/2
f 83/2/2 84/2/2 85/2/2
f 85/2/2 84/2/2 86/2/2
f 87/1/2 88/1/2 90/1/2
f 88/2/2 89/2/2 91/2/2
f 90/1/2 88/1/2 91/1/2
f 91/2/2 89/2/2 92/2/2
f 93/2/2 94/2/2 96/2/2
f 94/3/2 95/3/2 97/3/2
f 96/2/2 94/2/2 97/2/2
f 97/3/2 95/3/2 98/3/2
f 99/2/2 100/2/2 101/2/2
f 101/2/2 100/2/2 102/2/2
f 103/1/2 104/1/2 106/1/2
f 104/2/2 105/2/2 107/2/2
f 106/1/2 104/1/2 107/1/2
f 106/2/2 107/2/2 108/2/2
f 107/2/2 105/2/2 109/2/2
f 108/2/2 107/2/2 109/2/2
f 110/2/2 111/2/2 112/2/2
f 112/2/2 111/2/2 113/2/2
f 110/2/2 112/2/2 114/2/2
f 110/2/2 114/2/2 116/2/2
f 114/2/2 115/2/2 116/2/2
f 116/2/2 115/2/2 117/2/2
f 118/2/2 119/2/2 120/2/2
f 120/2/2 119/2/2 121/2/2
f 122/2/2 123/2/2 124/2/2
f 122/2/2 124/2/2 125/2/2
f 125/2/2 124/2/2 126/2/2
f 127/2/2 128/2/2 129/2/2
f 129/2/2 128/2/2 130/2/2
f 130/2/2 128/2/2 131/2/2
f 131/2/2 128/2/2 134/2/2
f 134/2/2 128/2/2 135/2/2
f 132/2/2 133/2/2 136/2/2
f 136/2/2 133/2/2 137/2/2
f 135/2/2 128/2/2 138/2/2
f 138/2/2 128/2/2 139/2/2
f 140/3/2 141/3/2 143/3/2
f 141/2/2 142/2/2 144/2/2
f 143/3/2 141/3/2 144/3/2
f 144/2/2 142/2/2 145/2/2
f 146/2/2 147/2/2 148/2/2
f 148/2/2 147/2/2 149/2/2
f 149/2/2 147/2/2 150/2/2
f 150/2/2 147/2/2 151/2/2
f 152/2/2 153/2/2 154/2/2
f 154/2/2 153/2/2 155/2/2
f 158/2/3 157/2/3 156/2/3
f 159/2/3 157/2/3 158/2/3
f 162/2/3 161/2/3 160/2/3
f 163/2/3 161/2/3 162/2/3
f 166/2/3 165/2/3 164/2/3
f 167/2/3 165/2/3 166/2/3
f 170/2/3 169/2/3 168/2/3
f 171/2/3 169/2/3 170/2/3
f 174/2/3 173/2/3 172/2/3
f 175/2/3 173/2/3 174/2/3
f 176/2/3 173/2/3 175/2/3
f 178/2/3 176/2/3 175/2/3
f 178/2/3 177/2/3 176/2/3
f 179/2/3 177/2/3 178/2/3
f 180/2/3 177/2/3 179/2/3
f 181/2/3 177/2/3 180/2/3
f 182/2/3 177/2/3 181/2/3
f 183/2/3 177/2/3 182/2/3
f 186/2/3 185/2/3 184/2/3
f 187/2/3 185/2/3 186/2/3
f 191/2/3 189/2/3 188/2/3
f 192/3/3 190/3/3 189/3/3
f 192/2/3 189/2/3 191/2/3
f 193/3/3 190/3/3 192/3/3
f 195/3/3 194/3/3 193/3/3
f 195/3/3 193/3/3 192/3/3
f 196/3/3 194/3/3 195/3/3
f 197/3/3 194/3/3 196/3/3
f 198/2/3 197/2/3 196/2/3
f 199/2/3 197/2/3 198/2/3
f 203/1/3 201/1/3 200/1/3
f 204/2/3 202/2/3 201/2/3
f 204/1/3 201/1/3 203/1/3
f 205/2/3 202/2/3 204/2/3
f 209/2/3 207/2/3 206/2/3
f 210/1/3 208/1/3 207/1/3
f 210/2/3 207/2/3 209/2/3
f 211/1/3 208/1/3 210/1/3
f 214/2/3 213/2/3 212/2/3
f 215/2/3 213/2/3 214/2/3
f 216/2/3 213/2/3 215/2/3
f 217/2/4 218/2/4 219/2/4
f 217/2/4 219/2/4 220/2/4
f 220/2/4 219/2/4 221/2/4
f 222/2/4 223/2/4 224/2/4
f 224/2/4 223/2/4 225/2/4
f 227/2/4 228/2/4 229/2/4
f 226/2/4 227/2/4 229/2/4
f 229/2/4 228/2/4 230/2/4
f 231/2/4 232/2/4 233/2/4
f 233/2/4 232/2/4 234/2/4
f 235/2/4 236/2/4 237/2/4
f 237/2/4 236/2/4 238/2/4
f 239/2/4 240/2/4 241/2/4
f 241/2/4 240/2/4 242/2/4
f 243/2/4 244/2/4 245/2/4
f 245/2/4 244/2/4 246/2/4
f 247/3/4 248/3/4 249/3/4
f 249/3/4 248/3/4 250/3/4
f 250/3/4 248/3/4 251/3/4
f 250/2/4 251/2/4 252/2/4
f 252/2/4 251/2/4 253/2/4
f 254/2/4 255/2/4 256/2/4
f 256/2/4 255/2/4 257/2/4
f 258/2/4 259/2/4 260/2/4
f 260/2/4 259/2/4 261/2/4
f 262/2/4 263/2/4 264/2/4
f 264/2/4 263/2/4 265/2/4
f 262/2/4 264/2/4 266/2/4
f 266/2/4 264/2/4 267/2/4
f 265/2/4 263/2/4 268/2/4
f 265/2/4 268/2/4 270/2/4
f 268/2/4 269/2/4 270/2/4
f 270/2/4 269/2/4 271/2/4
f 271/2/4 269/2/4 272/2/4
f 272/2/4 269/2/4 273/2/4
f 274/2/4 275/2/4 276/2/4
f 276/2/4 275/2/4 277/2/4
f 281/2/5 279/2/5 278/2/5
f 283/2/5 281/2/5 280/2/5
f 285/2/5 283/2/5 282/2/5
f 286/2/5 281/2/5 283/2/5
f 286/2/5 283/2/5 285/2/5
f 287/2/5 279/2/5 281/2/5
f 287/2/5 281/2/5 286/2/5
f 288/2/5 279/2/5 287/2/5
f 290/2/5 285/2/5 284/2/5
f 291/1/5 286/1/5 285/1/5
f 291/2/5 285/2/5 290/2/5
f 292/2/5 287/2/5 286/2/5
f 292/1/5 286/1/5 291/1/5
f 293/2/5 290/2/5 289/2/5
f 293/2/5 291/2/5 290/2/5
f 293/2/5 292/2/5 291/2/5
f 294/2/5 292/2/5 293/2/5
f 295/2/5 292/2/5 294/2/5
f 296/2/5 287/2/5 292/2/5
f 296/2/5 292/2/5 295/2/5
f 297/2/5 287/2/5 296/2/5
f 298/3/5 294/3/5 293/3/5
f 299/2/5 295/2/5 294/2/5
f 299/3/5 294/3/5 298/3/5
f 300/1/5 296/1/5 295/1/5
f 300/2/5 295/2/5 299/2/5
f 301/1/5 296/1/5 300/1/5
f 302/2/5 299/2/5 298/2/5
f 302/2/5 300/2/5 299/2/5
f 302/2/5 301/2/5 300/2/5
f 303/2/5 301/2/5 302/2/5
f 304/2/5 301/2/5 303/2/5
f 305/2/5 302/2/5 298/2/5
f 306/2/5 302/2/5 305/2/5
f 307/3/5 303/3/5 302/3/5
f 307/2/5 302/2/5 306/2/5
f 308/3/5 303/3/5 307/3/5
f 309/3/5 306/3/5 305/3/5
f 309/2/5 305/2/5 298/2/5
f 310/2/5 308/2/5 307/2/5
f 310/3/5 306/3/5 309/3/5
f 310/2/5 307/2/5 306/2/5
f 311/2/5 308/2/5 310/2/5
f 312/2/5 308/2/5 311/2/5
f 313/2/5 309/2/5 298/2/5
f 313/2/5 310/2/5 309/2/5
f 313/2/5 311/2/5 310/2/5
f 314/2/5 311/2/5 313/2/5
f 315/2/5 311/2/5 314/2/5
f 316/2/5 311/2/5 315/2/5
f 320/2/5 318/2/5 317/2/5
f 321/1/5 320/1/5 319/1/5
f 322/2/5 318/2/5 320/2/5
f 322/1/5 320/1/5 321/1/5
f 324/2/5 322/2/5 321/2/5
f 325/2/5 324/2/5 323/2/5
f 327/2/5 324/2/5 325/2/5
f 328/2/5 327/2/5 326/2/5
f 329/2/5 318/2/5 322/2/5
f 329/2/5 327/2/5 328/2/5
f 329/2/5 322/2/5 324/2/5
f 329/2/5 324/2/5 327/2/5
f 333/2/5 331/2/5 330/2/5
f 334/2/5 333/2/5 332/2/5
f 335/2/5 333/2/5 334/2/5
f 336/2/5 331/2/5 333/2/5
f 336/2/5 333/2/5 335/2/5
f 339/2/5 338/2/5 337/2/5
f 341/2/5 339/2/5 337/2/5
f 341/2/5 340/2/5 339/2/5
f 342/2/5 340/2/5 341/2/5
f 345/2/5 341/2/5 337/2/5
f 346/3/5 342/3/5 341/3/5
f 346/2/5 341/2/5 345/2/5
f 347/2/5 340/2/5 342/2/5
f 347/3/5 342/3/5 346/3/5
f 348/2/5 344/2/5 343/2/5
f 348/2/5 345/2/5 344/2/5
f 348/2/5 347/2/5 346/2/5
f 348/2/5 346/2/5 345/2/5
f 349/2/5 340/2/5 347/2/5
f 349/2/5 347/2/5 348/2/5
f 352/3/5 351/3/5 350/3/5
f 353/3/5 351/3/5 352/3/5
f 354/2/5 353/2/5 352/2/5
f 355/2/5 353/2/5 354/2/5
f 358/2/5 357/2/5 356/2/5
f 359/2/5 357/2/5 358/2/5
f 362/2/5 361/2/5 360/2/5
f 364/2/5 361/2/5 362/2/5
f 365/2/5 364/2/5 363/2/5
f 366/2/5 361/2/5 364/2/5
f 366/2/5 364/2/5 365/2/5
f 369/2/5 368/2/5 367/2/5
f 370/2/5 368/2/5 369/2/5
f 371/2/5 368/2/5 370/2/5
f 372/2/5 368/2/5 371/2/5
f 373/2/5 368/2/5 372/2/5
f 374/1/5 373/1/5 372/1/5
f 375/2/5 368/2/5 373/2/5
f 375/1/5 373/1/5 374/1/5
f 377/2/5 375/2/5 374/2/5
f 378/2/5 377/2/5 376/2/5
f 379/2/5 368/2/5 375/2/5
f 379/2/5 377/2/5 378/2/5
f 379/2/5 375/2/5 377/2/5
f 380/2/6 381/2/6 383/2/6
f 382/2/6 383/2/6 385/2/6
f 384/2/6 385/2/6 387/2/6
f 385/2/6 383/2/6 388/2/6
f 387/2/6 385/2/6 388/2/6
f 383/2/6 381/2/6 389/2/6
f 388/2/6 383/2/6 389/2/6
f 389/2/6 381/2/6 390/2/6
f 390/2/6 381/2/6 391/2/6
f 386/2/6 387/2/6 393/2/6
f 387/1/6 388/1/6 394/1/6
f 393/2/6 387/2/6 394/2/6
f 388/2/6 389/2/6 395/2/6
f 394/1/6 388/1/6 395/1/6
f 392/2/6 393/2/6 396/2/6
f 393/2/6 394/2/6 396/2/6
f 394/2/6 395/2/6 396/2/6
f 396/2/6 395/2/6 397/2/6
f 397/2/6 395/2/6 398/2/6
f 395/2/6 389/2/6 399/2/6
f 398/2/6 395/2/6 399/2/6
f 399/2/6 389/2/6 400/2/6
f 396/3/6 397/3/6 401/3/6
f 397/2/6 398/2/6 402/2/6
f 401/3/6 397/3/6 402/3/6
f 398/1/6 399/1/6 403/1/6
f 402/2/6 398/2/6 403/2/6
f 403/1/6 399/1/6 404/1/6
f 401/2/6 402/2/6 405/2/6
f 402/2/6 403/2/6 405/2/6
f 403/2/6 404/2/6 405/2/6
f 405/2/6 404/2/6 406/2/6
f 406/2/6 404/2/6 407/2/6
f 401/2/6 405/2/6 408/2/6
f 408/2/6 405/2/6 409/2/6
f 405/3/6 406/3/6 410/3/6
f 409/2/6 405/2/6 410/2/6
f 410/3/6 406/3/6 411/3/6
f 408/3/6 409/3/6 412/3/6
f 401/2/6 408/2/6 412/2/6
f 410/2/6 411/2/6 413/2/6
f 412/3/6 409/3/6 413/3/6
f 409/2/6 410/2/6 413/2/6
f 413/2/6 411/2/6 414/2/6
f 414/2/6 411/2/6 415/2/6
f 401/2/6 412/2/6 416/2/6
f 412/2/6 413/2/6 416/2/6
f 413/2/6 414/2/6 416/2/6
f 416/2/6 414/2/6 417/2/6
f 417/2/6 414/2/6 418/2/6
f 417/2/6 418/2/6 419/2/6
f 419/2/6 418/2/6 420/2/6
f 421/2/6 422/2/6 423/2/6
f 423/2/6 422/2/6 425/2/6
f 424/2/6 425/2/6 426/2/6
f 426/2/6 425/2/6 428/2/6
f 427/2/6 428/2/6 429/2/6
f 425/2/6 422/2/6 430/2/6
f 429/2/6 428/2/6 430/2/6
f 428/2/6 425/2/6 430/2/6
f 431/2/6 432/2/6 434/2/6
f 433/2/6 434/2/6 436/2/6
f 434/2/6 432/2/6 437/2/6
f 436/2/6 434/2/6 437/2/6
f 435/1/6 436/1/6 438/1/6
f 436/1/6 437/1/6 438/1/6
f 438/1/6 437/1/6 439/1/6
f 437/2/6 432/2/6 440/2/6
f 439/1/6 437/1/6 440/1/6
f 438/3/6 439/3/6 442/3/6
f 439/2/6 440/2/6 443/2/6
f 442/3/6 439/3/6 443/3/6
f 441/2/6 442/2/6 444/2/6
f 442/2/6 443/2/6 444/2/6
f 440/2/6 432/2/6 445/2/6
f 444/2/6 443/2/6 445/2/6
f 443/2/6 440/2/6 445/2/6
f 446/2/6 447/2/6 448/2/6
f 448/2/6 447/2/6 449/2/6
f 448/1/6 449/1/6 450/1/6
f 449/2/6 447/2/6 451/2/6
f 450/1/6 449/1/6 451/1/6
f 450/2/6 451/2/6 452/2/6
f 451/2/6 447/2/6 452/2/6
f 452/2/6 447/2/6 453/2/6
f 450/2/6 452/2/6 454/2/6
f 454/2/6 452/2/6 455/2/6
f 452/1/6 453/1/6 456/1/6
f 455/2/6 452/2/6 456/2/6
f 453/2/6 447/2/6 457/2/6
f 456/1/6 453/1/6 457/1/6
f 454/3/6 455/3/6 458/3/6
f 455/2/6 456/2/6 459/2/6
f 458/3/6 455/3/6 459/3/6
f 456/2/6 457/2/6 459/2/6
f 458/2/6 459/2/6 460/2/6
f 457/2/6 447/2/6 461/2/6
f 460/2/6 459/2/6 461/2/6
f 459/2/6 457/2/6 461/2/6
