# MagicaVoxel @ Ephtracy

# group
g map_jiha_mul_zulzul_3

# material
mtllib map_jiha_mul_zulzul_3.mtl
usemtl palette

# normals
vn -1 0 0
vn 1 0 0
vn 0 0 1
vn 0 0 -1
vn 0 -1 0
vn 0 1 0

# texcoords
vt 0.564453 0.5
vt 0.587891 0.5
vt 0.611328 0.5

# verts
v -10 0 1.5
v -10 0 -4.5
v -10 1 1.5
v -10 1 -4.5
v -9 0 2.5
v -9 0 1.5
v -9 0 -4.5
v -9 0 -5.5
v -9 1 2.5
v -9 1 1.5
v -9 1 -4.5
v -9 1 -5.5
v -7 0 3.5
v -7 0 2.5
v -7 1 3.5
v -7 1 2.5
v -7 1 -3.5
v -7 1 -4.5
v -7 8 -3.5
v -7 8 -4.5
v -6 0 4.5
v -6 0 3.5
v -6 1 4.5
v -6 1 3.5
v -6 1 -1.5
v -6 1 -2.5
v -6 1 -3.5
v -6 4 -2.5
v -6 4 -3.5
v -6 7 -1.5
v -6 7 -2.5
v -6 8 -1.5
v -6 8 -2.5
v -6 8 -3.5
v -5 1 0.5
v -5 1 -0.5
v -5 1 -1.5
v -5 6 0.5
v -5 6 -0.5
v -5 7 -1.5
v -5 8 0.5
v -5 8 -1.5
v -4 0 5.5
v -4 0 4.5
v -4 1 5.5
v -4 1 4.5
v -4 1 2.5
v -4 1 0.5
v -4 6 0.5
v -4 8 2.5
v -4 8 0.5
v -2 8 2.5
v -2 8 -1.5
v -2 8 -2.5
v -2 8 -4.5
v -2 9 -1.5
v -2 9 -2.5
v -2 11 1.5
v -2 11 0.5
v -2 16 1.5
v -2 16 0.5
v -2 16 -2.5
v -2 16 -3.5
v -2 17 0.5
v -2 17 -0.5
v -2 18 2.5
v -2 18 0.5
v -2 18 -0.5
v -2 18 -2.5
v -2 18 -3.5
v -2 18 -4.5
v -7 0 -3.5
v -7 0 -5.5
v -7 1 -3.5
v -7 1 -4.5
v -7 1 -5.5
v -6 0 -1.5
v -6 0 -2.5
v -6 0 -3.5
v -6 1 -1.5
v -6 1 -2.5
v -6 1 -3.5
v -6 2 -3.5
v -6 2 -4.5
v -6 4 -3.5
v -6 7 -3.5
v -6 7 -4.5
v -5 0 0.5
v -5 0 -1.5
v -5 1 0.5
v -5 1 -0.5
v -5 1 -1.5
v -5 2 -1.5
v -5 2 -3.5
v -5 4 -2.5
v -5 4 -3.5
v -5 5 -1.5
v -5 5 -2.5
v -5 5 -3.5
v -4 0 2.5
v -4 0 0.5
v -4 1 2.5
v -4 1 0.5
v -4 2 0.5
v -4 2 -0.5
v -4 2 -1.5
v -4 5 0.5
v -4 5 -0.5
v -4 5 -1.5
v -3 1 2.5
v -3 1 -4.5
v -3 2 0.5
v -3 2 -4.5
v -3 5 0.5
v -3 5 -3.5
v -3 7 2.5
v -3 7 -1.5
v -3 7 -2.5
v -3 7 -3.5
v -2 0 5.5
v -2 0 2.5
v -2 1 5.5
v -2 1 2.5
v -1 7 2.5
v -1 7 1.5
v -1 15 1.5
v -1 16 2.5
v -1 16 1.5
v 0 7 1.5
v 0 7 -4.5
v 0 15 1.5
v 0 15 0.5
v 0 15 -2.5
v 0 16 2.5
v 0 16 1.5
v 0 16 -2.5
v 0 16 -3.5
v 0 17 2.5
v 0 17 1.5
v 0 17 -3.5
v 0 17 -4.5
v 1 15 1.5
v 1 15 0.5
v 1 15 -2.5
v 1 16 1.5
v 1 16 0.5
v 1 16 -2.5
v 4 16 1.5
v 4 16 -3.5
v 4 17 1.5
v 4 17 -1.5
v 4 17 -2.5
v 4 17 -3.5
v 10 17 2.5
v 10 17 -4.5
v 10 18 2.5
v 10 18 -4.5
v -4 0 5.5
v -4 1 5.5
v -2 0 5.5
v -2 1 5.5
v -6 0 4.5
v -6 1 4.5
v -4 0 4.5
v -4 1 4.5
v -7 0 3.5
v -7 1 3.5
v -6 0 3.5
v -6 1 3.5
v -9 0 2.5
v -9 1 2.5
v -7 0 2.5
v -7 1 2.5
v -4 1 2.5
v -4 8 2.5
v -3 1 2.5
v -3 7 2.5
v -2 8 2.5
v -2 18 2.5
v -1 7 2.5
v -1 16 2.5
v 0 16 2.5
v 0 17 2.5
v 10 17 2.5
v 10 18 2.5
v -10 0 1.5
v -10 1 1.5
v -9 0 1.5
v -9 1 1.5
v -1 7 1.5
v -1 15 1.5
v -1 16 1.5
v 0 7 1.5
v 0 15 1.5
v 0 16 1.5
v 0 17 1.5
v 1 15 1.5
v 1 16 1.5
v 1 17 1.5
v 4 16 1.5
v 4 17 1.5
v -5 1 0.5
v -5 6 0.5
v -5 8 0.5
v -4 1 0.5
v -4 6 0.5
v -4 8 0.5
v -6 1 -1.5
v -6 7 -1.5
v -6 8 -1.5
v -5 1 -1.5
v -5 7 -1.5
v -5 8 -1.5
v -7 1 -3.5
v -7 8 -3.5
v -6 1 -3.5
v -6 4 -3.5
v -6 8 -3.5
v -4 0 2.5
v -4 1 2.5
v -3 1 2.5
v -2 0 2.5
v -2 1 2.5
v -5 0 0.5
v -5 1 0.5
v -4 0 0.5
v -4 1 0.5
v -4 2 0.5
v -4 5 0.5
v -3 2 0.5
v -3 5 0.5
v -6 0 -1.5
v -6 1 -1.5
v -5 0 -1.5
v -5 1 -1.5
v -5 2 -1.5
v -5 5 -1.5
v -4 2 -1.5
v -4 5 -1.5
v 0 15 -2.5
v 0 16 -2.5
v 1 15 -2.5
v 1 16 -2.5
v -7 0 -3.5
v -7 1 -3.5
v -6 0 -3.5
v -6 1 -3.5
v -6 2 -3.5
v -6 4 -3.5
v -6 7 -3.5
v -5 2 -3.5
v -5 4 -3.5
v -5 5 -3.5
v -5 7 -3.5
v -3 5 -3.5
v -3 7 -3.5
v 0 16 -3.5
v 0 17 -3.5
v 4 16 -3.5
v 4 17 -3.5
v -10 0 -4.5
v -10 1 -4.5
v -9 0 -4.5
v -9 1 -4.5
v -7 1 -4.5
v -7 8 -4.5
v -6 2 -4.5
v -6 7 -4.5
v -3 1 -4.5
v -3 2 -4.5
v -2 8 -4.5
v -2 18 -4.5
v 0 7 -4.5
v 0 17 -4.5
v 10 17 -4.5
v 10 18 -4.5
v -9 0 -5.5
v -9 1 -5.5
v -7 0 -5.5
v -7 1 -5.5
v -4 0 5.5
v -2 0 5.5
v -6 0 4.5
v -4 0 4.5
v -7 0 3.5
v -6 0 3.5
v -9 0 2.5
v -7 0 2.5
v -4 0 2.5
v -2 0 2.5
v -10 0 1.5
v -9 0 1.5
v -7 0 0.5
v -6 0 0.5
v -5 0 0.5
v -4 0 0.5
v -9 0 -0.5
v -8 0 -0.5
v -9 0 -1.5
v -8 0 -1.5
v -7 0 -1.5
v -6 0 -1.5
v -5 0 -1.5
v -7 0 -2.5
v -6 0 -2.5
v -7 0 -3.5
v -6 0 -3.5
v -10 0 -4.5
v -9 0 -4.5
v -9 0 -5.5
v -7 0 -5.5
v -4 1 2.5
v -3 1 2.5
v -5 1 0.5
v -4 1 0.5
v -5 1 -0.5
v -4 1 -0.5
v -6 1 -1.5
v -5 1 -1.5
v -6 1 -2.5
v -7 1 -3.5
v -6 1 -3.5
v -7 1 -4.5
v -3 1 -4.5
v -4 5 0.5
v -3 5 0.5
v -4 5 -0.5
v -5 5 -1.5
v -4 5 -1.5
v -5 5 -2.5
v -5 5 -3.5
v -3 5 -3.5
v -3 7 2.5
v -1 7 2.5
v -1 7 1.5
v 0 7 1.5
v -3 7 -1.5
v -1 7 -1.5
v -3 7 -2.5
v -2 7 -2.5
v -1 7 -2.5
v -6 7 -3.5
v -5 7 -3.5
v -3 7 -3.5
v -2 7 -3.5
v -1 7 -3.5
v -6 7 -4.5
v 0 7 -4.5
v 0 15 1.5
v 1 15 1.5
v 0 15 0.5
v 1 15 0.5
v 0 15 -2.5
v 1 15 -2.5
v -1 16 2.5
v 0 16 2.5
v -1 16 1.5
v 0 16 1.5
v 1 16 1.5
v 4 16 1.5
v 1 16 0.5
v 0 16 -2.5
v 1 16 -2.5
v 0 16 -3.5
v 4 16 -3.5
v 0 17 2.5
v 10 17 2.5
v 0 17 1.5
v 1 17 1.5
v 4 17 1.5
v 4 17 -1.5
v 9 17 -1.5
v 4 17 -2.5
v 9 17 -2.5
v 0 17 -3.5
v 4 17 -3.5
v 0 17 -4.5
v 10 17 -4.5
v -4 1 5.5
v -2 1 5.5
v -6 1 4.5
v -4 1 4.5
v -7 1 3.5
v -6 1 3.5
v -9 1 2.5
v -7 1 2.5
v -4 1 2.5
v -3 1 2.5
v -2 1 2.5
v -10 1 1.5
v -9 1 1.5
v -7 1 0.5
v -6 1 0.5
v -5 1 0.5
v -4 1 0.5
v -9 1 -0.5
v -8 1 -0.5
v -5 1 -0.5
v -9 1 -1.5
v -8 1 -1.5
v -7 1 -1.5
v -6 1 -1.5
v -5 1 -1.5
v -7 1 -2.5
v -6 1 -2.5
v -7 1 -3.5
v -6 1 -3.5
v -10 1 -4.5
v -9 1 -4.5
v -7 1 -4.5
v -9 1 -5.5
v -7 1 -5.5
v -4 2 0.5
v -3 2 0.5
v -4 2 -0.5
v -5 2 -1.5
v -4 2 -1.5
v -6 2 -3.5
v -5 2 -3.5
v -6 2 -4.5
v -3 2 -4.5
v -4 8 2.5
v -2 8 2.5
v -5 8 0.5
v -4 8 0.5
v -6 8 -1.5
v -5 8 -1.5
v -2 8 -1.5
v -6 8 -2.5
v -3 8 -2.5
v -2 8 -2.5
v -7 8 -3.5
v -6 8 -3.5
v -3 8 -3.5
v -7 8 -4.5
v -2 8 -4.5
v -2 18 2.5
v 10 18 2.5
v -2 18 0.5
v 3 18 0.5
v -2 18 -0.5
v 3 18 -0.5
v 4 18 -1.5
v 9 18 -1.5
v -2 18 -2.5
v 3 18 -2.5
v 4 18 -2.5
v 9 18 -2.5
v -2 18 -3.5
v 3 18 -3.5
v -2 18 -4.5
v 10 18 -4.5

# faces
f 3/2/1 2/2/1 1/2/1
f 4/2/1 2/2/1 3/2/1
f 9/2/1 6/2/1 5/2/1
f 10/2/1 6/2/1 9/2/1
f 11/2/1 8/2/1 7/2/1
f 12/2/1 8/2/1 11/2/1
f 15/2/1 14/2/1 13/2/1
f 16/2/1 14/2/1 15/2/1
f 19/2/1 18/2/1 17/2/1
f 20/2/1 18/2/1 19/2/1
f 23/2/1 22/2/1 21/2/1
f 24/2/1 22/2/1 23/2/1
f 28/2/1 27/2/1 26/2/1
f 28/2/1 26/2/1 25/2/1
f 29/2/1 27/2/1 28/2/1
f 30/2/1 28/2/1 25/2/1
f 31/3/1 29/3/1 28/3/1
f 31/2/1 28/2/1 30/2/1
f 32/1/1 31/1/1 30/1/1
f 33/3/1 29/3/1 31/3/1
f 33/1/1 31/1/1 32/1/1
f 34/3/1 29/3/1 33/3/1
f 38/1/1 36/1/1 35/1/1
f 39/2/1 37/2/1 36/2/1
f 39/1/1 36/1/1 38/1/1
f 40/2/1 39/2/1 38/2/1
f 40/2/1 37/2/1 39/2/1
f 41/2/1 40/2/1 38/2/1
f 42/2/1 40/2/1 41/2/1
f 45/2/1 44/2/1 43/2/1
f 46/2/1 44/2/1 45/2/1
f 49/2/1 48/2/1 47/2/1
f 50/2/1 49/2/1 47/2/1
f 51/2/1 49/2/1 50/2/1
f 56/2/1 53/2/1 52/2/1
f 56/1/1 54/1/1 53/1/1
f 57/2/1 55/2/1 54/2/1
f 57/1/1 54/1/1 56/1/1
f 58/2/1 56/2/1 52/2/1
f 58/2/1 57/2/1 56/2/1
f 59/2/1 57/2/1 58/2/1
f 60/2/1 58/2/1 52/2/1
f 60/3/1 59/3/1 58/3/1
f 61/2/1 57/2/1 59/2/1
f 61/3/1 59/3/1 60/3/1
f 62/2/1 55/2/1 57/2/1
f 62/2/1 57/2/1 61/2/1
f 63/2/1 55/2/1 62/2/1
f 64/2/1 61/2/1 60/2/1
f 64/2/1 62/2/1 61/2/1
f 65/2/1 62/2/1 64/2/1
f 66/2/1 60/2/1 52/2/1
f 66/2/1 64/2/1 60/2/1
f 67/1/1 65/1/1 64/1/1
f 67/2/1 64/2/1 66/2/1
f 68/2/1 62/2/1 65/2/1
f 68/1/1 65/1/1 67/1/1
f 69/3/1 63/3/1 62/3/1
f 69/2/1 62/2/1 68/2/1
f 70/2/1 55/2/1 63/2/1
f 70/3/1 63/3/1 69/3/1
f 71/2/1 55/2/1 70/2/1
f 72/2/2 73/2/2 74/2/2
f 74/2/2 73/2/2 75/2/2
f 75/2/2 73/2/2 76/2/2
f 77/3/2 78/3/2 80/3/2
f 78/2/2 79/2/2 81/2/2
f 80/3/2 78/3/2 81/3/2
f 81/2/2 79/2/2 82/2/2
f 83/2/2 84/2/2 85/2/2
f 85/2/2 84/2/2 86/2/2
f 86/2/2 84/2/2 87/2/2
f 88/2/2 89/2/2 90/2/2
f 90/2/2 89/2/2 91/2/2
f 91/2/2 89/2/2 92/2/2
f 93/2/2 94/2/2 95/2/2
f 95/2/2 94/2/2 96/2/2
f 93/2/2 95/2/2 97/2/2
f 95/3/2 96/3/2 98/3/2
f 97/2/2 95/2/2 98/2/2
f 98/3/2 96/3/2 99/3/2
f 100/2/2 101/2/2 102/2/2
f 102/2/2 101/2/2 103/2/2
f 104/1/2 105/1/2 107/1/2
f 105/2/2 106/2/2 108/2/2
f 107/1/2 105/1/2 108/1/2
f 108/2/2 106/2/2 109/2/2
f 110/2/2 111/2/2 112/2/2
f 112/2/2 111/2/2 113/2/2
f 110/2/2 112/2/2 114/2/2
f 110/2/2 114/2/2 116/2/2
f 114/2/2 115/2/2 116/2/2
f 116/2/2 115/2/2 117/2/2
f 117/2/2 115/2/2 118/2/2
f 118/2/2 115/2/2 119/2/2
f 120/2/2 121/2/2 122/2/2
f 122/2/2 121/2/2 123/2/2
f 124/2/2 125/2/2 126/2/2
f 124/2/2 126/2/2 127/2/2
f 127/2/2 126/2/2 128/2/2
f 129/2/2 130/2/2 131/2/2
f 131/2/2 130/2/2 132/2/2
f 132/2/2 130/2/2 133/2/2
f 133/2/2 130/2/2 136/2/2
f 136/2/2 130/2/2 137/2/2
f 134/2/2 135/2/2 138/2/2
f 138/2/2 135/2/2 139/2/2
f 137/2/2 130/2/2 140/2/2
f 140/2/2 130/2/2 141/2/2
f 142/3/2 143/3/2 145/3/2
f 143/2/2 144/2/2 146/2/2
f 145/3/2 143/3/2 146/3/2
f 146/2/2 144/2/2 147/2/2
f 148/2/2 149/2/2 150/2/2
f 150/2/2 149/2/2 151/2/2
f 151/2/2 149/2/2 152/2/2
f 152/2/2 149/2/2 153/2/2
f 154/2/2 155/2/2 156/2/2
f 156/2/2 155/2/2 157/2/2
f 160/2/3 159/2/3 158/2/3
f 161/2/3 159/2/3 160/2/3
f 164/2/3 163/2/3 162/2/3
f 165/2/3 163/2/3 164/2/3
f 168/2/3 167/2/3 166/2/3
f 169/2/3 167/2/3 168/2/3
f 172/2/3 171/2/3 170/2/3
f 173/2/3 171/2/3 172/2/3
f 176/2/3 175/2/3 174/2/3
f 177/2/3 175/2/3 176/2/3
f 178/2/3 175/2/3 177/2/3
f 180/2/3 178/2/3 177/2/3
f 180/2/3 179/2/3 178/2/3
f 181/2/3 179/2/3 180/2/3
f 182/2/3 179/2/3 181/2/3
f 183/2/3 179/2/3 182/2/3
f 184/2/3 179/2/3 183/2/3
f 185/2/3 179/2/3 184/2/3
f 188/2/3 187/2/3 186/2/3
f 189/2/3 187/2/3 188/2/3
f 193/2/3 191/2/3 190/2/3
f 194/3/3 192/3/3 191/3/3
f 194/2/3 191/2/3 193/2/3
f 195/3/3 192/3/3 194/3/3
f 197/3/3 196/3/3 195/3/3
f 197/3/3 195/3/3 194/3/3
f 198/3/3 196/3/3 197/3/3
f 199/3/3 196/3/3 198/3/3
f 200/2/3 199/2/3 198/2/3
f 201/2/3 199/2/3 200/2/3
f 205/1/3 203/1/3 202/1/3
f 206/2/3 204/2/3 203/2/3
f 206/1/3 203/1/3 205/1/3
f 207/2/3 204/2/3 206/2/3
f 211/2/3 209/2/3 208/2/3
f 212/1/3 210/1/3 209/1/3
f 212/2/3 209/2/3 211/2/3
f 213/1/3 210/1/3 212/1/3
f 216/2/3 215/2/3 214/2/3
f 217/2/3 215/2/3 216/2/3
f 218/2/3 215/2/3 217/2/3
f 219/2/4 220/2/4 221/2/4
f 219/2/4 221/2/4 222/2/4
f 222/2/4 221/2/4 223/2/4
f 224/2/4 225/2/4 226/2/4
f 226/2/4 225/2/4 227/2/4
f 228/2/4 229/2/4 230/2/4
f 230/2/4 229/2/4 231/2/4
f 232/2/4 233/2/4 234/2/4
f 234/2/4 233/2/4 235/2/4
f 236/2/4 237/2/4 238/2/4
f 238/2/4 237/2/4 239/2/4
f 240/2/4 241/2/4 242/2/4
f 242/2/4 241/2/4 243/2/4
f 244/2/4 245/2/4 246/2/4
f 246/2/4 245/2/4 247/2/4
f 248/2/4 249/2/4 251/2/4
f 249/3/4 250/3/4 252/3/4
f 251/2/4 249/2/4 252/2/4
f 252/3/4 250/3/4 253/3/4
f 253/3/4 250/3/4 254/3/4
f 253/2/4 254/2/4 255/2/4
f 255/2/4 254/2/4 256/2/4
f 257/2/4 258/2/4 259/2/4
f 259/2/4 258/2/4 260/2/4
f 261/2/4 262/2/4 263/2/4
f 263/2/4 262/2/4 264/2/4
f 265/2/4 266/2/4 267/2/4
f 267/2/4 266/2/4 268/2/4
f 265/2/4 267/2/4 269/2/4
f 269/2/4 267/2/4 270/2/4
f 268/2/4 266/2/4 271/2/4
f 268/2/4 271/2/4 273/2/4
f 271/2/4 272/2/4 273/2/4
f 273/2/4 272/2/4 274/2/4
f 274/2/4 272/2/4 275/2/4
f 275/2/4 272/2/4 276/2/4
f 277/2/4 278/2/4 279/2/4
f 279/2/4 278/2/4 280/2/4
f 284/2/5 282/2/5 281/2/5
f 286/2/5 284/2/5 283/2/5
f 288/2/5 286/2/5 285/2/5
f 289/2/5 282/2/5 284/2/5
f 289/2/5 284/2/5 286/2/5
f 289/2/5 286/2/5 288/2/5
f 290/2/5 282/2/5 289/2/5
f 292/2/5 288/2/5 287/2/5
f 292/2/5 289/2/5 288/2/5
f 293/2/5 289/2/5 292/2/5
f 293/2/5 292/2/5 291/2/5
f 294/2/5 289/2/5 293/2/5
f 295/2/5 289/2/5 294/2/5
f 296/2/5 289/2/5 295/2/5
f 297/2/5 293/2/5 291/2/5
f 298/2/5 293/2/5 297/2/5
f 299/2/5 297/2/5 291/2/5
f 299/3/5 298/3/5 297/3/5
f 300/2/5 293/2/5 298/2/5
f 300/3/5 298/3/5 299/3/5
f 301/1/5 294/1/5 293/1/5
f 301/2/5 293/2/5 300/2/5
f 302/2/5 295/2/5 294/2/5
f 302/1/5 294/1/5 301/1/5
f 303/2/5 295/2/5 302/2/5
f 304/2/5 300/2/5 299/2/5
f 304/2/5 301/2/5 300/2/5
f 304/3/5 302/3/5 301/3/5
f 305/3/5 302/3/5 304/3/5
f 306/2/5 304/2/5 299/2/5
f 306/2/5 305/2/5 304/2/5
f 307/2/5 305/2/5 306/2/5
f 308/2/5 299/2/5 291/2/5
f 308/2/5 306/2/5 299/2/5
f 309/2/5 306/2/5 308/2/5
f 310/2/5 306/2/5 309/2/5
f 311/2/5 306/2/5 310/2/5
f 315/2/5 313/2/5 312/2/5
f 316/1/5 315/1/5 314/1/5
f 317/2/5 313/2/5 315/2/5
f 317/1/5 315/1/5 316/1/5
f 319/2/5 317/2/5 316/2/5
f 320/2/5 319/2/5 318/2/5
f 322/2/5 319/2/5 320/2/5
f 323/2/5 322/2/5 321/2/5
f 324/2/5 313/2/5 317/2/5
f 324/2/5 322/2/5 323/2/5
f 324/2/5 317/2/5 319/2/5
f 324/2/5 319/2/5 322/2/5
f 327/2/5 326/2/5 325/2/5
f 329/2/5 326/2/5 327/2/5
f 330/2/5 329/2/5 328/2/5
f 331/2/5 329/2/5 330/2/5
f 332/2/5 326/2/5 329/2/5
f 332/2/5 329/2/5 331/2/5
f 335/2/5 334/2/5 333/2/5
f 337/2/5 335/2/5 333/2/5
f 337/2/5 336/2/5 335/2/5
f 338/2/5 336/2/5 337/2/5
f 339/1/5 338/1/5 337/1/5
f 340/1/5 338/1/5 339/1/5
f 341/2/5 336/2/5 338/2/5
f 341/1/5 338/1/5 340/1/5
f 344/2/5 340/2/5 339/2/5
f 345/3/5 341/3/5 340/3/5
f 345/2/5 340/2/5 344/2/5
f 346/2/5 336/2/5 341/2/5
f 346/3/5 341/3/5 345/3/5
f 347/2/5 343/2/5 342/2/5
f 347/2/5 344/2/5 343/2/5
f 347/2/5 346/2/5 345/2/5
f 347/2/5 345/2/5 344/2/5
f 348/2/5 336/2/5 346/2/5
f 348/2/5 346/2/5 347/2/5
f 351/3/5 350/3/5 349/3/5
f 352/3/5 350/3/5 351/3/5
f 353/2/5 352/2/5 351/2/5
f 354/2/5 352/2/5 353/2/5
f 357/2/5 356/2/5 355/2/5
f 358/2/5 356/2/5 357/2/5
f 361/2/5 360/2/5 359/2/5
f 363/2/5 360/2/5 361/2/5
f 364/2/5 363/2/5 362/2/5
f 365/2/5 360/2/5 363/2/5
f 365/2/5 363/2/5 364/2/5
f 368/2/5 367/2/5 366/2/5
f 369/2/5 367/2/5 368/2/5
f 370/2/5 367/2/5 369/2/5
f 371/2/5 367/2/5 370/2/5
f 372/2/5 367/2/5 371/2/5
f 373/1/5 372/1/5 371/1/5
f 374/2/5 367/2/5 372/2/5
f 374/1/5 372/1/5 373/1/5
f 376/2/5 374/2/5 373/2/5
f 377/2/5 376/2/5 375/2/5
f 378/2/5 367/2/5 374/2/5
f 378/2/5 376/2/5 377/2/5
f 378/2/5 374/2/5 376/2/5
f 379/2/6 380/2/6 382/2/6
f 381/2/6 382/2/6 384/2/6
f 383/2/6 384/2/6 386/2/6
f 382/2/6 380/2/6 387/2/6
f 384/2/6 382/2/6 387/2/6
f 386/2/6 384/2/6 387/2/6
f 387/2/6 380/2/6 388/2/6
f 388/2/6 380/2/6 389/2/6
f 385/2/6 386/2/6 391/2/6
f 386/2/6 387/2/6 391/2/6
f 391/2/6 387/2/6 392/2/6
f 390/2/6 391/2/6 392/2/6
f 392/2/6 387/2/6 393/2/6
f 393/2/6 387/2/6 394/2/6
f 394/2/6 387/2/6 395/2/6
f 390/2/6 392/2/6 396/2/6
f 396/2/6 392/2/6 397/2/6
f 393/2/6 394/2/6 398/2/6
f 390/2/6 396/2/6 399/2/6
f 396/3/6 397/3/6 399/3/6
f 397/2/6 392/2/6 400/2/6
f 399/3/6 397/3/6 400/3/6
f 392/1/6 393/1/6 401/1/6
f 400/2/6 392/2/6 401/2/6
f 393/2/6 398/2/6 402/2/6
f 401/1/6 393/1/6 402/1/6
f 402/2/6 398/2/6 403/2/6
f 399/2/6 400/2/6 404/2/6
f 400/2/6 401/2/6 404/2/6
f 401/3/6 402/3/6 404/3/6
f 404/3/6 402/3/6 405/3/6
f 399/2/6 404/2/6 406/2/6
f 404/2/6 405/2/6 406/2/6
f 406/2/6 405/2/6 407/2/6
f 390/2/6 399/2/6 408/2/6
f 399/2/6 406/2/6 408/2/6
f 408/2/6 406/2/6 409/2/6
f 409/2/6 406/2/6 410/2/6
f 409/2/6 410/2/6 411/2/6
f 411/2/6 410/2/6 412/2/6
f 413/2/6 414/2/6 415/2/6
f 415/2/6 414/2/6 417/2/6
f 416/2/6 417/2/6 419/2/6
f 418/2/6 419/2/6 420/2/6
f 417/2/6 414/2/6 421/2/6
f 420/2/6 419/2/6 421/2/6
f 419/2/6 417/2/6 421/2/6
f 422/2/6 423/2/6 425/2/6
f 424/2/6 425/2/6 427/2/6
f 425/2/6 423/2/6 428/2/6
f 427/2/6 425/2/6 428/2/6
f 426/1/6 427/1/6 429/1/6
f 427/1/6 428/1/6 429/1/6
f 429/1/6 428/1/6 430/1/6
f 430/1/6 428/1/6 431/1/6
f 429/3/6 430/3/6 433/3/6
f 430/2/6 431/2/6 434/2/6
f 433/3/6 430/3/6 434/3/6
f 432/2/6 433/2/6 435/2/6
f 433/2/6 434/2/6 435/2/6
f 434/2/6 431/2/6 436/2/6
f 435/2/6 434/2/6 436/2/6
f 437/2/6 438/2/6 439/2/6
f 439/2/6 438/2/6 440/2/6
f 439/1/6 440/1/6 441/1/6
f 440/2/6 438/2/6 442/2/6
f 441/1/6 440/1/6 442/1/6
f 441/2/6 442/2/6 443/2/6
f 442/2/6 438/2/6 443/2/6
f 443/2/6 438/2/6 444/2/6
f 441/2/6 443/2/6 445/2/6
f 445/2/6 443/2/6 446/2/6
f 443/1/6 444/1/6 447/1/6
f 446/2/6 443/2/6 447/2/6
f 444/2/6 438/2/6 448/2/6
f 447/1/6 444/1/6 448/1/6
f 445/3/6 446/3/6 449/3/6
f 446/2/6 447/2/6 450/2/6
f 449/3/6 446/3/6 450/3/6
f 447/2/6 448/2/6 450/2/6
f 449/2/6 450/2/6 451/2/6
f 448/2/6 438/2/6 452/2/6
f 451/2/6 450/2/6 452/2/6
f 450/2/6 448/2/6 452/2/6
