# MagicaVoxel @ Ephtracy

# group
g map_jiha_mul_zulzul_5

# material
mtllib map_jiha_mul_zulzul_5.mtl
usemtl palette

# normals
vn -1 0 0
vn 1 0 0
vn 0 0 1
vn 0 0 -1
vn 0 -1 0
vn 0 1 0

# texcoords
vt 0.564453 0.5
vt 0.587891 0.5
vt 0.611328 0.5

# verts
v -10 0 1.5
v -10 0 -4.5
v -10 1 1.5
v -10 1 -4.5
v -9 0 2.5
v -9 0 1.5
v -9 0 -4.5
v -9 0 -5.5
v -9 1 2.5
v -9 1 1.5
v -9 1 -4.5
v -9 1 -5.5
v -7 0 3.5
v -7 0 2.5
v -7 1 3.5
v -7 1 2.5
v -7 1 -3.5
v -7 1 -4.5
v -7 8 -3.5
v -7 8 -4.5
v -6 0 4.5
v -6 0 3.5
v -6 1 4.5
v -6 1 3.5
v -6 1 -1.5
v -6 1 -2.5
v -6 1 -3.5
v -6 3 -1.5
v -6 3 -2.5
v -6 6 -2.5
v -6 6 -3.5
v -6 8 -1.5
v -6 8 -2.5
v -6 8 -3.5
v -5 1 0.5
v -5 1 -0.5
v -5 1 -1.5
v -5 3 0.5
v -5 3 -0.5
v -5 3 -1.5
v -5 8 0.5
v -5 8 -1.5
v -4 0 5.5
v -4 0 4.5
v -4 1 5.5
v -4 1 4.5
v -4 1 2.5
v -4 1 1.5
v -4 1 0.5
v -4 3 0.5
v -4 8 2.5
v -4 8 0.5
v -2 8 2.5
v -2 8 1.5
v -2 8 0.5
v -2 8 -4.5
v -2 12 1.5
v -2 12 0.5
v -2 12 -2.5
v -2 12 -3.5
v -2 13 0.5
v -2 13 -0.5
v -2 18 2.5
v -2 18 0.5
v -2 18 -0.5
v -2 18 -2.5
v -2 18 -3.5
v -2 18 -4.5
v -7 0 -3.5
v -7 0 -5.5
v -7 1 -3.5
v -7 1 -4.5
v -7 1 -5.5
v -6 0 -1.5
v -6 0 -2.5
v -6 0 -3.5
v -6 1 -1.5
v -6 1 -2.5
v -6 1 -3.5
v -6 2 -3.5
v -6 2 -4.5
v -6 6 -3.5
v -6 7 -3.5
v -6 7 -4.5
v -5 0 0.5
v -5 0 -0.5
v -5 0 -1.5
v -5 1 0.5
v -5 1 -0.5
v -5 1 -1.5
v -5 2 -1.5
v -5 2 -2.5
v -5 2 -3.5
v -5 3 -1.5
v -5 3 -2.5
v -5 5 -1.5
v -5 5 -2.5
v -5 5 -3.5
v -4 0 2.5
v -4 0 1.5
v -4 0 0.5
v -4 1 2.5
v -4 1 1.5
v -4 1 0.5
v -4 2 0.5
v -4 2 -0.5
v -4 2 -1.5
v -4 3 0.5
v -4 3 -0.5
v -4 5 0.5
v -4 5 -1.5
v -3 1 2.5
v -3 1 -4.5
v -3 2 0.5
v -3 2 -4.5
v -3 5 0.5
v -3 5 -3.5
v -3 7 2.5
v -3 7 1.5
v -3 7 0.5
v -3 7 -3.5
v -2 0 5.5
v -2 0 2.5
v -2 1 5.5
v -2 1 2.5
v -1 7 2.5
v -1 7 1.5
v -1 15 1.5
v -1 16 2.5
v -1 16 1.5
v 0 7 1.5
v 0 7 -4.5
v 0 15 1.5
v 0 15 0.5
v 0 15 -2.5
v 0 16 2.5
v 0 16 1.5
v 0 16 -2.5
v 0 16 -3.5
v 0 17 2.5
v 0 17 1.5
v 0 17 -3.5
v 0 17 -4.5
v 1 15 1.5
v 1 15 0.5
v 1 15 -2.5
v 1 16 1.5
v 1 16 0.5
v 1 16 -2.5
v 4 16 1.5
v 4 16 -3.5
v 4 17 1.5
v 4 17 0.5
v 4 17 -1.5
v 4 17 -2.5
v 4 17 -3.5
v 10 17 2.5
v 10 17 0.5
v 10 17 -0.5
v 10 17 -4.5
v 10 18 2.5
v 10 18 0.5
v 10 18 -0.5
v 10 18 -4.5
v -4 0 5.5
v -4 1 5.5
v -2 0 5.5
v -2 1 5.5
v -6 0 4.5
v -6 1 4.5
v -4 0 4.5
v -4 1 4.5
v -7 0 3.5
v -7 1 3.5
v -6 0 3.5
v -6 1 3.5
v -9 0 2.5
v -9 1 2.5
v -7 0 2.5
v -7 1 2.5
v -4 1 2.5
v -4 8 2.5
v -3 1 2.5
v -3 7 2.5
v -2 8 2.5
v -2 18 2.5
v -1 7 2.5
v -1 16 2.5
v 0 16 2.5
v 0 17 2.5
v 10 17 2.5
v 10 18 2.5
v -10 0 1.5
v -10 1 1.5
v -9 0 1.5
v -9 1 1.5
v -1 7 1.5
v -1 15 1.5
v -1 16 1.5
v 0 7 1.5
v 0 15 1.5
v 0 16 1.5
v 0 17 1.5
v 1 15 1.5
v 1 16 1.5
v 1 17 1.5
v 4 16 1.5
v 4 17 1.5
v -5 1 0.5
v -5 3 0.5
v -5 8 0.5
v -4 1 0.5
v -4 3 0.5
v -4 8 0.5
v -6 1 -1.5
v -6 3 -1.5
v -6 8 -1.5
v -5 1 -1.5
v -5 3 -1.5
v -5 8 -1.5
v -7 1 -3.5
v -7 8 -3.5
v -6 1 -3.5
v -6 6 -3.5
v -6 8 -3.5
v -4 0 2.5
v -4 1 2.5
v -3 1 2.5
v -2 0 2.5
v -2 1 2.5
v -5 0 0.5
v -5 1 0.5
v -4 0 0.5
v -4 1 0.5
v -4 2 0.5
v -4 3 0.5
v -4 5 0.5
v -3 2 0.5
v -3 5 0.5
v -6 0 -1.5
v -6 1 -1.5
v -5 0 -1.5
v -5 1 -1.5
v -5 2 -1.5
v -5 3 -1.5
v -5 5 -1.5
v -4 2 -1.5
v -4 5 -1.5
v 0 15 -2.5
v 0 16 -2.5
v 1 15 -2.5
v 1 16 -2.5
v -7 0 -3.5
v -7 1 -3.5
v -6 0 -3.5
v -6 1 -3.5
v -6 2 -3.5
v -6 6 -3.5
v -6 7 -3.5
v -5 2 -3.5
v -5 5 -3.5
v -5 6 -3.5
v -3 5 -3.5
v -3 7 -3.5
v 0 16 -3.5
v 0 17 -3.5
v 4 16 -3.5
v 4 17 -3.5
v -10 0 -4.5
v -10 1 -4.5
v -9 0 -4.5
v -9 1 -4.5
v -7 1 -4.5
v -7 8 -4.5
v -6 2 -4.5
v -6 7 -4.5
v -3 1 -4.5
v -3 2 -4.5
v -2 8 -4.5
v -2 18 -4.5
v 0 7 -4.5
v 0 17 -4.5
v 10 17 -4.5
v 10 18 -4.5
v -9 0 -5.5
v -9 1 -5.5
v -7 0 -5.5
v -7 1 -5.5
v -4 0 5.5
v -2 0 5.5
v -6 0 4.5
v -4 0 4.5
v -7 0 3.5
v -6 0 3.5
v -9 0 2.5
v -7 0 2.5
v -4 0 2.5
v -2 0 2.5
v -10 0 1.5
v -9 0 1.5
v -7 0 1.5
v -4 0 1.5
v -7 0 0.5
v -6 0 0.5
v -5 0 0.5
v -4 0 0.5
v -6 0 -0.5
v -5 0 -0.5
v -6 0 -1.5
v -5 0 -1.5
v -7 0 -2.5
v -6 0 -2.5
v -7 0 -3.5
v -6 0 -3.5
v -10 0 -4.5
v -9 0 -4.5
v -9 0 -5.5
v -7 0 -5.5
v -4 1 2.5
v -3 1 2.5
v -4 1 1.5
v -5 1 0.5
v -4 1 0.5
v -5 1 -0.5
v -4 1 -0.5
v -6 1 -1.5
v -5 1 -1.5
v -6 1 -2.5
v -5 1 -2.5
v -7 1 -3.5
v -6 1 -3.5
v -5 1 -3.5
v -7 1 -4.5
v -3 1 -4.5
v -4 5 0.5
v -3 5 0.5
v -5 5 -1.5
v -4 5 -1.5
v -5 5 -2.5
v -5 5 -3.5
v -3 5 -3.5
v -3 7 2.5
v -1 7 2.5
v -3 7 1.5
v -2 7 1.5
v -1 7 1.5
v 0 7 1.5
v -3 7 0.5
v -2 7 0.5
v -2 7 -2.5
v -1 7 -2.5
v -6 7 -3.5
v -3 7 -3.5
v -2 7 -3.5
v -1 7 -3.5
v -6 7 -4.5
v 0 7 -4.5
v 0 15 1.5
v 1 15 1.5
v 0 15 0.5
v 1 15 0.5
v 0 15 -2.5
v 1 15 -2.5
v -1 16 2.5
v 0 16 2.5
v -1 16 1.5
v 0 16 1.5
v 1 16 1.5
v 4 16 1.5
v 1 16 0.5
v 0 16 -2.5
v 1 16 -2.5
v 0 16 -3.5
v 4 16 -3.5
v 0 17 2.5
v 10 17 2.5
v 0 17 1.5
v 1 17 1.5
v 4 17 1.5
v 9 17 1.5
v 4 17 0.5
v 9 17 0.5
v 10 17 0.5
v 9 17 -0.5
v 10 17 -0.5
v 4 17 -1.5
v 5 17 -1.5
v 4 17 -2.5
v 5 17 -2.5
v 0 17 -3.5
v 4 17 -3.5
v 0 17 -4.5
v 10 17 -4.5
v -4 1 5.5
v -2 1 5.5
v -6 1 4.5
v -4 1 4.5
v -7 1 3.5
v -6 1 3.5
v -9 1 2.5
v -7 1 2.5
v -4 1 2.5
v -3 1 2.5
v -2 1 2.5
v -10 1 1.5
v -9 1 1.5
v -7 1 1.5
v -4 1 1.5
v -7 1 0.5
v -6 1 0.5
v -5 1 0.5
v -4 1 0.5
v -6 1 -0.5
v -5 1 -0.5
v -6 1 -1.5
v -5 1 -1.5
v -7 1 -2.5
v -6 1 -2.5
v -7 1 -3.5
v -6 1 -3.5
v -10 1 -4.5
v -9 1 -4.5
v -7 1 -4.5
v -9 1 -5.5
v -7 1 -5.5
v -4 2 0.5
v -3 2 0.5
v -4 2 -0.5
v -5 2 -1.5
v -4 2 -1.5
v -5 2 -2.5
v -6 2 -3.5
v -5 2 -3.5
v -6 2 -4.5
v -3 2 -4.5
v -4 8 2.5
v -2 8 2.5
v -3 8 1.5
v -2 8 1.5
v -5 8 0.5
v -4 8 0.5
v -3 8 0.5
v -2 8 0.5
v -6 8 -1.5
v -5 8 -1.5
v -6 8 -2.5
v -5 8 -2.5
v -7 8 -3.5
v -6 8 -3.5
v -7 8 -4.5
v -2 8 -4.5
v -2 18 2.5
v 10 18 2.5
v 4 18 1.5
v 9 18 1.5
v -2 18 0.5
v -1 18 0.5
v 4 18 0.5
v 9 18 0.5
v 10 18 0.5
v -2 18 -0.5
v -1 18 -0.5
v 9 18 -0.5
v 10 18 -0.5
v 0 18 -1.5
v 5 18 -1.5
v -2 18 -2.5
v -1 18 -2.5
v 0 18 -2.5
v 5 18 -2.5
v -2 18 -3.5
v -1 18 -3.5
v -2 18 -4.5
v 10 18 -4.5

# faces
f 3/2/1 2/2/1 1/2/1
f 4/2/1 2/2/1 3/2/1
f 9/2/1 6/2/1 5/2/1
f 10/2/1 6/2/1 9/2/1
f 11/2/1 8/2/1 7/2/1
f 12/2/1 8/2/1 11/2/1
f 15/2/1 14/2/1 13/2/1
f 16/2/1 14/2/1 15/2/1
f 19/2/1 18/2/1 17/2/1
f 20/2/1 18/2/1 19/2/1
f 23/2/1 22/2/1 21/2/1
f 24/2/1 22/2/1 23/2/1
f 28/2/1 26/2/1 25/2/1
f 29/3/1 27/3/1 26/3/1
f 29/2/1 26/2/1 28/2/1
f 30/1/1 29/1/1 28/1/1
f 30/3/1 27/3/1 29/3/1
f 31/3/1 27/3/1 30/3/1
f 32/1/1 30/1/1 28/1/1
f 33/2/1 31/2/1 30/2/1
f 33/1/1 30/1/1 32/1/1
f 34/2/1 31/2/1 33/2/1
f 38/1/1 36/1/1 35/1/1
f 39/2/1 37/2/1 36/2/1
f 39/1/1 36/1/1 38/1/1
f 40/2/1 37/2/1 39/2/1
f 41/2/1 39/2/1 38/2/1
f 41/2/1 40/2/1 39/2/1
f 42/2/1 40/2/1 41/2/1
f 45/2/1 44/2/1 43/2/1
f 46/2/1 44/2/1 45/2/1
f 50/2/1 49/2/1 48/2/1
f 50/2/1 48/2/1 47/2/1
f 51/2/1 50/2/1 47/2/1
f 52/2/1 50/2/1 51/2/1
f 57/2/1 54/2/1 53/2/1
f 57/3/1 55/3/1 54/3/1
f 58/2/1 56/2/1 55/2/1
f 58/3/1 55/3/1 57/3/1
f 59/2/1 56/2/1 58/2/1
f 60/2/1 56/2/1 59/2/1
f 61/2/1 58/2/1 57/2/1
f 61/2/1 59/2/1 58/2/1
f 62/2/1 59/2/1 61/2/1
f 63/2/1 57/2/1 53/2/1
f 63/2/1 61/2/1 57/2/1
f 64/1/1 62/1/1 61/1/1
f 64/2/1 61/2/1 63/2/1
f 65/2/1 59/2/1 62/2/1
f 65/1/1 62/1/1 64/1/1
f 66/3/1 60/3/1 59/3/1
f 66/2/1 59/2/1 65/2/1
f 67/2/1 56/2/1 60/2/1
f 67/3/1 60/3/1 66/3/1
f 68/2/1 56/2/1 67/2/1
f 69/2/2 70/2/2 71/2/2
f 71/2/2 70/2/2 72/2/2
f 72/2/2 70/2/2 73/2/2
f 74/2/2 75/2/2 77/2/2
f 75/3/2 76/3/2 78/3/2
f 77/2/2 75/2/2 78/2/2
f 78/3/2 76/3/2 79/3/2
f 80/2/2 81/2/2 82/2/2
f 82/2/2 81/2/2 83/2/2
f 83/2/2 81/2/2 84/2/2
f 85/1/2 86/1/2 88/1/2
f 86/2/2 87/2/2 89/2/2
f 88/1/2 86/1/2 89/1/2
f 89/2/2 87/2/2 90/2/2
f 91/2/2 92/2/2 94/2/2
f 92/3/2 93/3/2 95/3/2
f 94/2/2 92/2/2 95/2/2
f 94/1/2 95/1/2 96/1/2
f 95/3/2 93/3/2 97/3/2
f 96/1/2 95/1/2 97/1/2
f 97/3/2 93/3/2 98/3/2
f 99/2/2 100/2/2 102/2/2
f 100/1/2 101/1/2 103/1/2
f 102/2/2 100/2/2 103/2/2
f 103/1/2 101/1/2 104/1/2
f 105/1/2 106/1/2 108/1/2
f 106/2/2 107/2/2 109/2/2
f 108/1/2 106/1/2 109/1/2
f 108/2/2 109/2/2 110/2/2
f 109/2/2 107/2/2 111/2/2
f 110/2/2 109/2/2 111/2/2
f 112/2/2 113/2/2 114/2/2
f 114/2/2 113/2/2 115/2/2
f 112/2/2 114/2/2 116/2/2
f 112/2/2 116/2/2 118/2/2
f 116/2/2 117/2/2 118/2/2
f 118/2/2 117/2/2 119/2/2
f 119/2/2 117/2/2 120/2/2
f 120/2/2 117/2/2 121/2/2
f 122/2/2 123/2/2 124/2/2
f 124/2/2 123/2/2 125/2/2
f 126/2/2 127/2/2 128/2/2
f 126/2/2 128/2/2 129/2/2
f 129/2/2 128/2/2 130/2/2
f 131/2/2 132/2/2 133/2/2
f 133/2/2 132/2/2 134/2/2
f 134/2/2 132/2/2 135/2/2
f 135/2/2 132/2/2 138/2/2
f 138/2/2 132/2/2 139/2/2
f 136/2/2 137/2/2 140/2/2
f 140/2/2 137/2/2 141/2/2
f 139/2/2 132/2/2 142/2/2
f 142/2/2 132/2/2 143/2/2
f 144/3/2 145/3/2 147/3/2
f 145/2/2 146/2/2 148/2/2
f 147/3/2 145/3/2 148/3/2
f 148/2/2 146/2/2 149/2/2
f 150/2/2 151/2/2 152/2/2
f 152/2/2 151/2/2 153/2/2
f 153/2/2 151/2/2 154/2/2
f 154/2/2 151/2/2 155/2/2
f 155/2/2 151/2/2 156/2/2
f 157/2/2 158/2/2 161/2/2
f 158/1/2 159/1/2 162/1/2
f 161/2/2 158/2/2 162/2/2
f 159/2/2 160/2/2 163/2/2
f 162/1/2 159/1/2 163/1/2
f 163/2/2 160/2/2 164/2/2
f 167/2/3 166/2/3 165/2/3
f 168/2/3 166/2/3 167/2/3
f 171/2/3 170/2/3 169/2/3
f 172/2/3 170/2/3 171/2/3
f 175/2/3 174/2/3 173/2/3
f 176/2/3 174/2/3 175/2/3
f 179/2/3 178/2/3 177/2/3
f 180/2/3 178/2/3 179/2/3
f 183/2/3 182/2/3 181/2/3
f 184/2/3 182/2/3 183/2/3
f 185/2/3 182/2/3 184/2/3
f 187/2/3 185/2/3 184/2/3
f 187/2/3 186/2/3 185/2/3
f 188/2/3 186/2/3 187/2/3
f 189/2/3 186/2/3 188/2/3
f 190/2/3 186/2/3 189/2/3
f 191/2/3 186/2/3 190/2/3
f 192/2/3 186/2/3 191/2/3
f 195/2/3 194/2/3 193/2/3
f 196/2/3 194/2/3 195/2/3
f 200/2/3 198/2/3 197/2/3
f 201/3/3 199/3/3 198/3/3
f 201/2/3 198/2/3 200/2/3
f 202/3/3 199/3/3 201/3/3
f 204/3/3 203/3/3 202/3/3
f 204/3/3 202/3/3 201/3/3
f 205/3/3 203/3/3 204/3/3
f 206/3/3 203/3/3 205/3/3
f 207/2/3 206/2/3 205/2/3
f 208/2/3 206/2/3 207/2/3
f 212/1/3 210/1/3 209/1/3
f 213/2/3 211/2/3 210/2/3
f 213/1/3 210/1/3 212/1/3
f 214/2/3 211/2/3 213/2/3
f 218/2/3 216/2/3 215/2/3
f 219/1/3 217/1/3 216/1/3
f 219/2/3 216/2/3 218/2/3
f 220/1/3 217/1/3 219/1/3
f 223/2/3 222/2/3 221/2/3
f 224/2/3 222/2/3 223/2/3
f 225/2/3 222/2/3 224/2/3
f 226/2/4 227/2/4 228/2/4
f 226/2/4 228/2/4 229/2/4
f 229/2/4 228/2/4 230/2/4
f 231/1/4 232/1/4 233/1/4
f 233/1/4 232/1/4 234/1/4
f 236/2/4 237/2/4 238/2/4
f 235/2/4 236/2/4 238/2/4
f 238/2/4 237/2/4 239/2/4
f 240/2/4 241/2/4 242/2/4
f 242/2/4 241/2/4 243/2/4
f 245/2/4 246/2/4 247/2/4
f 244/2/4 245/2/4 247/2/4
f 247/2/4 246/2/4 248/2/4
f 249/2/4 250/2/4 251/2/4
f 251/2/4 250/2/4 252/2/4
f 253/3/4 254/3/4 255/3/4
f 255/3/4 254/3/4 256/3/4
f 257/3/4 258/3/4 260/3/4
f 260/3/4 258/3/4 261/3/4
f 258/2/4 259/2/4 262/2/4
f 261/3/4 258/3/4 262/3/4
f 261/2/4 262/2/4 263/2/4
f 262/2/4 259/2/4 264/2/4
f 263/2/4 262/2/4 264/2/4
f 265/2/4 266/2/4 267/2/4
f 267/2/4 266/2/4 268/2/4
f 269/2/4 270/2/4 271/2/4
f 271/2/4 270/2/4 272/2/4
f 273/2/4 274/2/4 275/2/4
f 275/2/4 274/2/4 276/2/4
f 273/2/4 275/2/4 277/2/4
f 277/2/4 275/2/4 278/2/4
f 276/2/4 274/2/4 279/2/4
f 276/2/4 279/2/4 281/2/4
f 279/2/4 280/2/4 281/2/4
f 281/2/4 280/2/4 282/2/4
f 282/2/4 280/2/4 283/2/4
f 283/2/4 280/2/4 284/2/4
f 285/2/4 286/2/4 287/2/4
f 287/2/4 286/2/4 288/2/4
f 292/2/5 290/2/5 289/2/5
f 294/2/5 292/2/5 291/2/5
f 296/2/5 294/2/5 293/2/5
f 297/2/5 290/2/5 292/2/5
f 297/2/5 292/2/5 294/2/5
f 297/2/5 294/2/5 296/2/5
f 298/2/5 290/2/5 297/2/5
f 300/2/5 296/2/5 295/2/5
f 300/2/5 297/2/5 296/2/5
f 301/2/5 297/2/5 300/2/5
f 302/2/5 297/2/5 301/2/5
f 303/2/5 300/2/5 299/2/5
f 303/2/5 301/2/5 300/2/5
f 303/1/5 302/1/5 301/1/5
f 304/1/5 302/1/5 303/1/5
f 305/1/5 302/1/5 304/1/5
f 306/1/5 302/1/5 305/1/5
f 307/2/5 304/2/5 303/2/5
f 307/1/5 305/1/5 304/1/5
f 308/1/5 305/1/5 307/1/5
f 309/2/5 307/2/5 303/2/5
f 309/2/5 308/2/5 307/2/5
f 310/2/5 308/2/5 309/2/5
f 311/2/5 303/2/5 299/2/5
f 311/2/5 309/2/5 303/2/5
f 312/2/5 309/2/5 311/2/5
f 313/2/5 311/2/5 299/2/5
f 313/3/5 312/3/5 311/3/5
f 314/3/5 312/3/5 313/3/5
f 315/2/5 313/2/5 299/2/5
f 316/2/5 313/2/5 315/2/5
f 317/2/5 313/2/5 316/2/5
f 318/2/5 313/2/5 317/2/5
f 321/2/5 320/2/5 319/2/5
f 323/2/5 320/2/5 321/2/5
f 324/1/5 323/1/5 322/1/5
f 325/2/5 320/2/5 323/2/5
f 325/1/5 323/1/5 324/1/5
f 327/2/5 325/2/5 324/2/5
f 328/2/5 327/2/5 326/2/5
f 329/2/5 325/2/5 327/2/5
f 329/2/5 327/2/5 328/2/5
f 331/3/5 329/3/5 328/3/5
f 332/2/5 325/2/5 329/2/5
f 332/3/5 329/3/5 331/3/5
f 333/2/5 331/2/5 330/2/5
f 333/2/5 332/2/5 331/2/5
f 334/2/5 320/2/5 325/2/5
f 334/2/5 332/2/5 333/2/5
f 334/2/5 325/2/5 332/2/5
f 338/2/5 336/2/5 335/2/5
f 339/2/5 338/2/5 337/2/5
f 340/2/5 338/2/5 339/2/5
f 341/2/5 336/2/5 338/2/5
f 341/2/5 338/2/5 340/2/5
f 344/2/5 343/2/5 342/2/5
f 345/2/5 343/2/5 344/2/5
f 346/2/5 343/2/5 345/2/5
f 348/3/5 345/3/5 344/3/5
f 349/2/5 347/2/5 346/2/5
f 349/3/5 345/3/5 348/3/5
f 349/2/5 346/2/5 345/2/5
f 350/2/5 349/2/5 348/2/5
f 350/2/5 347/2/5 349/2/5
f 351/2/5 347/2/5 350/2/5
f 353/2/5 350/2/5 348/2/5
f 354/3/5 351/3/5 350/3/5
f 354/2/5 350/2/5 353/2/5
f 355/2/5 347/2/5 351/2/5
f 355/3/5 351/3/5 354/3/5
f 356/2/5 354/2/5 353/2/5
f 356/2/5 353/2/5 352/2/5
f 356/2/5 355/2/5 354/2/5
f 357/2/5 347/2/5 355/2/5
f 357/2/5 355/2/5 356/2/5
f 360/3/5 359/3/5 358/3/5
f 361/3/5 359/3/5 360/3/5
f 362/2/5 361/2/5 360/2/5
f 363/2/5 361/2/5 362/2/5
f 366/2/5 365/2/5 364/2/5
f 367/2/5 365/2/5 366/2/5
f 370/2/5 369/2/5 368/2/5
f 372/2/5 369/2/5 370/2/5
f 373/2/5 372/2/5 371/2/5
f 374/2/5 369/2/5 372/2/5
f 374/2/5 372/2/5 373/2/5
f 377/2/5 376/2/5 375/2/5
f 378/2/5 376/2/5 377/2/5
f 379/2/5 376/2/5 378/2/5
f 380/2/5 376/2/5 379/2/5
f 381/3/5 380/3/5 379/3/5
f 382/2/5 376/2/5 380/2/5
f 382/3/5 380/3/5 381/3/5
f 383/2/5 376/2/5 382/2/5
f 384/2/5 382/2/5 381/2/5
f 384/1/5 383/1/5 382/1/5
f 385/1/5 383/1/5 384/1/5
f 386/2/5 384/2/5 381/2/5
f 386/2/5 385/2/5 384/2/5
f 387/2/5 385/2/5 386/2/5
f 388/1/5 387/1/5 386/1/5
f 389/2/5 385/2/5 387/2/5
f 389/1/5 387/1/5 388/1/5
f 391/2/5 389/2/5 388/2/5
f 392/2/5 391/2/5 390/2/5
f 393/2/5 385/2/5 389/2/5
f 393/2/5 391/2/5 392/2/5
f 393/2/5 389/2/5 391/2/5
f 394/2/6 395/2/6 397/2/6
f 396/2/6 397/2/6 399/2/6
f 398/2/6 399/2/6 401/2/6
f 397/2/6 395/2/6 402/2/6
f 399/2/6 397/2/6 402/2/6
f 401/2/6 399/2/6 402/2/6
f 402/2/6 395/2/6 403/2/6
f 403/2/6 395/2/6 404/2/6
f 400/2/6 401/2/6 406/2/6
f 401/2/6 402/2/6 406/2/6
f 406/2/6 402/2/6 407/2/6
f 407/2/6 402/2/6 408/2/6
f 405/2/6 406/2/6 409/2/6
f 406/2/6 407/2/6 409/2/6
f 407/1/6 408/1/6 409/1/6
f 409/1/6 408/1/6 410/1/6
f 410/1/6 408/1/6 411/1/6
f 411/1/6 408/1/6 412/1/6
f 409/2/6 410/2/6 413/2/6
f 410/1/6 411/1/6 413/1/6
f 413/1/6 411/1/6 414/1/6
f 409/2/6 413/2/6 415/2/6
f 413/2/6 414/2/6 415/2/6
f 415/2/6 414/2/6 416/2/6
f 405/2/6 409/2/6 417/2/6
f 409/2/6 415/2/6 417/2/6
f 417/2/6 415/2/6 418/2/6
f 405/2/6 417/2/6 419/2/6
f 417/3/6 418/3/6 419/3/6
f 419/3/6 418/3/6 420/3/6
f 405/2/6 419/2/6 421/2/6
f 421/2/6 419/2/6 422/2/6
f 422/2/6 419/2/6 423/2/6
f 422/2/6 423/2/6 424/2/6
f 424/2/6 423/2/6 425/2/6
f 426/2/6 427/2/6 428/2/6
f 428/2/6 427/2/6 430/2/6
f 429/2/6 430/2/6 431/2/6
f 431/2/6 430/2/6 433/2/6
f 432/2/6 433/2/6 434/2/6
f 430/2/6 427/2/6 435/2/6
f 434/2/6 433/2/6 435/2/6
f 433/2/6 430/2/6 435/2/6
f 436/2/6 437/2/6 438/2/6
f 438/2/6 437/2/6 439/2/6
f 436/2/6 438/2/6 441/2/6
f 438/3/6 439/3/6 442/3/6
f 441/2/6 438/2/6 442/2/6
f 442/3/6 439/3/6 443/3/6
f 440/2/6 441/2/6 445/2/6
f 441/2/6 442/2/6 445/2/6
f 442/2/6 443/2/6 445/2/6
f 444/1/6 445/1/6 446/1/6
f 445/2/6 443/2/6 447/2/6
f 446/1/6 445/1/6 447/1/6
f 446/2/6 447/2/6 449/2/6
f 448/2/6 449/2/6 450/2/6
f 447/2/6 443/2/6 451/2/6
f 450/2/6 449/2/6 451/2/6
f 449/2/6 447/2/6 451/2/6
f 452/2/6 453/2/6 454/2/6
f 454/2/6 453/2/6 455/2/6
f 452/2/6 454/2/6 456/2/6
f 456/2/6 454/2/6 457/2/6
f 454/3/6 455/3/6 458/3/6
f 457/2/6 454/2/6 458/2/6
f 455/2/6 453/2/6 459/2/6
f 458/3/6 455/3/6 459/3/6
f 459/2/6 453/2/6 460/2/6
f 456/1/6 457/1/6 461/1/6
f 457/2/6 458/2/6 462/2/6
f 461/1/6 457/1/6 462/1/6
f 458/2/6 459/2/6 462/2/6
f 459/1/6 460/1/6 463/1/6
f 462/2/6 459/2/6 463/2/6
f 463/1/6 460/1/6 464/1/6
f 461/2/6 462/2/6 465/2/6
f 462/2/6 463/2/6 465/2/6
f 463/2/6 464/2/6 465/2/6
f 465/2/6 464/2/6 466/2/6
f 461/2/6 465/2/6 467/2/6
f 467/2/6 465/2/6 468/2/6
f 465/1/6 466/1/6 469/1/6
f 468/2/6 465/2/6 469/2/6
f 466/2/6 464/2/6 470/2/6
f 469/1/6 466/1/6 470/1/6
f 467/3/6 468/3/6 471/3/6
f 468/2/6 469/2/6 472/2/6
f 471/3/6 468/3/6 472/3/6
f 469/2/6 470/2/6 472/2/6
f 471/2/6 472/2/6 473/2/6
f 470/2/6 464/2/6 474/2/6
f 473/2/6 472/2/6 474/2/6
f 472/2/6 470/2/6 474/2/6
