# MagicaVoxel @ Ephtracy

# group
g ice_sasum

# material
mtllib ice_sasum.mtl
usemtl palette

# normals
vn -1 0 0
vn 1 0 0
vn 0 0 1
vn 0 0 -1
vn 0 -1 0
vn 0 1 0

# texcoords
vt 0.369141 0.5
vt 0.373047 0.5
vt 0.896484 0.5
vt 0.962891 0.5
vt 0.966797 0.5
vt 0.970703 0.5
vt 0.994141 0.5

# verts
v -8 35 6
v -8 35 5
v -8 40 6
v -8 40 5
v -7 29 5
v -7 29 4
v -7 32 5
v -7 32 4
v -6 2 8
v -6 2 5
v -6 2 -12
v -6 2 -15
v -6 8 8
v -6 8 5
v -6 8 -12
v -6 8 -15
v -6 10 5
v -6 10 -12
v -6 21 8
v -6 21 -15
v -6 29 6
v -6 29 5
v -6 31 6
v -6 31 5
v -6 32 6
v -6 32 5
v -5 21 8
v -5 21 -15
v -5 22 8
v -5 22 -15
v -4 24 13
v -4 24 4
v -4 25 4
v -4 25 3
v -4 29 6
v -4 29 5
v -4 29 4
v -4 31 13
v -4 31 6
v -4 31 4
v -4 31 3
v -4 32 6
v -4 32 5
v -4 33 6
v -4 33 5
v -4 35 6
v -4 35 5
v -4 36 6
v -4 36 5
v -4 39 6
v -4 39 5
v -3 22 9
v -3 22 8
v -3 22 5
v -3 24 9
v -3 24 5
v -3 24 4
v -3 24 3
v -3 25 4
v -3 25 3
v -3 31 13
v -3 31 6
v -3 31 4
v -3 31 3
v -3 32 13
v -3 32 6
v -3 32 4
v -3 32 3
v -2 25 15
v -2 25 13
v -2 26 16
v -2 26 15
v -2 28 16
v -2 28 13
v -1 21 -15
v -1 21 -17
v -1 22 -15
v -1 23 -15
v -1 23 -17
v -1 24 14
v -1 24 13
v -1 25 16
v -1 25 15
v -1 25 14
v -1 25 13
v -1 26 16
v -1 26 15
v -1 28 16
v -1 28 13
v -1 29 16
v -1 29 13
v 2 34 6
v 2 34 5
v 2 35 6
v 2 35 5
v 3 2 8
v 3 2 5
v 3 2 -12
v 3 2 -15
v 3 8 8
v 3 8 5
v 3 8 -12
v 3 8 -15
v 3 10 7
v 3 10 5
v 3 10 -12
v 3 10 -14
v 3 11 8
v 3 11 7
v 3 11 -14
v 3 11 -15
v 3 32 6
v 3 32 5
v 3 33 6
v 3 33 5
v 3 34 6
v 3 34 5
v 3 35 6
v 3 35 5
v 3 36 6
v 3 36 5
v 3 39 6
v 3 39 5
v 7 36 6
v 7 36 5
v 7 40 6
v 7 40 5
v -7 36 6
v -7 36 5
v -7 40 6
v -7 40 5
v -3 2 8
v -3 2 5
v -3 2 -12
v -3 2 -15
v -3 8 8
v -3 8 5
v -3 8 -12
v -3 8 -15
v -3 10 7
v -3 10 5
v -3 10 -12
v -3 10 -14
v -3 11 8
v -3 11 7
v -3 11 -14
v -3 11 -15
v -3 32 6
v -3 32 5
v -3 33 6
v -3 33 5
v -3 34 6
v -3 34 5
v -3 35 6
v -3 35 5
v -3 36 6
v -3 36 5
v -3 39 6
v -3 39 5
v -2 34 6
v -2 34 5
v -2 35 6
v -2 35 5
v 1 21 -15
v 1 21 -17
v 1 22 -15
v 1 23 -15
v 1 23 -17
v 1 24 14
v 1 24 13
v 1 25 16
v 1 25 15
v 1 25 14
v 1 25 13
v 1 26 16
v 1 26 15
v 1 28 16
v 1 28 13
v 1 29 16
v 1 29 13
v 2 25 15
v 2 25 13
v 2 26 16
v 2 26 15
v 2 28 16
v 2 28 13
v 3 22 9
v 3 22 8
v 3 22 5
v 3 24 9
v 3 24 5
v 3 24 4
v 3 24 3
v 3 25 4
v 3 25 3
v 3 31 13
v 3 31 6
v 3 31 4
v 3 31 3
v 3 32 13
v 3 32 6
v 3 32 4
v 3 32 3
v 4 24 13
v 4 24 4
v 4 25 4
v 4 25 3
v 4 29 6
v 4 29 5
v 4 29 4
v 4 31 13
v 4 31 6
v 4 31 4
v 4 31 3
v 4 32 6
v 4 32 5
v 4 33 6
v 4 33 5
v 4 35 6
v 4 35 5
v 4 36 6
v 4 36 5
v 4 39 6
v 4 39 5
v 5 21 8
v 5 21 -15
v 5 22 8
v 5 22 -15
v 6 2 8
v 6 2 5
v 6 2 -12
v 6 2 -15
v 6 8 8
v 6 8 5
v 6 8 -12
v 6 8 -15
v 6 10 5
v 6 10 -12
v 6 21 8
v 6 21 -15
v 6 29 6
v 6 29 5
v 6 31 6
v 6 31 5
v 6 32 6
v 6 32 5
v 7 29 5
v 7 29 4
v 7 32 5
v 7 32 4
v 8 35 6
v 8 35 5
v 8 40 6
v 8 40 5
v -2 26 16
v -2 28 16
v -1 25 16
v -1 26 16
v -1 27 16
v -1 28 16
v -1 29 16
v 1 25 16
v 1 26 16
v 1 27 16
v 1 28 16
v 1 29 16
v 2 26 16
v 2 28 16
v -2 25 15
v -2 26 15
v -1 25 15
v -1 26 15
v 1 25 15
v 1 26 15
v 2 25 15
v 2 26 15
v -1 24 14
v -1 25 14
v 1 24 14
v 1 25 14
v -4 24 13
v -4 31 13
v -3 28 13
v -3 29 13
v -3 31 13
v -3 32 13
v -2 25 13
v -2 28 13
v -2 29 13
v -1 24 13
v -1 25 13
v -1 28 13
v -1 29 13
v 1 24 13
v 1 25 13
v 1 28 13
v 1 29 13
v 2 25 13
v 2 28 13
v 2 29 13
v 3 28 13
v 3 29 13
v 3 31 13
v 3 32 13
v 4 24 13
v 4 31 13
v -3 22 9
v -3 24 9
v -2 22 9
v -2 24 9
v 2 22 9
v 2 24 9
v 3 22 9
v 3 24 9
v -6 2 8
v -6 8 8
v -6 21 8
v -5 21 8
v -5 22 8
v -3 2 8
v -3 8 8
v -3 11 8
v -3 16 8
v -3 22 8
v -2 16 8
v -2 22 8
v 2 16 8
v 2 22 8
v 3 2 8
v 3 8 8
v 3 11 8
v 3 16 8
v 3 22 8
v 5 21 8
v 5 22 8
v 6 2 8
v 6 8 8
v 6 21 8
v -3 10 7
v -3 11 7
v 3 10 7
v 3 11 7
v -8 35 6
v -8 40 6
v -7 36 6
v -7 40 6
v -6 29 6
v -6 31 6
v -6 32 6
v -5 35 6
v -5 36 6
v -4 29 6
v -4 31 6
v -4 32 6
v -4 33 6
v -4 35 6
v -4 36 6
v -4 39 6
v -3 31 6
v -3 32 6
v -3 33 6
v -3 34 6
v -3 35 6
v -3 36 6
v -3 39 6
v -2 34 6
v -2 35 6
v 2 34 6
v 2 35 6
v 3 31 6
v 3 32 6
v 3 33 6
v 3 34 6
v 3 35 6
v 3 36 6
v 3 39 6
v 4 29 6
v 4 31 6
v 4 32 6
v 4 33 6
v 4 35 6
v 4 36 6
v 4 39 6
v 5 35 6
v 5 36 6
v 6 29 6
v 6 31 6
v 6 32 6
v 7 36 6
v 7 40 6
v 8 35 6
v 8 40 6
v -7 29 5
v -7 32 5
v -6 29 5
v -6 31 5
v -6 32 5
v 6 29 5
v 6 31 5
v 6 32 5
v 7 29 5
v 7 32 5
v -6 2 -12
v -6 8 -12
v -6 10 -12
v -3 2 -12
v -3 8 -12
v -3 10 -12
v 3 2 -12
v 3 8 -12
v 3 10 -12
v 6 2 -12
v 6 8 -12
v 6 10 -12
v -1 22 -15
v -1 23 -15
v 1 22 -15
v 1 23 -15
v -8 35 5
v -8 40 5
v -7 36 5
v -7 40 5
v -6 2 5
v -6 8 5
v -6 10 5
v -5 35 5
v -5 36 5
v -4 32 5
v -4 33 5
v -4 35 5
v -4 36 5
v -4 39 5
v -3 2 5
v -3 8 5
v -3 10 5
v -3 22 5
v -3 24 5
v -3 32 5
v -3 33 5
v -3 34 5
v -3 35 5
v -3 36 5
v -3 39 5
v -2 34 5
v -2 35 5
v 2 34 5
v 2 35 5
v 3 2 5
v 3 8 5
v 3 10 5
v 3 22 5
v 3 24 5
v 3 32 5
v 3 33 5
v 3 34 5
v 3 35 5
v 3 36 5
v 3 39 5
v 4 32 5
v 4 33 5
v 4 35 5
v 4 36 5
v 4 39 5
v 5 35 5
v 5 36 5
v 6 2 5
v 6 8 5
v 6 10 5
v 7 36 5
v 7 40 5
v 8 35 5
v 8 40 5
v -7 29 4
v -7 32 4
v -4 24 4
v -4 25 4
v -4 29 4
v -4 31 4
v -3 24 4
v -3 25 4
v -3 31 4
v -3 32 4
v 3 24 4
v 3 25 4
v 3 31 4
v 3 32 4
v 4 24 4
v 4 25 4
v 4 29 4
v 4 31 4
v 7 29 4
v 7 32 4
v -4 25 3
v -4 31 3
v -3 24 3
v -3 25 3
v -3 31 3
v -3 32 3
v 3 24 3
v 3 25 3
v 3 31 3
v 3 32 3
v 4 25 3
v 4 31 3
v -3 10 -14
v -3 11 -14
v 3 10 -14
v 3 11 -14
v -6 2 -15
v -6 8 -15
v -6 21 -15
v -5 21 -15
v -5 22 -15
v -3 2 -15
v -3 8 -15
v -3 11 -15
v -3 18 -15
v -2 18 -15
v -2 19 -15
v -1 17 -15
v -1 19 -15
v -1 20 -15
v -1 21 -15
v -1 22 -15
v 1 17 -15
v 1 19 -15
v 1 20 -15
v 1 21 -15
v 1 22 -15
v 2 18 -15
v 2 19 -15
v 3 2 -15
v 3 8 -15
v 3 11 -15
v 3 18 -15
v 5 21 -15
v 5 22 -15
v 6 2 -15
v 6 8 -15
v 6 21 -15
v -1 21 -17
v -1 23 -17
v 1 21 -17
v 1 23 -17
v -6 2 8
v -3 2 8
v 3 2 8
v 6 2 8
v -6 2 5
v -3 2 5
v 3 2 5
v 6 2 5
v -6 2 -12
v -3 2 -12
v 3 2 -12
v 6 2 -12
v -6 2 -15
v -3 2 -15
v 3 2 -15
v 6 2 -15
v -3 10 7
v 3 10 7
v -6 10 5
v -3 10 5
v 3 10 5
v 6 10 5
v -6 10 -12
v -3 10 -12
v 3 10 -12
v 6 10 -12
v -3 10 -14
v 3 10 -14
v -3 11 8
v 3 11 8
v -3 11 7
v 3 11 7
v -3 11 -14
v 3 11 -14
v -3 11 -15
v 3 11 -15
v -1 21 -15
v 1 21 -15
v -1 21 -17
v 1 21 -17
v -3 22 9
v -2 22 9
v 2 22 9
v 3 22 9
v -3 22 8
v -2 22 8
v 2 22 8
v 3 22 8
v -1 24 14
v 1 24 14
v -4 24 13
v -1 24 13
v 1 24 13
v 4 24 13
v -1 24 12
v 1 24 12
v -2 24 11
v -1 24 11
v 1 24 11
v 2 24 11
v -3 24 9
v -2 24 9
v 2 24 9
v 3 24 9
v -3 24 5
v 3 24 5
v -4 24 4
v -3 24 4
v 3 24 4
v 4 24 4
v -3 24 3
v 3 24 3
v -1 25 16
v 1 25 16
v -2 25 15
v -1 25 15
v 1 25 15
v 2 25 15
v -1 25 14
v 1 25 14
v -2 25 13
v -1 25 13
v 1 25 13
v 2 25 13
v -4 25 4
v -3 25 4
v 3 25 4
v 4 25 4
v -4 25 3
v -3 25 3
v 3 25 3
v 4 25 3
v -2 26 16
v -1 26 16
v 1 26 16
v 2 26 16
v -2 26 15
v -1 26 15
v 1 26 15
v 2 26 15
v -6 29 6
v -4 29 6
v 4 29 6
v 6 29 6
v -7 29 5
v -6 29 5
v -4 29 5
v 4 29 5
v 6 29 5
v 7 29 5
v -7 29 4
v -4 29 4
v 4 29 4
v 7 29 4
v -3 34 6
v -2 34 6
v 2 34 6
v 3 34 6
v -3 34 5
v -2 34 5
v 2 34 5
v 3 34 5
v -8 35 6
v -5 35 6
v -4 35 6
v 4 35 6
v 5 35 6
v 8 35 6
v -8 35 5
v -5 35 5
v -4 35 5
v 4 35 5
v 5 35 5
v 8 35 5
v -6 21 8
v -5 21 8
v 5 21 8
v 6 21 8
v -6 21 -15
v -5 21 -15
v 5 21 -15
v 6 21 -15
v -5 22 8
v -3 22 8
v 3 22 8
v 5 22 8
v -3 22 5
v 3 22 5
v -5 22 -15
v -1 22 -15
v 1 22 -15
v 5 22 -15
v -1 23 -15
v 1 23 -15
v -1 23 -17
v 1 23 -17
v -2 28 16
v -1 28 16
v 1 28 16
v 2 28 16
v -2 28 13
v -1 28 13
v 1 28 13
v 2 28 13
v -1 29 16
v 1 29 16
v -1 29 13
v 1 29 13
v -4 31 13
v -3 31 13
v 3 31 13
v 4 31 13
v -4 31 6
v -3 31 6
v 3 31 6
v 4 31 6
v -4 31 4
v -3 31 4
v 3 31 4
v 4 31 4
v -4 31 3
v -3 31 3
v 3 31 3
v 4 31 3
v -3 32 13
v 3 32 13
v -6 32 6
v -4 32 6
v -3 32 6
v 3 32 6
v 4 32 6
v 6 32 6
v -7 32 5
v -6 32 5
v -4 32 5
v -3 32 5
v 3 32 5
v 4 32 5
v 6 32 5
v 7 32 5
v -7 32 4
v -3 32 4
v 3 32 4
v 7 32 4
v -3 32 3
v 3 32 3
v -3 35 6
v -2 35 6
v 2 35 6
v 3 35 6
v -3 35 5
v -2 35 5
v 2 35 5
v 3 35 5
v -7 36 6
v -5 36 6
v -4 36 6
v 4 36 6
v 5 36 6
v 7 36 6
v -7 36 5
v -5 36 5
v -4 36 5
v 4 36 5
v 5 36 5
v 7 36 5
v -4 39 6
v -3 39 6
v 3 39 6
v 4 39 6
v -4 39 5
v -3 39 5
v 3 39 5
v 4 39 5
v -8 40 6
v -7 40 6
v 7 40 6
v 8 40 6
v -8 40 5
v -7 40 5
v 7 40 5
v 8 40 5

# faces
f 3/4/1 2/4/1 1/4/1
f 4/4/1 2/4/1 3/4/1
f 7/2/1 6/2/1 5/2/1
f 8/2/1 6/2/1 7/2/1
f 13/1/1 10/1/1 9/1/1
f 14/1/1 10/1/1 13/1/1
f 15/1/1 12/1/1 11/1/1
f 16/1/1 12/1/1 15/1/1
f 17/2/1 14/2/1 13/2/1
f 18/2/1 16/2/1 15/2/1
f 19/2/1 17/2/1 13/2/1
f 19/2/1 18/2/1 17/2/1
f 20/2/1 16/2/1 18/2/1
f 20/2/1 18/2/1 19/2/1
f 23/3/1 22/3/1 21/3/1
f 24/3/1 22/3/1 23/3/1
f 25/2/1 24/2/1 23/2/1
f 26/2/1 24/2/1 25/2/1
f 29/2/1 28/2/1 27/2/1
f 30/2/1 28/2/1 29/2/1
f 33/2/1 32/2/1 31/2/1
f 35/2/1 33/2/1 31/2/1
f 35/2/1 34/2/1 33/2/1
f 36/2/1 34/2/1 35/2/1
f 37/2/1 34/2/1 36/2/1
f 38/2/1 35/2/1 31/2/1
f 39/2/1 35/2/1 38/2/1
f 40/2/1 34/2/1 37/2/1
f 41/2/1 34/2/1 40/2/1
f 44/6/1 43/6/1 42/6/1
f 45/6/1 43/6/1 44/6/1
f 46/5/1 45/5/1 44/5/1
f 47/5/1 45/5/1 46/5/1
f 50/4/1 49/4/1 48/4/1
f 51/4/1 49/4/1 50/4/1
f 55/2/1 53/2/1 52/2/1
f 55/2/1 54/2/1 53/2/1
f 56/2/1 54/2/1 55/2/1
f 59/2/1 58/2/1 57/2/1
f 60/2/1 58/2/1 59/2/1
f 65/2/1 62/2/1 61/2/1
f 66/2/1 62/2/1 65/2/1
f 67/2/1 64/2/1 63/2/1
f 68/2/1 64/2/1 67/2/1
f 72/2/1 70/2/1 69/2/1
f 73/2/1 72/2/1 71/2/1
f 74/2/1 70/2/1 72/2/1
f 74/2/1 72/2/1 73/2/1
f 77/2/1 76/2/1 75/2/1
f 78/2/1 76/2/1 77/2/1
f 79/2/1 76/2/1 78/2/1
f 84/2/1 81/2/1 80/2/1
f 85/2/1 81/2/1 84/2/1
f 86/2/1 83/2/1 82/2/1
f 87/2/1 83/2/1 86/2/1
f 90/2/1 89/2/1 88/2/1
f 91/2/1 89/2/1 90/2/1
f 94/5/1 93/5/1 92/5/1
f 95/5/1 93/5/1 94/5/1
f 100/1/1 97/1/1 96/1/1
f 101/1/1 97/1/1 100/1/1
f 102/1/1 99/1/1 98/1/1
f 103/1/1 99/1/1 102/1/1
f 104/2/1 101/2/1 100/2/1
f 105/2/1 101/2/1 104/2/1
f 106/2/1 103/2/1 102/2/1
f 107/2/1 103/2/1 106/2/1
f 108/2/1 104/2/1 100/2/1
f 109/2/1 104/2/1 108/2/1
f 110/2/1 103/2/1 107/2/1
f 111/2/1 103/2/1 110/2/1
f 114/6/1 113/6/1 112/6/1
f 115/6/1 113/6/1 114/6/1
f 116/5/1 115/5/1 114/5/1
f 117/5/1 115/5/1 116/5/1
f 120/5/1 119/5/1 118/5/1
f 121/5/1 119/5/1 120/5/1
f 122/4/1 121/4/1 120/4/1
f 123/4/1 121/4/1 122/4/1
f 126/4/1 125/4/1 124/4/1
f 127/4/1 125/4/1 126/4/1
f 128/4/2 129/4/2 130/4/2
f 130/4/2 129/4/2 131/4/2
f 132/1/2 133/1/2 136/1/2
f 136/1/2 133/1/2 137/1/2
f 134/1/2 135/1/2 138/1/2
f 138/1/2 135/1/2 139/1/2
f 136/2/2 137/2/2 140/2/2
f 140/2/2 137/2/2 141/2/2
f 138/2/2 139/2/2 142/2/2
f 142/2/2 139/2/2 143/2/2
f 136/2/2 140/2/2 144/2/2
f 144/2/2 140/2/2 145/2/2
f 143/2/2 139/2/2 146/2/2
f 146/2/2 139/2/2 147/2/2
f 148/6/2 149/6/2 150/6/2
f 150/6/2 149/6/2 151/6/2
f 150/5/2 151/5/2 152/5/2
f 152/5/2 151/5/2 153/5/2
f 154/5/2 155/5/2 156/5/2
f 156/5/2 155/5/2 157/5/2
f 156/4/2 157/4/2 158/4/2
f 158/4/2 157/4/2 159/4/2
f 160/5/2 161/5/2 162/5/2
f 162/5/2 161/5/2 163/5/2
f 164/2/2 165/2/2 166/2/2
f 166/2/2 165/2/2 167/2/2
f 167/2/2 165/2/2 168/2/2
f 169/2/2 170/2/2 173/2/2
f 173/2/2 170/2/2 174/2/2
f 171/2/2 172/2/2 175/2/2
f 175/2/2 172/2/2 176/2/2
f 177/2/2 178/2/2 179/2/2
f 179/2/2 178/2/2 180/2/2
f 181/2/2 182/2/2 184/2/2
f 183/2/2 184/2/2 185/2/2
f 184/2/2 182/2/2 186/2/2
f 185/2/2 184/2/2 186/2/2
f 187/2/2 188/2/2 190/2/2
f 188/2/2 189/2/2 190/2/2
f 190/2/2 189/2/2 191/2/2
f 192/2/2 193/2/2 194/2/2
f 194/2/2 193/2/2 195/2/2
f 196/2/2 197/2/2 200/2/2
f 200/2/2 197/2/2 201/2/2
f 198/2/2 199/2/2 202/2/2
f 202/2/2 199/2/2 203/2/2
f 204/2/2 205/2/2 206/2/2
f 204/2/2 206/2/2 208/2/2
f 206/2/2 207/2/2 208/2/2
f 208/2/2 207/2/2 209/2/2
f 209/2/2 207/2/2 210/2/2
f 204/2/2 208/2/2 211/2/2
f 211/2/2 208/2/2 212/2/2
f 210/2/2 207/2/2 213/2/2
f 213/2/2 207/2/2 214/2/2
f 215/6/2 216/6/2 217/6/2
f 217/6/2 216/6/2 218/6/2
f 217/5/2 218/5/2 219/5/2
f 219/5/2 218/5/2 220/5/2
f 221/4/2 222/4/2 223/4/2
f 223/4/2 222/4/2 224/4/2
f 225/2/2 226/2/2 227/2/2
f 227/2/2 226/2/2 228/2/2
f 229/1/2 230/1/2 233/1/2
f 233/1/2 230/1/2 234/1/2
f 231/1/2 232/1/2 235/1/2
f 235/1/2 232/1/2 236/1/2
f 233/2/2 234/2/2 237/2/2
f 235/2/2 236/2/2 238/2/2
f 233/2/2 237/2/2 239/2/2
f 237/2/2 238/2/2 239/2/2
f 238/2/2 236/2/2 240/2/2
f 239/2/2 238/2/2 240/2/2
f 241/3/2 242/3/2 243/3/2
f 243/3/2 242/3/2 244/3/2
f 243/2/2 244/2/2 245/2/2
f 245/2/2 244/2/2 246/2/2
f 247/2/2 248/2/2 249/2/2
f 249/2/2 248/2/2 250/2/2
f 251/4/2 252/4/2 253/4/2
f 253/4/2 252/4/2 254/4/2
f 258/2/3 256/2/3 255/2/3
f 259/2/3 256/2/3 258/2/3
f 260/2/3 256/2/3 259/2/3
f 262/2/3 258/2/3 257/2/3
f 262/2/3 259/2/3 258/2/3
f 263/2/3 259/2/3 262/2/3
f 264/7/3 260/7/3 259/7/3
f 264/2/3 259/2/3 263/2/3
f 265/2/3 261/2/3 260/2/3
f 265/7/3 260/7/3 264/7/3
f 266/2/3 261/2/3 265/2/3
f 267/2/3 264/2/3 263/2/3
f 267/2/3 265/2/3 264/2/3
f 268/2/3 265/2/3 267/2/3
f 271/2/3 270/2/3 269/2/3
f 272/2/3 270/2/3 271/2/3
f 275/2/3 274/2/3 273/2/3
f 276/2/3 274/2/3 275/2/3
f 279/2/3 278/2/3 277/2/3
f 280/2/3 278/2/3 279/2/3
f 283/2/3 282/2/3 281/2/3
f 284/2/3 282/2/3 283/2/3
f 285/2/3 282/2/3 284/2/3
f 287/2/3 283/2/3 281/2/3
f 288/7/3 284/7/3 283/7/3
f 288/2/3 283/2/3 287/2/3
f 289/2/3 286/2/3 285/2/3
f 289/7/3 284/7/3 288/7/3
f 289/2/3 285/2/3 284/2/3
f 290/2/3 287/2/3 281/2/3
f 291/2/3 287/2/3 290/2/3
f 292/2/3 289/2/3 288/2/3
f 293/2/3 286/2/3 289/2/3
f 293/2/3 289/2/3 292/2/3
f 297/2/3 286/2/3 293/2/3
f 298/2/3 295/2/3 294/2/3
f 299/2/3 297/2/3 296/2/3
f 300/2/3 286/2/3 297/2/3
f 300/2/3 297/2/3 299/2/3
f 301/2/3 299/2/3 298/2/3
f 301/7/3 300/7/3 299/7/3
f 302/2/3 286/2/3 300/2/3
f 302/7/3 300/7/3 301/7/3
f 303/2/3 286/2/3 302/2/3
f 304/2/3 286/2/3 303/2/3
f 305/2/3 298/2/3 294/2/3
f 305/2/3 301/2/3 298/2/3
f 305/2/3 303/2/3 302/2/3
f 305/2/3 302/2/3 301/2/3
f 306/2/3 303/2/3 305/2/3
f 309/2/3 308/2/3 307/2/3
f 310/2/3 308/2/3 309/2/3
f 311/3/3 310/3/3 309/3/3
f 312/3/3 310/3/3 311/3/3
f 313/2/3 312/2/3 311/2/3
f 314/2/3 312/2/3 313/2/3
f 318/2/3 317/2/3 316/2/3
f 320/1/3 316/1/3 315/1/3
f 321/2/3 319/2/3 318/2/3
f 321/1/3 316/1/3 320/1/3
f 321/2/3 318/2/3 316/2/3
f 322/2/3 319/2/3 321/2/3
f 323/2/3 319/2/3 322/2/3
f 324/2/3 319/2/3 323/2/3
f 325/2/3 324/2/3 323/2/3
f 325/3/3 323/3/3 322/3/3
f 326/2/3 324/2/3 325/2/3
f 327/3/3 325/3/3 322/3/3
f 327/3/3 326/3/3 325/3/3
f 328/3/3 326/3/3 327/3/3
f 331/3/3 327/3/3 322/3/3
f 332/2/3 328/2/3 327/2/3
f 332/3/3 327/3/3 331/3/3
f 333/2/3 328/2/3 332/2/3
f 334/2/3 331/2/3 330/2/3
f 334/2/3 332/2/3 331/2/3
f 334/2/3 333/2/3 332/2/3
f 335/2/3 333/2/3 334/2/3
f 336/1/3 330/1/3 329/1/3
f 337/2/3 334/2/3 330/2/3
f 337/1/3 330/1/3 336/1/3
f 338/2/3 334/2/3 337/2/3
f 341/3/3 340/3/3 339/3/3
f 342/3/3 340/3/3 341/3/3
f 345/4/3 344/4/3 343/4/3
f 346/4/3 344/4/3 345/4/3
f 350/4/3 345/4/3 343/4/3
f 351/4/3 345/4/3 350/4/3
f 352/3/3 348/3/3 347/3/3
f 353/2/3 349/2/3 348/2/3
f 353/3/3 348/3/3 352/3/3
f 354/2/3 349/2/3 353/2/3
f 356/5/3 351/5/3 350/5/3
f 357/5/3 351/5/3 356/5/3
f 359/2/3 354/2/3 353/2/3
f 360/6/3 355/6/3 354/6/3
f 360/2/3 354/2/3 359/2/3
f 361/5/3 357/5/3 356/5/3
f 361/6/3 355/6/3 360/6/3
f 361/5/3 356/5/3 355/5/3
f 362/5/3 357/5/3 361/5/3
f 363/5/3 357/5/3 362/5/3
f 364/4/3 358/4/3 357/4/3
f 364/5/3 357/5/3 363/5/3
f 365/4/3 358/4/3 364/4/3
f 366/5/3 363/5/3 362/5/3
f 367/5/3 363/5/3 366/5/3
f 373/5/3 369/5/3 368/5/3
f 374/5/3 369/5/3 373/5/3
f 378/2/3 371/2/3 370/2/3
f 379/6/3 372/6/3 371/6/3
f 379/2/3 371/2/3 378/2/3
f 380/5/3 374/5/3 373/5/3
f 380/6/3 372/6/3 379/6/3
f 380/5/3 373/5/3 372/5/3
f 380/5/3 375/5/3 374/5/3
f 381/5/3 375/5/3 380/5/3
f 382/4/3 376/4/3 375/4/3
f 382/5/3 375/5/3 381/5/3
f 383/4/3 376/4/3 382/4/3
f 384/5/3 382/5/3 381/5/3
f 385/5/3 382/5/3 384/5/3
f 386/3/3 378/3/3 377/3/3
f 387/2/3 379/2/3 378/2/3
f 387/3/3 378/3/3 386/3/3
f 388/2/3 379/2/3 387/2/3
f 389/4/3 385/4/3 384/4/3
f 391/4/3 389/4/3 384/4/3
f 391/4/3 390/4/3 389/4/3
f 392/4/3 390/4/3 391/4/3
f 395/2/3 394/2/3 393/2/3
f 396/2/3 394/2/3 395/2/3
f 397/2/3 394/2/3 396/2/3
f 401/2/3 399/2/3 398/2/3
f 401/2/3 400/2/3 399/2/3
f 402/2/3 400/2/3 401/2/3
f 406/1/3 404/1/3 403/1/3
f 407/2/3 405/2/3 404/2/3
f 407/1/3 404/1/3 406/1/3
f 408/2/3 405/2/3 407/2/3
f 412/1/3 410/1/3 409/1/3
f 413/2/3 411/2/3 410/2/3
f 413/1/3 410/1/3 412/1/3
f 414/2/3 411/2/3 413/2/3
f 417/2/3 416/2/3 415/2/3
f 418/2/3 416/2/3 417/2/3
f 419/4/4 420/4/4 421/4/4
f 421/4/4 420/4/4 422/4/4
f 419/4/4 421/4/4 426/4/4
f 426/4/4 421/4/4 427/4/4
f 426/5/4 427/5/4 430/5/4
f 430/5/4 427/5/4 431/5/4
f 423/1/4 424/1/4 433/1/4
f 424/2/4 425/2/4 434/2/4
f 433/1/4 424/1/4 434/1/4
f 434/2/4 425/2/4 435/2/4
f 428/6/4 429/6/4 438/6/4
f 430/5/4 431/5/4 439/5/4
f 438/6/4 429/6/4 439/6/4
f 429/5/4 430/5/4 439/5/4
f 439/5/4 431/5/4 440/5/4
f 440/5/4 431/5/4 441/5/4
f 431/4/4 432/4/4 442/4/4
f 441/5/4 431/5/4 442/5/4
f 442/4/4 432/4/4 443/4/4
f 440/5/4 441/5/4 444/5/4
f 444/5/4 441/5/4 445/5/4
f 436/2/4 437/2/4 451/2/4
f 451/2/4 437/2/4 452/2/4
f 446/5/4 447/5/4 455/5/4
f 455/5/4 447/5/4 456/5/4
f 453/6/4 454/6/4 459/6/4
f 455/5/4 456/5/4 460/5/4
f 459/6/4 454/6/4 460/6/4
f 456/5/4 457/5/4 460/5/4
f 454/5/4 455/5/4 460/5/4
f 460/5/4 457/5/4 461/5/4
f 457/4/4 458/4/4 462/4/4
f 461/5/4 457/5/4 462/5/4
f 462/4/4 458/4/4 463/4/4
f 461/5/4 462/5/4 464/5/4
f 464/5/4 462/5/4 465/5/4
f 448/1/4 449/1/4 466/1/4
f 449/2/4 450/2/4 467/2/4
f 466/1/4 449/1/4 467/1/4
f 467/2/4 450/2/4 468/2/4
f 464/4/4 465/4/4 469/4/4
f 464/4/4 469/4/4 471/4/4
f 469/4/4 470/4/4 471/4/4
f 471/4/4 470/4/4 472/4/4
f 473/2/4 474/2/4 477/2/4
f 477/2/4 474/2/4 478/2/4
f 475/2/4 476/2/4 479/2/4
f 479/2/4 476/2/4 480/2/4
f 478/2/4 474/2/4 481/2/4
f 481/2/4 474/2/4 482/2/4
f 483/2/4 484/2/4 487/2/4
f 487/2/4 484/2/4 488/2/4
f 485/2/4 486/2/4 490/2/4
f 489/2/4 490/2/4 491/2/4
f 490/2/4 486/2/4 492/2/4
f 491/2/4 490/2/4 492/2/4
f 493/2/4 494/2/4 496/2/4
f 496/2/4 494/2/4 497/2/4
f 495/2/4 496/2/4 499/2/4
f 497/2/4 498/2/4 499/2/4
f 496/2/4 497/2/4 499/2/4
f 499/2/4 498/2/4 500/2/4
f 500/2/4 498/2/4 501/2/4
f 501/2/4 498/2/4 502/2/4
f 500/2/4 501/2/4 503/2/4
f 503/2/4 501/2/4 504/2/4
f 505/3/4 506/3/4 507/3/4
f 507/3/4 506/3/4 508/3/4
f 510/2/4 511/2/4 512/2/4
f 509/1/4 510/1/4 514/1/4
f 512/2/4 513/2/4 515/2/4
f 514/1/4 510/1/4 515/1/4
f 510/2/4 512/2/4 515/2/4
f 515/2/4 513/2/4 516/2/4
f 516/2/4 513/2/4 517/2/4
f 517/2/4 513/2/4 518/2/4
f 516/3/4 517/3/4 518/3/4
f 518/2/4 513/2/4 519/2/4
f 516/3/4 518/3/4 520/3/4
f 518/3/4 519/3/4 520/3/4
f 519/2/4 513/2/4 521/2/4
f 520/3/4 519/3/4 521/3/4
f 521/2/4 513/2/4 522/2/4
f 522/2/4 513/2/4 523/2/4
f 523/2/4 513/2/4 524/2/4
f 516/3/4 520/3/4 525/3/4
f 520/7/4 521/7/4 525/7/4
f 521/3/4 522/3/4 526/3/4
f 525/7/4 521/7/4 526/7/4
f 522/2/4 523/2/4 527/2/4
f 526/3/4 522/3/4 527/3/4
f 527/2/4 523/2/4 528/2/4
f 525/3/4 526/3/4 530/3/4
f 528/2/4 529/2/4 531/2/4
f 530/3/4 526/3/4 531/3/4
f 526/2/4 527/2/4 531/2/4
f 527/2/4 528/2/4 531/2/4
f 525/3/4 530/3/4 534/3/4
f 516/3/4 525/3/4 534/3/4
f 530/2/4 531/2/4 535/2/4
f 534/3/4 530/3/4 535/3/4
f 531/2/4 529/2/4 536/2/4
f 535/2/4 531/2/4 536/2/4
f 534/2/4 535/2/4 536/2/4
f 533/2/4 534/2/4 536/2/4
f 536/2/4 529/2/4 537/2/4
f 532/1/4 533/1/4 538/1/4
f 533/2/4 536/2/4 539/2/4
f 538/1/4 533/1/4 539/1/4
f 539/2/4 536/2/4 540/2/4
f 541/2/4 542/2/4 543/2/4
f 543/2/4 542/2/4 544/2/4
f 549/1/5 546/1/5 545/1/5
f 550/1/5 546/1/5 549/1/5
f 551/1/5 548/1/5 547/1/5
f 552/1/5 548/1/5 551/1/5
f 557/1/5 554/1/5 553/1/5
f 558/1/5 554/1/5 557/1/5
f 559/1/5 556/1/5 555/1/5
f 560/1/5 556/1/5 559/1/5
f 564/3/5 562/3/5 561/3/5
f 565/3/5 562/3/5 564/3/5
f 567/2/5 564/2/5 563/2/5
f 568/3/5 565/3/5 564/3/5
f 568/2/5 564/2/5 567/2/5
f 569/2/5 566/2/5 565/2/5
f 569/3/5 565/3/5 568/3/5
f 570/2/5 566/2/5 569/2/5
f 571/3/5 569/3/5 568/3/5
f 572/3/5 569/3/5 571/3/5
f 575/3/5 574/3/5 573/3/5
f 576/3/5 574/3/5 575/3/5
f 579/3/5 578/3/5 577/3/5
f 580/3/5 578/3/5 579/3/5
f 583/2/5 582/2/5 581/2/5
f 584/2/5 582/2/5 583/2/5
f 589/2/5 586/2/5 585/2/5
f 590/3/5 587/3/5 586/3/5
f 590/2/5 586/2/5 589/2/5
f 591/2/5 588/2/5 587/2/5
f 591/3/5 587/3/5 590/3/5
f 592/2/5 588/2/5 591/2/5
f 596/2/5 594/2/5 593/2/5
f 597/2/5 594/2/5 596/2/5
f 599/2/5 596/2/5 595/2/5
f 599/2/5 598/2/5 597/2/5
f 599/2/5 597/2/5 596/2/5
f 600/2/5 598/2/5 599/2/5
f 601/2/5 599/2/5 595/2/5
f 602/3/5 600/3/5 599/3/5
f 602/2/5 599/2/5 601/2/5
f 603/2/5 598/2/5 600/2/5
f 603/3/5 600/3/5 602/3/5
f 604/2/5 598/2/5 603/2/5
f 605/2/5 601/2/5 595/2/5
f 606/3/5 602/3/5 601/3/5
f 606/2/5 601/2/5 605/2/5
f 606/3/5 603/3/5 602/3/5
f 606/3/5 604/3/5 603/3/5
f 607/2/5 598/2/5 604/2/5
f 607/3/5 604/3/5 606/3/5
f 608/2/5 598/2/5 607/2/5
f 609/2/5 605/2/5 595/2/5
f 610/2/5 598/2/5 608/2/5
f 611/2/5 609/2/5 595/2/5
f 611/2/5 610/2/5 609/2/5
f 612/2/5 610/2/5 611/2/5
f 613/2/5 598/2/5 610/2/5
f 613/2/5 610/2/5 612/2/5
f 614/2/5 598/2/5 613/2/5
f 615/2/5 613/2/5 612/2/5
f 616/2/5 613/2/5 615/2/5
f 620/2/5 618/2/5 617/2/5
f 621/2/5 618/2/5 620/2/5
f 623/2/5 620/2/5 619/2/5
f 623/2/5 622/2/5 621/2/5
f 623/2/5 621/2/5 620/2/5
f 624/2/5 622/2/5 623/2/5
f 625/2/5 623/2/5 619/2/5
f 626/2/5 623/2/5 625/2/5
f 627/2/5 622/2/5 624/2/5
f 628/2/5 622/2/5 627/2/5
f 633/2/5 630/2/5 629/2/5
f 634/2/5 630/2/5 633/2/5
f 635/2/5 632/2/5 631/2/5
f 636/2/5 632/2/5 635/2/5
f 641/2/5 638/2/5 637/2/5
f 642/2/5 638/2/5 641/2/5
f 643/2/5 640/2/5 639/2/5
f 644/2/5 640/2/5 643/2/5
f 650/3/5 646/3/5 645/3/5
f 651/3/5 646/3/5 650/3/5
f 652/3/5 648/3/5 647/3/5
f 653/3/5 648/3/5 652/3/5
f 655/2/5 651/2/5 650/2/5
f 655/2/5 650/2/5 649/2/5
f 656/2/5 651/2/5 655/2/5
f 657/2/5 654/2/5 653/2/5
f 657/2/5 653/2/5 652/2/5
f 658/2/5 654/2/5 657/2/5
f 663/5/5 660/5/5 659/5/5
f 664/5/5 660/5/5 663/5/5
f 665/5/5 662/5/5 661/5/5
f 666/5/5 662/5/5 665/5/5
f 673/4/5 668/4/5 667/4/5
f 674/5/5 669/5/5 668/5/5
f 674/4/5 668/4/5 673/4/5
f 675/5/5 669/5/5 674/5/5
f 676/5/5 671/5/5 670/5/5
f 677/4/5 672/4/5 671/4/5
f 677/5/5 671/5/5 676/5/5
f 678/4/5 672/4/5 677/4/5
f 679/2/6 680/2/6 683/2/6
f 683/2/6 680/2/6 684/2/6
f 681/2/6 682/2/6 685/2/6
f 685/2/6 682/2/6 686/2/6
f 687/2/6 688/2/6 691/2/6
f 689/2/6 690/2/6 692/2/6
f 687/2/6 691/2/6 693/2/6
f 691/2/6 692/2/6 693/2/6
f 693/2/6 692/2/6 694/2/6
f 694/2/6 692/2/6 695/2/6
f 692/2/6 690/2/6 696/2/6
f 695/2/6 692/2/6 696/2/6
f 697/2/6 698/2/6 699/2/6
f 699/2/6 698/2/6 700/2/6
f 701/2/6 702/2/6 705/2/6
f 705/2/6 702/2/6 706/2/6
f 703/2/6 704/2/6 707/2/6
f 707/2/6 704/2/6 708/2/6
f 709/2/6 710/2/6 711/2/6
f 711/2/6 710/2/6 712/2/6
f 713/2/6 714/2/6 717/2/6
f 717/2/6 714/2/6 718/2/6
f 715/2/6 716/2/6 719/2/6
f 719/2/6 716/2/6 720/2/6
f 721/2/6 722/2/6 725/2/6
f 725/2/6 722/2/6 726/2/6
f 723/2/6 724/2/6 727/2/6
f 727/2/6 724/2/6 728/2/6
f 729/2/6 730/2/6 733/2/6
f 733/2/6 730/2/6 734/2/6
f 731/2/6 732/2/6 738/2/6
f 738/2/6 732/2/6 739/2/6
f 733/2/6 734/2/6 740/2/6
f 740/2/6 734/2/6 741/2/6
f 735/2/6 736/2/6 742/2/6
f 742/2/6 736/2/6 743/2/6
f 740/2/6 741/2/6 745/2/6
f 743/2/6 744/2/6 745/2/6
f 742/2/6 743/2/6 745/2/6
f 741/2/6 742/2/6 745/2/6
f 738/2/6 739/2/6 745/2/6
f 739/2/6 740/2/6 745/2/6
f 737/2/6 738/2/6 745/2/6
f 745/2/6 744/2/6 746/2/6
f 746/2/6 744/2/6 747/2/6
f 747/2/6 744/2/6 748/2/6
f 746/2/6 747/2/6 749/2/6
f 749/2/6 747/2/6 750/2/6
f 751/5/6 752/5/6 755/5/6
f 755/5/6 752/5/6 756/5/6
f 753/5/6 754/5/6 757/5/6
f 757/5/6 754/5/6 758/5/6
f 759/4/6 760/4/6 765/4/6
f 760/5/6 761/5/6 766/5/6
f 765/4/6 760/4/6 766/4/6
f 766/5/6 761/5/6 767/5/6
f 762/5/6 763/5/6 768/5/6
f 763/4/6 764/4/6 769/4/6
f 768/5/6 763/5/6 769/5/6
f 769/4/6 764/4/6 770/4/6
f 771/4/6 772/4/6 775/4/6
f 775/4/6 772/4/6 776/4/6
f 773/4/6 774/4/6 777/4/6
f 777/4/6 774/4/6 778/4/6
f 779/4/6 780/4/6 783/4/6
f 783/4/6 780/4/6 784/4/6
f 781/4/6 782/4/6 785/4/6
f 785/4/6 782/4/6 786/4/6
