# MagicaVoxel @ Ephtracy

# group
g fire_4

# material
mtllib fire_4.mtl
usemtl palette

# normals
vn -1 0 0
vn 1 0 0
vn 0 0 1
vn 0 0 -1
vn 0 -1 0
vn 0 1 0

# texcoords
vt 0.0449219 0.5
vt 0.0917969 0.5
vt 0.279297 0.5

# verts
v -3.5 4 1
v -3.5 4 -1
v -3.5 5 3
v -3.5 5 1
v -3.5 5 -1
v -3.5 6 3
v -3.5 6 1
v -3.5 6 -0
v -3.5 8 1
v -3.5 8 -0
v -2.5 3 1
v -2.5 3 -2
v -2.5 4 2
v -2.5 4 1
v -2.5 4 -1
v -2.5 5 2
v -2.5 5 1
v -2.5 5 -0
v -2.5 5 -1
v -2.5 5 -2
v -2.5 6 2
v -2.5 6 1
v -2.5 6 -0
v -2.5 6 -2
v -2.5 7 2
v -2.5 7 1
v -2.5 7 -0
v -2.5 7 -1
v -2.5 8 1
v -2.5 8 -0
v -2.5 8 -1
v -2.5 9 -0
v -2.5 9 -2
v -2.5 10 1
v -2.5 10 -0
v -1.5 2 1
v -1.5 2 -1
v -1.5 3 2
v -1.5 3 1
v -1.5 3 -1
v -1.5 3 -2
v -1.5 3 -3
v -1.5 4 3
v -1.5 4 2
v -1.5 4 1
v -1.5 4 -2
v -1.5 4 -3
v -1.5 5 3
v -1.5 5 2
v -1.5 5 -0
v -1.5 5 -2
v -1.5 5 -3
v -1.5 6 -0
v -1.5 6 -2
v -1.5 6 -3
v -1.5 7 -0
v -1.5 7 -1
v -1.5 7 -2
v -1.5 7 -3
v -1.5 8 -0
v -1.5 8 -1
v -1.5 9 -0
v -1.5 9 -2
v -1.5 9 -3
v -1.5 10 -0
v -1.5 10 -2
v -1.5 11 -0
v -1.5 11 -1
v -1.5 12 -0
v -1.5 12 -1
v -0.5 2 -1
v -0.5 2 -2
v -0.5 3 -1
v -0.5 3 -2
v -0.5 6 -0
v -0.5 6 -1
v -0.5 7 -0
v -0.5 7 -1
v -0.5 10 -2
v -0.5 10 -3
v -0.5 11 -2
v -0.5 11 -3
v 0.5 3 3
v 0.5 3 2
v 0.5 4 2
v 0.5 5 3
v 0.5 5 2
v 0.5 5 -1
v 0.5 5 -2
v 0.5 6 -1
v 0.5 6 -2
v 1.5 5 1
v 1.5 5 -0
v 1.5 6 1
v 1.5 6 -0
v -2.5 5 3
v -2.5 5 2
v -2.5 6 3
v -2.5 6 2
v -1.5 6 2
v -1.5 6 1
v -1.5 6 -0
v -1.5 6 -1
v -1.5 7 2
v -1.5 7 1
v -1.5 7 -0
v -1.5 7 -1
v -1.5 8 -0
v -1.5 10 1
v -1.5 10 -0
v -0.5 2 1
v -0.5 2 -0
v -0.5 3 1
v -0.5 3 -0
v -0.5 4 3
v -0.5 4 2
v -0.5 5 3
v -0.5 5 2
v -0.5 5 1
v -0.5 5 -1
v -0.5 5 -2
v -0.5 6 2
v -0.5 6 1
v -0.5 6 -1
v -0.5 6 -2
v -0.5 8 -0
v -0.5 8 -1
v -0.5 9 -1
v -0.5 9 -2
v -0.5 10 -0
v -0.5 10 -2
v -0.5 11 -0
v -0.5 11 -1
v -0.5 12 -0
v -0.5 12 -1
v 0.5 2 -0
v 0.5 2 -2
v 0.5 3 -0
v 0.5 3 -2
v 0.5 5 1
v 0.5 5 -0
v 0.5 6 -1
v 0.5 6 -2
v 0.5 7 1
v 0.5 7 -0
v 0.5 7 -1
v 0.5 7 -2
v 1.5 3 3
v 1.5 3 -3
v 1.5 4 2
v 1.5 4 -1
v 1.5 4 -2
v 1.5 4 -3
v 1.5 5 3
v 1.5 5 2
v 1.5 5 -2
v 1.5 5 -3
v 1.5 6 -1
v 1.5 6 -3
v 1.5 7 -0
v 1.5 7 -1
v 1.5 7 -2
v 1.5 7 -3
v 1.5 8 -0
v 1.5 8 -1
v 1.5 9 -2
v 1.5 9 -3
v 1.5 10 -2
v 1.5 10 -3
v 1.5 11 -2
v 1.5 11 -3
v 2.5 4 2
v 2.5 4 -1
v 2.5 5 2
v 2.5 5 1
v 2.5 5 -0
v 2.5 6 1
v 2.5 6 -0
v 2.5 6 -1
v 2.5 7 -0
v 2.5 7 -1
v 2.5 7 -2
v 2.5 9 -1
v 2.5 9 -2
v -3.5 5 3
v -3.5 6 3
v -2.5 5 3
v -2.5 6 3
v -1.5 4 3
v -1.5 5 3
v -0.5 4 3
v -0.5 5 3
v 0.5 3 3
v 0.5 5 3
v 1.5 3 3
v 1.5 5 3
v -2.5 4 2
v -2.5 5 2
v -2.5 6 2
v -2.5 7 2
v -1.5 3 2
v -1.5 4 2
v -1.5 5 2
v -1.5 6 2
v -1.5 7 2
v -0.5 3 2
v -0.5 4 2
v -0.5 5 2
v -0.5 6 2
v 0.5 3 2
v 0.5 4 2
v 0.5 5 2
v 1.5 4 2
v 1.5 5 2
v 2.5 4 2
v 2.5 5 2
v -3.5 4 1
v -3.5 5 1
v -3.5 6 1
v -3.5 8 1
v -2.5 3 1
v -2.5 4 1
v -2.5 5 1
v -2.5 6 1
v -2.5 7 1
v -2.5 8 1
v -2.5 10 1
v -1.5 2 1
v -1.5 3 1
v -1.5 4 1
v -1.5 6 1
v -1.5 7 1
v -1.5 10 1
v -0.5 2 1
v -0.5 3 1
v -0.5 5 1
v -0.5 6 1
v -0.5 7 1
v 0.5 5 1
v 0.5 7 1
v 1.5 5 1
v 1.5 6 1
v 2.5 5 1
v 2.5 6 1
v -1.5 7 -0
v -1.5 8 -0
v -1.5 10 -0
v -1.5 11 -0
v -1.5 12 -0
v -0.5 2 -0
v -0.5 3 -0
v -0.5 7 -0
v -0.5 8 -0
v -0.5 10 -0
v -0.5 11 -0
v -0.5 12 -0
v 0.5 2 -0
v 0.5 3 -0
v 0.5 5 -0
v 0.5 7 -0
v 1.5 5 -0
v 1.5 6 -0
v 1.5 7 -0
v 1.5 8 -0
v 2.5 6 -0
v 2.5 7 -0
v -2.5 7 -1
v -2.5 8 -1
v -1.5 6 -1
v -1.5 7 -1
v -1.5 8 -1
v -0.5 6 -1
v -0.5 7 -1
v -0.5 8 -1
v -0.5 9 -1
v 1.5 7 -1
v 1.5 8 -1
v 2.5 7 -1
v 2.5 9 -1
v -0.5 5 -2
v -0.5 6 -2
v -0.5 10 -2
v -0.5 11 -2
v 0.5 5 -2
v 0.5 6 -2
v 1.5 10 -2
v 1.5 11 -2
v -3.5 5 1
v -3.5 6 1
v -2.5 5 1
v -2.5 6 1
v -3.5 6 -0
v -3.5 8 -0
v -2.5 5 -0
v -2.5 6 -0
v -2.5 7 -0
v -2.5 8 -0
v -2.5 9 -0
v -2.5 10 -0
v -1.5 5 -0
v -1.5 6 -0
v -1.5 7 -0
v -1.5 8 -0
v -1.5 9 -0
v -1.5 10 -0
v -0.5 6 -0
v -0.5 7 -0
v -3.5 4 -1
v -3.5 5 -1
v -2.5 4 -1
v -2.5 5 -1
v -1.5 2 -1
v -1.5 3 -1
v -1.5 11 -1
v -1.5 12 -1
v -0.5 2 -1
v -0.5 3 -1
v -0.5 5 -1
v -0.5 6 -1
v -0.5 11 -1
v -0.5 12 -1
v 0.5 5 -1
v 0.5 6 -1
v 0.5 7 -1
v 1.5 4 -1
v 1.5 6 -1
v 2.5 4 -1
v 2.5 6 -1
v 2.5 7 -1
v -2.5 3 -2
v -2.5 5 -2
v -2.5 6 -2
v -2.5 9 -2
v -1.5 3 -2
v -1.5 4 -2
v -1.5 5 -2
v -1.5 6 -2
v -1.5 7 -2
v -1.5 9 -2
v -1.5 10 -2
v -0.5 2 -2
v -0.5 3 -2
v -0.5 9 -2
v -0.5 10 -2
v 0.5 2 -2
v 0.5 3 -2
v 0.5 6 -2
v 0.5 7 -2
v 1.5 4 -2
v 1.5 5 -2
v 1.5 7 -2
v 1.5 9 -2
v 2.5 7 -2
v 2.5 9 -2
v -1.5 3 -3
v -1.5 4 -3
v -1.5 5 -3
v -1.5 6 -3
v -1.5 7 -3
v -1.5 9 -3
v -0.5 10 -3
v -0.5 11 -3
v 1.5 3 -3
v 1.5 4 -3
v 1.5 5 -3
v 1.5 6 -3
v 1.5 7 -3
v 1.5 9 -3
v 1.5 10 -3
v 1.5 11 -3
v -1.5 2 1
v -0.5 2 1
v -0.5 2 -0
v 0.5 2 -0
v -1.5 2 -1
v -0.5 2 -1
v -0.5 2 -2
v 0.5 2 -2
v 0.5 3 3
v 1.5 3 3
v -1.5 3 2
v -0.5 3 2
v 0.5 3 2
v -2.5 3 1
v -1.5 3 1
v -0.5 3 1
v 0.5 3 1
v -0.5 3 -0
v 0.5 3 -0
v -1.5 3 -1
v -0.5 3 -1
v -2.5 3 -2
v -1.5 3 -2
v -0.5 3 -2
v 0.5 3 -2
v -1.5 3 -3
v 1.5 3 -3
v -1.5 4 3
v -0.5 4 3
v -2.5 4 2
v -1.5 4 2
v -0.5 4 2
v 1.5 4 2
v 2.5 4 2
v -3.5 4 1
v -2.5 4 1
v -1.5 4 1
v -3.5 4 -1
v -2.5 4 -1
v 1.5 4 -1
v 2.5 4 -1
v -3.5 5 3
v -2.5 5 3
v -2.5 5 2
v -3.5 5 1
v -2.5 5 1
v -1.5 5 -2
v 1.5 5 -2
v -1.5 5 -3
v 1.5 5 -3
v -3.5 6 1
v -2.5 6 1
v -3.5 6 -0
v -2.5 6 -0
v -1.5 6 -0
v -0.5 6 -1
v 0.5 6 -1
v -2.5 6 -2
v -1.5 6 -2
v -0.5 6 -2
v 0.5 6 -2
v -1.5 7 -0
v -0.5 7 -0
v -1.5 7 -1
v -0.5 7 -1
v 0.5 7 -1
v 2.5 7 -1
v -1.5 7 -2
v 0.5 7 -2
v 1.5 7 -2
v 2.5 7 -2
v -1.5 7 -3
v 1.5 7 -3
v -2.5 8 -0
v -1.5 8 -0
v -2.5 8 -1
v -1.5 8 -1
v -0.5 10 -2
v 1.5 10 -2
v -0.5 10 -3
v 1.5 10 -3
v -1.5 11 -0
v -0.5 11 -0
v -1.5 11 -1
v -0.5 11 -1
v -1.5 4 -2
v 1.5 4 -2
v -1.5 4 -3
v 1.5 4 -3
v -1.5 5 3
v -0.5 5 3
v 0.5 5 3
v 1.5 5 3
v -1.5 5 2
v -0.5 5 2
v 0.5 5 2
v 1.5 5 2
v 2.5 5 2
v -3.5 5 1
v -2.5 5 1
v -0.5 5 1
v 0.5 5 1
v 1.5 5 1
v 2.5 5 1
v -2.5 5 -0
v -1.5 5 -0
v 0.5 5 -0
v 1.5 5 -0
v -3.5 5 -1
v -2.5 5 -1
v -0.5 5 -1
v 0.5 5 -1
v -2.5 5 -2
v -1.5 5 -2
v -0.5 5 -2
v 0.5 5 -2
v -3.5 6 3
v -2.5 6 3
v -2.5 6 2
v -1.5 6 2
v -0.5 6 2
v -3.5 6 1
v -2.5 6 1
v -1.5 6 1
v -0.5 6 1
v 1.5 6 1
v 2.5 6 1
v -1.5 6 -0
v -0.5 6 -0
v 1.5 6 -0
v 2.5 6 -0
v -1.5 6 -1
v -0.5 6 -1
v 0.5 6 -1
v 1.5 6 -1
v -1.5 6 -2
v 0.5 6 -2
v -1.5 6 -3
v 1.5 6 -3
v -2.5 7 2
v -1.5 7 2
v -2.5 7 1
v -1.5 7 1
v -0.5 7 1
v 0.5 7 1
v -2.5 7 -0
v -1.5 7 -0
v -0.5 7 -0
v 0.5 7 -0
v 1.5 7 -0
v 2.5 7 -0
v -2.5 7 -1
v -1.5 7 -1
v 1.5 7 -1
v 2.5 7 -1
v -3.5 8 1
v -2.5 8 1
v -3.5 8 -0
v -2.5 8 -0
v -0.5 8 -0
v 1.5 8 -0
v -0.5 8 -1
v 1.5 8 -1
v -2.5 9 -0
v -1.5 9 -0
v -0.5 9 -1
v 2.5 9 -1
v -2.5 9 -2
v -1.5 9 -2
v -0.5 9 -2
v 1.5 9 -2
v 2.5 9 -2
v -1.5 9 -3
v 1.5 9 -3
v -2.5 10 1
v -1.5 10 1
v -2.5 10 -0
v -1.5 10 -0
v -0.5 10 -0
v -1.5 10 -2
v -0.5 10 -2
v -0.5 11 -2
v 1.5 11 -2
v -0.5 11 -3
v 1.5 11 -3
v -1.5 12 -0
v -0.5 12 -0
v -1.5 12 -1
v -0.5 12 -1

# faces
f 4/3/1 2/3/1 1/3/1
f 5/3/1 2/3/1 4/3/1
f 6/3/1 4/3/1 3/3/1
f 7/3/1 4/3/1 6/3/1
f 9/3/1 8/3/1 7/3/1
f 10/3/1 8/3/1 9/3/1
f 14/3/1 12/3/1 11/3/1
f 15/3/1 12/3/1 14/3/1
f 16/3/1 14/3/1 13/3/1
f 17/3/1 14/3/1 16/3/1
f 19/3/1 12/3/1 15/3/1
f 20/3/1 12/3/1 19/3/1
f 22/3/1 18/3/1 17/3/1
f 23/3/1 18/3/1 22/3/1
f 25/2/1 22/2/1 21/2/1
f 26/2/1 22/2/1 25/2/1
f 27/3/1 24/3/1 23/3/1
f 28/3/1 24/3/1 27/3/1
f 31/3/1 24/3/1 28/3/1
f 32/3/1 30/3/1 29/3/1
f 32/3/1 31/3/1 30/3/1
f 33/3/1 24/3/1 31/3/1
f 33/3/1 31/3/1 32/3/1
f 34/3/1 32/3/1 29/3/1
f 35/3/1 32/3/1 34/3/1
f 39/3/1 37/3/1 36/3/1
f 40/3/1 37/3/1 39/3/1
f 44/3/1 39/3/1 38/3/1
f 45/3/1 39/3/1 44/3/1
f 46/3/1 42/3/1 41/3/1
f 47/3/1 42/3/1 46/3/1
f 48/2/1 44/2/1 43/2/1
f 49/2/1 44/2/1 48/2/1
f 53/3/1 52/3/1 51/3/1
f 53/3/1 51/3/1 50/3/1
f 54/3/1 52/3/1 53/3/1
f 55/3/1 52/3/1 54/3/1
f 60/2/1 57/2/1 56/2/1
f 61/2/1 57/2/1 60/2/1
f 63/3/1 59/3/1 58/3/1
f 64/3/1 59/3/1 63/3/1
f 65/3/1 63/3/1 62/3/1
f 66/3/1 63/3/1 65/3/1
f 69/3/1 68/3/1 67/3/1
f 70/3/1 68/3/1 69/3/1
f 73/3/1 72/3/1 71/3/1
f 74/3/1 72/3/1 73/3/1
f 77/3/1 76/3/1 75/3/1
f 78/3/1 76/3/1 77/3/1
f 81/3/1 80/3/1 79/3/1
f 82/3/1 80/3/1 81/3/1
f 85/3/1 84/3/1 83/3/1
f 86/3/1 85/3/1 83/3/1
f 87/3/1 85/3/1 86/3/1
f 90/3/1 89/3/1 88/3/1
f 91/3/1 89/3/1 90/3/1
f 94/2/1 93/2/1 92/2/1
f 95/2/1 93/2/1 94/2/1
f 96/3/2 97/3/2 98/3/2
f 98/3/2 97/3/2 99/3/2
f 100/2/2 101/2/2 104/2/2
f 104/2/2 101/2/2 105/2/2
f 102/3/2 103/3/2 106/3/2
f 106/3/2 103/3/2 107/3/2
f 105/3/2 106/3/2 108/3/2
f 105/3/2 108/3/2 109/3/2
f 109/3/2 108/3/2 110/3/2
f 111/3/2 112/3/2 113/3/2
f 113/3/2 112/3/2 114/3/2
f 115/2/2 116/2/2 117/2/2
f 117/2/2 116/2/2 118/2/2
f 118/1/2 119/1/2 122/1/2
f 122/1/2 119/1/2 123/1/2
f 120/3/2 121/3/2 124/3/2
f 124/3/2 121/3/2 125/3/2
f 126/3/2 127/3/2 128/3/2
f 126/3/2 128/3/2 130/3/2
f 128/3/2 129/3/2 130/3/2
f 130/3/2 129/3/2 131/3/2
f 132/3/2 133/3/2 134/3/2
f 134/3/2 133/3/2 135/3/2
f 136/3/2 137/3/2 138/3/2
f 138/3/2 137/3/2 139/3/2
f 140/1/2 141/1/2 144/1/2
f 144/1/2 141/1/2 145/1/2
f 142/3/2 143/3/2 146/3/2
f 146/3/2 143/3/2 147/3/2
f 148/3/2 149/3/2 150/3/2
f 150/3/2 149/3/2 151/3/2
f 151/3/2 149/3/2 152/3/2
f 152/3/2 149/3/2 153/3/2
f 148/3/2 150/3/2 154/3/2
f 154/3/2 150/3/2 155/3/2
f 151/3/2 152/3/2 156/3/2
f 156/3/2 157/3/2 158/3/2
f 151/3/2 156/3/2 158/3/2
f 158/3/2 157/3/2 159/3/2
f 160/2/2 161/2/2 164/2/2
f 164/2/2 161/2/2 165/2/2
f 162/3/2 163/3/2 166/3/2
f 166/3/2 163/3/2 167/3/2
f 168/3/2 169/3/2 170/3/2
f 170/3/2 169/3/2 171/3/2
f 172/3/2 173/3/2 174/3/2
f 174/3/2 173/3/2 175/3/2
f 175/3/2 173/3/2 176/3/2
f 175/2/2 176/2/2 177/2/2
f 176/3/2 173/3/2 178/3/2
f 177/2/2 176/2/2 178/2/2
f 178/3/2 173/3/2 179/3/2
f 178/2/2 179/2/2 180/2/2
f 180/2/2 179/2/2 181/2/2
f 181/3/2 182/3/2 183/3/2
f 183/3/2 182/3/2 184/3/2
f 187/3/3 186/3/3 185/3/3
f 188/3/3 186/3/3 187/3/3
f 191/2/3 190/2/3 189/2/3
f 192/2/3 190/2/3 191/2/3
f 195/3/3 194/3/3 193/3/3
f 196/3/3 194/3/3 195/3/3
f 202/3/3 198/3/3 197/3/3
f 203/2/3 200/2/3 199/2/3
f 203/2/3 199/2/3 198/2/3
f 203/3/3 198/3/3 202/3/3
f 204/2/3 200/2/3 203/2/3
f 205/2/3 200/2/3 204/2/3
f 206/3/3 202/3/3 201/3/3
f 207/3/3 202/3/3 206/3/3
f 208/1/3 204/1/3 203/1/3
f 209/1/3 204/1/3 208/1/3
f 210/2/3 207/2/3 206/2/3
f 211/1/3 208/1/3 207/1/3
f 211/2/3 207/2/3 210/2/3
f 212/1/3 208/1/3 211/1/3
f 215/3/3 214/3/3 213/3/3
f 216/3/3 214/3/3 215/3/3
f 222/3/3 218/3/3 217/3/3
f 223/3/3 218/3/3 222/3/3
f 224/3/3 220/3/3 219/3/3
f 225/3/3 220/3/3 224/3/3
f 226/3/3 220/3/3 225/3/3
f 229/3/3 222/3/3 221/3/3
f 230/3/3 222/3/3 229/3/3
f 232/3/3 227/3/3 226/3/3
f 232/3/3 226/3/3 225/3/3
f 233/3/3 227/3/3 232/3/3
f 234/3/3 229/3/3 228/3/3
f 235/3/3 229/3/3 234/3/3
f 237/2/3 232/2/3 231/2/3
f 238/2/3 232/2/3 237/2/3
f 239/1/3 237/1/3 236/1/3
f 239/1/3 238/1/3 237/1/3
f 240/1/3 238/1/3 239/1/3
f 243/2/3 242/2/3 241/2/3
f 244/2/3 242/2/3 243/2/3
f 252/2/3 246/2/3 245/2/3
f 253/3/3 247/3/3 246/3/3
f 253/2/3 246/2/3 252/2/3
f 254/3/3 247/3/3 253/3/3
f 255/3/3 249/3/3 248/3/3
f 256/3/3 249/3/3 255/3/3
f 257/3/3 251/3/3 250/3/3
f 258/3/3 251/3/3 257/3/3
f 260/2/3 253/2/3 252/2/3
f 261/2/3 260/2/3 259/2/3
f 262/2/3 260/2/3 261/2/3
f 263/2/3 253/2/3 260/2/3
f 263/2/3 260/2/3 262/2/3
f 264/2/3 253/2/3 263/2/3
f 265/2/3 263/2/3 262/2/3
f 266/2/3 263/2/3 265/2/3
f 270/3/3 268/3/3 267/3/3
f 271/3/3 268/3/3 270/3/3
f 272/3/3 270/3/3 269/3/3
f 273/3/3 270/3/3 272/3/3
f 277/3/3 275/3/3 274/3/3
f 278/3/3 277/3/3 276/3/3
f 279/3/3 275/3/3 277/3/3
f 279/3/3 277/3/3 278/3/3
f 284/3/3 281/3/3 280/3/3
f 285/3/3 281/3/3 284/3/3
f 286/3/3 283/3/3 282/3/3
f 287/3/3 283/3/3 286/3/3
f 288/3/4 289/3/4 290/3/4
f 290/3/4 289/3/4 291/3/4
f 292/3/4 293/3/4 295/3/4
f 295/3/4 293/3/4 296/3/4
f 296/3/4 293/3/4 297/3/4
f 294/3/4 295/3/4 300/3/4
f 300/3/4 295/3/4 301/3/4
f 296/3/4 297/3/4 302/3/4
f 302/3/4 297/3/4 303/3/4
f 298/3/4 299/3/4 304/3/4
f 304/3/4 299/3/4 305/3/4
f 301/2/4 302/2/4 306/2/4
f 306/2/4 302/2/4 307/2/4
f 308/3/4 309/3/4 310/3/4
f 310/3/4 309/3/4 311/3/4
f 312/3/4 313/3/4 316/3/4
f 316/3/4 313/3/4 317/3/4
f 314/3/4 315/3/4 320/3/4
f 320/3/4 315/3/4 321/3/4
f 318/2/4 319/2/4 322/2/4
f 322/2/4 319/2/4 323/2/4
f 323/2/4 324/2/4 326/2/4
f 325/3/4 326/3/4 327/3/4
f 326/2/4 324/2/4 328/2/4
f 327/3/4 326/3/4 328/3/4
f 328/2/4 324/2/4 329/2/4
f 330/3/4 331/3/4 334/3/4
f 334/3/4 331/3/4 335/3/4
f 335/3/4 331/3/4 336/3/4
f 332/3/4 333/3/4 337/3/4
f 337/3/4 333/3/4 338/3/4
f 338/3/4 333/3/4 339/3/4
f 339/3/4 340/3/4 343/3/4
f 343/3/4 340/3/4 344/3/4
f 341/3/4 342/3/4 345/3/4
f 345/3/4 342/3/4 346/3/4
f 337/3/4 338/3/4 347/3/4
f 347/3/4 338/3/4 348/3/4
f 335/3/4 336/3/4 349/3/4
f 349/3/4 336/3/4 350/3/4
f 351/3/4 352/3/4 353/3/4
f 353/3/4 352/3/4 354/3/4
f 355/3/4 356/3/4 363/3/4
f 363/3/4 356/3/4 364/3/4
f 357/3/4 358/3/4 365/3/4
f 365/3/4 358/3/4 366/3/4
f 359/3/4 360/3/4 367/3/4
f 367/3/4 360/3/4 368/3/4
f 361/3/4 362/3/4 369/3/4
f 369/3/4 362/3/4 370/3/4
f 373/3/5 372/3/5 371/3/5
f 375/3/5 373/3/5 371/3/5
f 375/3/5 374/3/5 373/3/5
f 376/3/5 374/3/5 375/3/5
f 377/3/5 374/3/5 376/3/5
f 378/3/5 374/3/5 377/3/5
f 383/3/5 380/3/5 379/3/5
f 385/3/5 382/3/5 381/3/5
f 386/2/5 383/2/5 382/2/5
f 386/3/5 382/3/5 385/3/5
f 387/3/5 380/3/5 383/3/5
f 387/2/5 383/2/5 386/2/5
f 388/3/5 387/3/5 386/3/5
f 389/3/5 380/3/5 387/3/5
f 389/3/5 387/3/5 388/3/5
f 390/3/5 385/3/5 384/3/5
f 392/3/5 390/3/5 384/3/5
f 392/3/5 391/3/5 390/3/5
f 393/3/5 391/3/5 392/3/5
f 394/3/5 391/3/5 393/3/5
f 395/3/5 380/3/5 389/3/5
f 396/3/5 394/3/5 393/3/5
f 396/3/5 395/3/5 394/3/5
f 397/3/5 380/3/5 395/3/5
f 397/3/5 395/3/5 396/3/5
f 401/2/5 399/2/5 398/2/5
f 402/2/5 399/2/5 401/2/5
f 406/3/5 401/3/5 400/3/5
f 407/3/5 401/3/5 406/3/5
f 408/3/5 406/3/5 405/3/5
f 409/3/5 406/3/5 408/3/5
f 410/3/5 404/3/5 403/3/5
f 411/3/5 404/3/5 410/3/5
f 414/3/5 413/3/5 412/3/5
f 415/3/5 414/3/5 412/3/5
f 416/3/5 414/3/5 415/3/5
f 419/3/5 418/3/5 417/3/5
f 420/3/5 418/3/5 419/3/5
f 423/3/5 422/3/5 421/3/5
f 424/3/5 422/3/5 423/3/5
f 428/3/5 425/3/5 424/3/5
f 429/3/5 425/3/5 428/3/5
f 430/3/5 427/3/5 426/3/5
f 431/3/5 427/3/5 430/3/5
f 434/2/5 433/2/5 432/2/5
f 435/2/5 433/2/5 434/2/5
f 439/3/5 437/3/5 436/3/5
f 440/3/5 437/3/5 439/3/5
f 441/3/5 437/3/5 440/3/5
f 442/3/5 439/3/5 438/3/5
f 442/3/5 440/3/5 439/3/5
f 443/3/5 440/3/5 442/3/5
f 446/3/5 445/3/5 444/3/5
f 447/3/5 445/3/5 446/3/5
f 450/3/5 449/3/5 448/3/5
f 451/3/5 449/3/5 450/3/5
f 454/3/5 453/3/5 452/3/5
f 455/3/5 453/3/5 454/3/5
f 456/3/6 457/3/6 458/3/6
f 458/3/6 457/3/6 459/3/6
f 460/2/6 461/2/6 464/2/6
f 464/2/6 461/2/6 465/2/6
f 462/3/6 463/3/6 466/3/6
f 466/3/6 463/3/6 467/3/6
f 465/1/6 466/1/6 471/1/6
f 466/1/6 467/1/6 471/1/6
f 471/1/6 467/1/6 472/1/6
f 467/3/6 468/3/6 473/3/6
f 472/1/6 467/1/6 473/1/6
f 473/3/6 468/3/6 474/3/6
f 469/3/6 470/3/6 475/3/6
f 472/1/6 473/1/6 477/1/6
f 477/1/6 473/1/6 478/1/6
f 475/3/6 476/3/6 479/3/6
f 469/3/6 475/3/6 479/3/6
f 479/3/6 476/3/6 480/3/6
f 480/3/6 476/3/6 483/3/6
f 483/3/6 476/3/6 484/3/6
f 481/3/6 482/3/6 485/3/6
f 485/3/6 482/3/6 486/3/6
f 487/3/6 488/3/6 489/3/6
f 487/3/6 489/3/6 492/3/6
f 492/3/6 489/3/6 493/3/6
f 490/1/6 491/1/6 494/1/6
f 494/1/6 491/1/6 495/1/6
f 496/2/6 497/2/6 500/2/6
f 500/2/6 497/2/6 501/2/6
f 498/3/6 499/3/6 502/3/6
f 502/3/6 499/3/6 503/3/6
f 504/3/6 505/3/6 507/3/6
f 506/3/6 507/3/6 508/3/6
f 507/3/6 505/3/6 509/3/6
f 508/3/6 507/3/6 509/3/6
f 510/2/6 511/2/6 512/2/6
f 512/2/6 511/2/6 513/2/6
f 513/2/6 514/2/6 517/2/6
f 514/1/6 515/1/6 518/1/6
f 517/2/6 514/2/6 518/2/6
f 518/1/6 515/1/6 519/1/6
f 516/3/6 517/3/6 522/3/6
f 522/3/6 517/3/6 523/3/6
f 520/2/6 521/2/6 524/2/6
f 524/2/6 521/2/6 525/2/6
f 526/3/6 527/3/6 528/3/6
f 528/3/6 527/3/6 529/3/6
f 530/2/6 531/2/6 532/2/6
f 532/2/6 531/2/6 533/2/6
f 534/3/6 535/3/6 538/3/6
f 538/3/6 535/3/6 539/3/6
f 536/3/6 537/3/6 540/3/6
f 540/3/6 537/3/6 541/3/6
f 541/3/6 537/3/6 542/3/6
f 539/3/6 540/3/6 543/3/6
f 540/3/6 541/3/6 543/3/6
f 543/3/6 541/3/6 544/3/6
f 545/3/6 546/3/6 547/3/6
f 547/3/6 546/3/6 548/3/6
f 548/3/6 549/3/6 550/3/6
f 550/3/6 549/3/6 551/3/6
f 552/3/6 553/3/6 554/3/6
f 554/3/6 553/3/6 555/3/6
f 556/3/6 557/3/6 558/3/6
f 558/3/6 557/3/6 559/3/6
