# MagicaVoxel @ Ephtracy

# group
g fire_1

# material
mtllib fire_1.mtl
usemtl palette

# normals
vn -1 0 0
vn 1 0 0
vn 0 0 1
vn 0 0 -1
vn 0 -1 0
vn 0 1 0

# texcoords
vt 0.0449219 0.5
vt 0.0917969 0.5
vt 0.279297 0.5

# verts
v -3.5 5 -0
v -3.5 5 -1
v -3.5 6 1
v -3.5 6 -0
v -3.5 7 1
v -3.5 7 -1
v -2.5 3 1
v -2.5 3 -2
v -2.5 4 1
v -2.5 4 -2
v -2.5 5 1
v -2.5 5 -0
v -2.5 6 1
v -2.5 6 -0
v -2.5 7 -0
v -2.5 7 -1
v -2.5 8 -0
v -2.5 8 -1
v -2.5 11 1
v -2.5 11 -0
v -2.5 12 1
v -2.5 12 -0
v -1.5 2 -0
v -1.5 2 -1
v -1.5 3 2
v -1.5 3 1
v -1.5 3 -0
v -1.5 3 -1
v -1.5 3 -2
v -1.5 3 -3
v -1.5 4 2
v -1.5 4 1
v -1.5 4 -0
v -1.5 4 -2
v -1.5 4 -3
v -1.5 5 1
v -1.5 5 -0
v -1.5 5 -1
v -1.5 5 -2
v -1.5 5 -3
v -1.5 6 -1
v -1.5 6 -3
v -1.5 7 -1
v -1.5 7 -3
v -1.5 8 -1
v -1.5 8 -2
v -1.5 10 -2
v -1.5 10 -3
v -1.5 12 1
v -1.5 12 -0
v -1.5 13 1
v -1.5 13 -0
v -0.5 2 1
v -0.5 2 -0
v -0.5 2 -1
v -0.5 2 -2
v -0.5 3 1
v -0.5 3 -0
v -0.5 3 -1
v -0.5 3 -2
v -0.5 6 1
v -0.5 6 -0
v -0.5 6 -1
v -0.5 6 -2
v -0.5 7 1
v -0.5 7 -0
v -0.5 7 -1
v -0.5 7 -2
v -0.5 8 -1
v -0.5 8 -2
v -0.5 9 -1
v -0.5 9 -2
v 0.5 4 2
v 0.5 4 1
v 0.5 5 2
v 0.5 5 1
v 0.5 5 -0
v 0.5 5 -1
v 0.5 5 -2
v 0.5 6 2
v 0.5 6 1
v 0.5 6 -0
v 0.5 6 -1
v 0.5 6 -2
v 0.5 11 -1
v 0.5 11 -2
v 0.5 12 -1
v 0.5 12 -2
v 1.5 6 -0
v 1.5 6 -1
v 1.5 7 -0
v 1.5 7 -1
v 2.5 5 3
v 2.5 5 2
v 2.5 6 3
v 2.5 6 2
v -2.5 6 1
v -2.5 6 -0
v -2.5 7 1
v -2.5 7 -0
v -1.5 5 1
v -1.5 5 -0
v -1.5 6 1
v -1.5 6 -0
v -1.5 11 1
v -1.5 11 -0
v -1.5 12 1
v -1.5 12 -0
v -0.5 5 -1
v -0.5 5 -2
v -0.5 6 -1
v -0.5 6 -2
v -0.5 9 -2
v -0.5 9 -3
v -0.5 10 -2
v -0.5 10 -3
v -0.5 12 1
v -0.5 12 -0
v -0.5 13 1
v -0.5 13 -0
v 0.5 2 1
v 0.5 2 -0
v 0.5 2 -1
v 0.5 2 -2
v 0.5 3 1
v 0.5 3 -0
v 0.5 3 -1
v 0.5 3 -2
v 0.5 6 -0
v 0.5 6 -1
v 0.5 7 -0
v 0.5 7 -1
v 1.5 2 -0
v 1.5 2 -1
v 1.5 3 2
v 1.5 3 1
v 1.5 3 -0
v 1.5 3 -1
v 1.5 3 -2
v 1.5 3 -3
v 1.5 4 2
v 1.5 4 1
v 1.5 4 -2
v 1.5 4 -3
v 1.5 5 2
v 1.5 5 1
v 1.5 5 -0
v 1.5 5 -2
v 1.5 5 -3
v 1.5 6 -0
v 1.5 6 -2
v 1.5 6 -3
v 1.5 7 -0
v 1.5 7 -1
v 1.5 7 -2
v 1.5 7 -3
v 1.5 8 -0
v 1.5 8 -1
v 1.5 8 -2
v 1.5 9 -1
v 1.5 9 -3
v 1.5 11 -1
v 1.5 11 -2
v 1.5 12 -1
v 1.5 12 -2
v 2.5 3 1
v 2.5 3 -2
v 2.5 4 1
v 2.5 4 -0
v 2.5 5 1
v 2.5 5 -0
v 2.5 5 -2
v 2.5 6 1
v 2.5 6 -0
v 2.5 6 -2
v 2.5 7 -0
v 2.5 7 -1
v 2.5 8 -1
v 2.5 8 -2
v 3.5 5 3
v 3.5 5 1
v 3.5 6 3
v 3.5 6 1
v 3.5 6 -0
v 3.5 7 1
v 3.5 7 -0
v 2.5 5 3
v 2.5 6 3
v 3.5 5 3
v 3.5 6 3
v -1.5 3 2
v -1.5 4 2
v -0.5 3 2
v -0.5 4 2
v 0.5 3 2
v 0.5 4 2
v 0.5 5 2
v 0.5 6 2
v 1.5 3 2
v 1.5 4 2
v 1.5 5 2
v 1.5 6 2
v 2.5 5 2
v 2.5 6 2
v -3.5 6 1
v -3.5 7 1
v -2.5 3 1
v -2.5 4 1
v -2.5 5 1
v -2.5 6 1
v -2.5 7 1
v -2.5 11 1
v -2.5 12 1
v -1.5 3 1
v -1.5 4 1
v -1.5 5 1
v -1.5 6 1
v -1.5 11 1
v -1.5 12 1
v -1.5 13 1
v -0.5 2 1
v -0.5 3 1
v -0.5 4 1
v -0.5 6 1
v -0.5 7 1
v -0.5 12 1
v -0.5 13 1
v 0.5 2 1
v 0.5 3 1
v 0.5 4 1
v 0.5 5 1
v 0.5 6 1
v 0.5 7 1
v 1.5 3 1
v 1.5 4 1
v 1.5 5 1
v 1.5 6 1
v 2.5 3 1
v 2.5 4 1
v 2.5 5 1
v 2.5 6 1
v 2.5 7 1
v 3.5 6 1
v 3.5 7 1
v -3.5 5 -0
v -3.5 6 -0
v -2.5 5 -0
v -2.5 6 -0
v -2.5 7 -0
v -2.5 8 -0
v -1.5 2 -0
v -1.5 3 -0
v -1.5 5 -0
v -1.5 6 -0
v -1.5 7 -0
v -1.5 8 -0
v -0.5 2 -0
v -0.5 3 -0
v -0.5 5 -0
v -0.5 6 -0
v -0.5 7 -0
v -0.5 8 -0
v 0.5 2 -0
v 0.5 3 -0
v 0.5 5 -0
v 0.5 6 -0
v 0.5 7 -0
v 0.5 8 -0
v 1.5 2 -0
v 1.5 3 -0
v 1.5 7 -0
v 1.5 8 -0
v -0.5 8 -1
v -0.5 9 -1
v 0.5 6 -1
v 0.5 7 -1
v 0.5 8 -1
v 0.5 11 -1
v 0.5 12 -1
v 1.5 6 -1
v 1.5 7 -1
v 1.5 8 -1
v 1.5 9 -1
v 1.5 11 -1
v 1.5 12 -1
v 2.5 7 -1
v 2.5 8 -1
v -1.5 8 -2
v -1.5 10 -2
v -0.5 5 -2
v -0.5 6 -2
v -0.5 8 -2
v -0.5 9 -2
v -0.5 10 -2
v 0.5 5 -2
v 0.5 6 -2
v 2.5 5 1
v 2.5 6 1
v 3.5 5 1
v 3.5 6 1
v -2.5 11 -0
v -2.5 12 -0
v -1.5 11 -0
v -1.5 12 -0
v -1.5 13 -0
v -0.5 12 -0
v -0.5 13 -0
v 0.5 6 -0
v 0.5 7 -0
v 1.5 5 -0
v 1.5 6 -0
v 1.5 7 -0
v 2.5 5 -0
v 2.5 6 -0
v 2.5 7 -0
v 3.5 6 -0
v 3.5 7 -0
v -3.5 5 -1
v -3.5 7 -1
v -2.5 6 -1
v -2.5 7 -1
v -2.5 8 -1
v -1.5 2 -1
v -1.5 3 -1
v -1.5 5 -1
v -1.5 6 -1
v -1.5 7 -1
v -1.5 8 -1
v -0.5 2 -1
v -0.5 3 -1
v -0.5 5 -1
v -0.5 6 -1
v -0.5 7 -1
v 0.5 2 -1
v 0.5 3 -1
v 0.5 5 -1
v 0.5 6 -1
v 1.5 2 -1
v 1.5 3 -1
v -2.5 3 -2
v -2.5 4 -2
v -1.5 3 -2
v -1.5 4 -2
v -1.5 5 -2
v -0.5 2 -2
v -0.5 3 -2
v -0.5 6 -2
v -0.5 7 -2
v 0.5 2 -2
v 0.5 3 -2
v 0.5 11 -2
v 0.5 12 -2
v 1.5 3 -2
v 1.5 4 -2
v 1.5 5 -2
v 1.5 6 -2
v 1.5 7 -2
v 1.5 8 -2
v 1.5 11 -2
v 1.5 12 -2
v 2.5 3 -2
v 2.5 5 -2
v 2.5 6 -2
v 2.5 8 -2
v -1.5 3 -3
v -1.5 4 -3
v -1.5 5 -3
v -1.5 6 -3
v -1.5 7 -3
v -1.5 10 -3
v -0.5 9 -3
v -0.5 10 -3
v 1.5 3 -3
v 1.5 4 -3
v 1.5 5 -3
v 1.5 6 -3
v 1.5 7 -3
v 1.5 9 -3
v -0.5 2 1
v 0.5 2 1
v -1.5 2 -0
v -0.5 2 -0
v 0.5 2 -0
v 1.5 2 -0
v -1.5 2 -1
v -0.5 2 -1
v 0.5 2 -1
v 1.5 2 -1
v -0.5 2 -2
v 0.5 2 -2
v -1.5 3 2
v -0.5 3 2
v 0.5 3 2
v 1.5 3 2
v -2.5 3 1
v -1.5 3 1
v -0.5 3 1
v 0.5 3 1
v 1.5 3 1
v 2.5 3 1
v -1.5 3 -0
v -0.5 3 -0
v 0.5 3 -0
v 1.5 3 -0
v -1.5 3 -1
v -0.5 3 -1
v 0.5 3 -1
v 1.5 3 -1
v -2.5 3 -2
v -1.5 3 -2
v -0.5 3 -2
v 0.5 3 -2
v 1.5 3 -2
v 2.5 3 -2
v -1.5 3 -3
v 1.5 3 -3
v 2.5 5 3
v 3.5 5 3
v 1.5 5 2
v 2.5 5 2
v -2.5 5 1
v -1.5 5 1
v 1.5 5 1
v 2.5 5 1
v 3.5 5 1
v -3.5 5 -0
v -2.5 5 -0
v -1.5 5 -0
v -3.5 5 -1
v -1.5 5 -1
v -1.5 5 -2
v 1.5 5 -2
v -1.5 5 -3
v 1.5 5 -3
v -3.5 6 1
v -2.5 6 1
v -0.5 6 1
v 0.5 6 1
v 2.5 6 1
v 3.5 6 1
v -3.5 6 -0
v -2.5 6 -0
v -0.5 6 -0
v 0.5 6 -0
v 1.5 6 -0
v 2.5 6 -0
v 3.5 6 -0
v -0.5 6 -1
v 0.5 6 -1
v -0.5 6 -2
v 0.5 6 -2
v 1.5 6 -2
v 2.5 6 -2
v 0.5 7 -0
v 1.5 7 -0
v -1.5 7 -1
v -0.5 7 -1
v 0.5 7 -1
v 1.5 7 -1
v -0.5 7 -2
v 1.5 7 -2
v -1.5 7 -3
v 1.5 7 -3
v -2.5 11 1
v -1.5 11 1
v -2.5 11 -0
v -1.5 11 -0
v 0.5 11 -1
v 1.5 11 -1
v 0.5 11 -2
v 1.5 11 -2
v -1.5 12 1
v -0.5 12 1
v -1.5 12 -0
v -0.5 12 -0
v -1.5 4 2
v -0.5 4 2
v 0.5 4 2
v -2.5 4 1
v -1.5 4 1
v -0.5 4 1
v 0.5 4 1
v -1.5 4 -0
v -2.5 4 -2
v -1.5 4 -2
v 1.5 4 -2
v -1.5 4 -3
v 1.5 4 -3
v -1.5 5 1
v 0.5 5 1
v -1.5 5 -0
v -0.5 5 -0
v 0.5 5 -0
v 1.5 5 -0
v 2.5 5 -0
v -0.5 5 -1
v 0.5 5 -1
v -0.5 5 -2
v 0.5 5 -2
v 1.5 5 -2
v 2.5 5 -2
v 2.5 6 3
v 3.5 6 3
v 0.5 6 2
v 1.5 6 2
v 2.5 6 2
v -2.5 6 1
v -1.5 6 1
v 0.5 6 1
v 1.5 6 1
v 2.5 6 1
v 3.5 6 1
v -2.5 6 -0
v -1.5 6 -0
v 0.5 6 -0
v 1.5 6 -0
v -1.5 6 -1
v -0.5 6 -1
v 0.5 6 -1
v 1.5 6 -1
v -0.5 6 -2
v 1.5 6 -2
v -1.5 6 -3
v 1.5 6 -3
v -3.5 7 1
v -2.5 7 1
v -0.5 7 1
v 0.5 7 1
v 2.5 7 1
v 3.5 7 1
v -2.5 7 -0
v -0.5 7 -0
v 0.5 7 -0
v 1.5 7 -0
v 2.5 7 -0
v 3.5 7 -0
v -3.5 7 -1
v -2.5 7 -1
v 1.5 7 -1
v 2.5 7 -1
v -2.5 8 -0
v -1.5 8 -0
v -0.5 8 -0
v 0.5 8 -0
v 1.5 8 -0
v -2.5 8 -1
v -1.5 8 -1
v -0.5 8 -1
v 0.5 8 -1
v 1.5 8 -1
v 2.5 8 -1
v -1.5 8 -2
v -0.5 8 -2
v 1.5 8 -2
v 2.5 8 -2
v -0.5 9 -1
v 1.5 9 -1
v -0.5 9 -2
v -0.5 9 -3
v 1.5 9 -3
v -1.5 10 -2
v -0.5 10 -2
v -1.5 10 -3
v -0.5 10 -3
v -2.5 12 1
v -1.5 12 1
v -2.5 12 -0
v -1.5 12 -0
v 0.5 12 -1
v 1.5 12 -1
v 0.5 12 -2
v 1.5 12 -2
v -1.5 13 1
v -0.5 13 1
v -1.5 13 -0
v -0.5 13 -0

# faces
f 4/3/1 2/3/1 1/3/1
f 5/3/1 4/3/1 3/3/1
f 6/3/1 2/3/1 4/3/1
f 6/3/1 4/3/1 5/3/1
f 9/3/1 8/3/1 7/3/1
f 10/3/1 8/3/1 9/3/1
f 13/2/1 12/2/1 11/2/1
f 14/2/1 12/2/1 13/2/1
f 17/3/1 16/3/1 15/3/1
f 18/3/1 16/3/1 17/3/1
f 21/3/1 20/3/1 19/3/1
f 22/3/1 20/3/1 21/3/1
f 27/3/1 24/3/1 23/3/1
f 28/3/1 24/3/1 27/3/1
f 31/3/1 26/3/1 25/3/1
f 32/3/1 26/3/1 31/3/1
f 34/3/1 30/3/1 29/3/1
f 35/3/1 30/3/1 34/3/1
f 36/1/1 33/1/1 32/1/1
f 37/3/1 34/3/1 33/3/1
f 37/1/1 33/1/1 36/1/1
f 38/3/1 34/3/1 37/3/1
f 39/3/1 34/3/1 38/3/1
f 41/3/1 40/3/1 39/3/1
f 41/3/1 39/3/1 38/3/1
f 42/3/1 40/3/1 41/3/1
f 45/3/1 44/3/1 43/3/1
f 46/3/1 44/3/1 45/3/1
f 47/3/1 44/3/1 46/3/1
f 48/3/1 44/3/1 47/3/1
f 51/3/1 50/3/1 49/3/1
f 52/3/1 50/3/1 51/3/1
f 57/3/1 54/3/1 53/3/1
f 58/3/1 54/3/1 57/3/1
f 59/3/1 56/3/1 55/3/1
f 60/3/1 56/3/1 59/3/1
f 65/1/1 62/1/1 61/1/1
f 66/1/1 62/1/1 65/1/1
f 67/3/1 64/3/1 63/3/1
f 68/3/1 64/3/1 67/3/1
f 71/3/1 70/3/1 69/3/1
f 72/3/1 70/3/1 71/3/1
f 75/2/1 74/2/1 73/2/1
f 76/2/1 74/2/1 75/2/1
f 80/1/1 76/1/1 75/1/1
f 81/3/1 77/3/1 76/3/1
f 81/1/1 76/1/1 80/1/1
f 82/3/1 77/3/1 81/3/1
f 83/3/1 79/3/1 78/3/1
f 84/3/1 79/3/1 83/3/1
f 87/3/1 86/3/1 85/3/1
f 88/3/1 86/3/1 87/3/1
f 91/3/1 90/3/1 89/3/1
f 92/3/1 90/3/1 91/3/1
f 95/3/1 94/3/1 93/3/1
f 96/3/1 94/3/1 95/3/1
f 97/3/2 98/3/2 99/3/2
f 99/3/2 98/3/2 100/3/2
f 101/2/2 102/2/2 103/2/2
f 103/2/2 102/2/2 104/2/2
f 105/3/2 106/3/2 107/3/2
f 107/3/2 106/3/2 108/3/2
f 109/3/2 110/3/2 111/3/2
f 111/3/2 110/3/2 112/3/2
f 113/3/2 114/3/2 115/3/2
f 115/3/2 114/3/2 116/3/2
f 117/3/2 118/3/2 119/3/2
f 119/3/2 118/3/2 120/3/2
f 121/3/2 122/3/2 125/3/2
f 125/3/2 122/3/2 126/3/2
f 123/3/2 124/3/2 127/3/2
f 127/3/2 124/3/2 128/3/2
f 129/3/2 130/3/2 131/3/2
f 131/3/2 130/3/2 132/3/2
f 133/3/2 134/3/2 137/3/2
f 137/3/2 134/3/2 138/3/2
f 135/3/2 136/3/2 141/3/2
f 141/3/2 136/3/2 142/3/2
f 139/3/2 140/3/2 143/3/2
f 143/3/2 140/3/2 144/3/2
f 141/2/2 142/2/2 145/2/2
f 145/2/2 142/2/2 146/2/2
f 148/3/2 149/3/2 150/3/2
f 147/3/2 148/3/2 150/3/2
f 150/3/2 149/3/2 151/3/2
f 151/3/2 149/3/2 152/3/2
f 153/2/2 154/2/2 157/2/2
f 157/2/2 154/2/2 158/2/2
f 155/3/2 156/3/2 159/3/2
f 158/3/2 159/3/2 160/3/2
f 159/3/2 156/3/2 161/3/2
f 160/3/2 159/3/2 161/3/2
f 162/3/2 163/3/2 164/3/2
f 164/3/2 163/3/2 165/3/2
f 166/3/2 167/3/2 168/3/2
f 168/3/2 167/3/2 169/3/2
f 168/2/2 169/2/2 170/2/2
f 169/3/2 167/3/2 171/3/2
f 170/2/2 169/2/2 171/2/2
f 171/3/2 167/3/2 172/3/2
f 170/3/2 171/3/2 173/3/2
f 173/3/2 171/3/2 174/3/2
f 174/3/2 175/3/2 176/3/2
f 176/3/2 175/3/2 177/3/2
f 177/3/2 175/3/2 178/3/2
f 178/3/2 175/3/2 179/3/2
f 180/3/2 181/3/2 182/3/2
f 182/3/2 181/3/2 183/3/2
f 183/3/2 184/3/2 185/3/2
f 185/3/2 184/3/2 186/3/2
f 189/3/3 188/3/3 187/3/3
f 190/3/3 188/3/3 189/3/3
f 193/3/3 192/3/3 191/3/3
f 194/3/3 192/3/3 193/3/3
f 195/2/3 194/2/3 193/2/3
f 196/2/3 194/2/3 195/2/3
f 199/3/3 196/3/3 195/3/3
f 200/2/3 197/2/3 196/2/3
f 200/3/3 196/3/3 199/3/3
f 201/1/3 198/1/3 197/1/3
f 201/2/3 197/2/3 200/2/3
f 202/1/3 198/1/3 201/1/3
f 203/2/3 202/2/3 201/2/3
f 204/2/3 202/2/3 203/2/3
f 210/3/3 206/3/3 205/3/3
f 211/3/3 206/3/3 210/3/3
f 214/3/3 208/3/3 207/3/3
f 215/3/3 208/3/3 214/3/3
f 216/2/3 210/2/3 209/2/3
f 217/2/3 210/2/3 216/2/3
f 218/3/3 213/3/3 212/3/3
f 219/3/3 213/3/3 218/3/3
f 223/1/3 216/1/3 215/1/3
f 226/3/3 220/3/3 219/3/3
f 227/3/3 220/3/3 226/3/3
f 228/3/3 222/3/3 221/3/3
f 229/3/3 222/3/3 228/3/3
f 230/1/3 216/1/3 223/1/3
f 231/1/3 216/1/3 230/1/3
f 232/1/3 225/1/3 224/1/3
f 233/1/3 225/1/3 232/1/3
f 237/2/3 233/2/3 232/2/3
f 238/3/3 235/3/3 234/3/3
f 239/2/3 236/2/3 235/2/3
f 239/3/3 235/3/3 238/3/3
f 240/2/3 236/2/3 239/2/3
f 241/2/3 233/2/3 237/2/3
f 242/2/3 233/2/3 241/2/3
f 243/3/3 242/3/3 241/3/3
f 244/3/3 242/3/3 243/3/3
f 247/3/3 246/3/3 245/3/3
f 248/3/3 246/3/3 247/3/3
f 254/2/3 249/2/3 248/2/3
f 255/3/3 250/3/3 249/3/3
f 255/2/3 249/2/3 254/2/3
f 256/3/3 250/3/3 255/3/3
f 257/3/3 252/3/3 251/3/3
f 258/3/3 252/3/3 257/3/3
f 259/2/3 254/2/3 253/2/3
f 259/2/3 255/2/3 254/2/3
f 259/2/3 256/2/3 255/2/3
f 260/2/3 256/2/3 259/2/3
f 261/2/3 256/2/3 260/2/3
f 262/2/3 256/2/3 261/2/3
f 265/1/3 260/1/3 259/1/3
f 266/1/3 260/1/3 265/1/3
f 267/3/3 262/3/3 261/3/3
f 268/3/3 262/3/3 267/3/3
f 269/3/3 264/3/3 263/3/3
f 270/3/3 264/3/3 269/3/3
f 271/2/3 268/2/3 267/2/3
f 272/2/3 268/2/3 271/2/3
f 277/3/3 274/3/3 273/3/3
f 280/3/3 276/3/3 275/3/3
f 281/3/3 276/3/3 280/3/3
f 282/3/3 274/3/3 277/3/3
f 283/3/3 274/3/3 282/3/3
f 284/3/3 279/3/3 278/3/3
f 285/3/3 279/3/3 284/3/3
f 286/3/3 282/3/3 281/3/3
f 287/3/3 282/3/3 286/3/3
f 292/3/3 289/3/3 288/3/3
f 293/3/3 289/3/3 292/3/3
f 294/3/3 289/3/3 293/3/3
f 295/3/3 291/3/3 290/3/3
f 296/3/3 291/3/3 295/3/3
f 297/3/4 298/3/4 299/3/4
f 299/3/4 298/3/4 300/3/4
f 301/3/4 302/3/4 303/3/4
f 303/3/4 302/3/4 304/3/4
f 304/3/4 305/3/4 306/3/4
f 306/3/4 305/3/4 307/3/4
f 308/2/4 309/2/4 311/2/4
f 311/2/4 309/2/4 312/2/4
f 310/3/4 311/3/4 313/3/4
f 313/3/4 311/3/4 314/3/4
f 314/3/4 315/3/4 316/3/4
f 316/3/4 315/3/4 317/3/4
f 318/3/4 319/3/4 320/3/4
f 320/3/4 319/3/4 321/3/4
f 318/3/4 320/3/4 325/3/4
f 320/2/4 321/2/4 326/2/4
f 325/3/4 320/3/4 326/3/4
f 321/3/4 322/3/4 327/3/4
f 326/2/4 321/2/4 327/2/4
f 327/3/4 322/3/4 328/3/4
f 323/3/4 324/3/4 329/3/4
f 329/3/4 324/3/4 330/3/4
f 326/2/4 327/2/4 332/2/4
f 332/2/4 327/2/4 333/2/4
f 331/1/4 332/1/4 336/1/4
f 336/1/4 332/1/4 337/1/4
f 334/3/4 335/3/4 338/3/4
f 338/3/4 335/3/4 339/3/4
f 340/3/4 341/3/4 342/3/4
f 342/3/4 341/3/4 343/3/4
f 345/3/4 346/3/4 349/3/4
f 349/3/4 346/3/4 350/3/4
f 343/3/4 344/3/4 354/3/4
f 354/3/4 344/3/4 355/3/4
f 347/3/4 348/3/4 356/3/4
f 356/3/4 348/3/4 357/3/4
f 351/3/4 352/3/4 359/3/4
f 359/3/4 352/3/4 360/3/4
f 354/3/4 355/3/4 361/3/4
f 353/3/4 354/3/4 361/3/4
f 361/3/4 355/3/4 362/3/4
f 357/3/4 358/3/4 363/3/4
f 356/3/4 357/3/4 363/3/4
f 363/3/4 358/3/4 364/3/4
f 369/3/4 370/3/4 371/3/4
f 371/3/4 370/3/4 372/3/4
f 365/3/4 366/3/4 373/3/4
f 373/3/4 366/3/4 374/3/4
f 367/3/4 368/3/4 375/3/4
f 375/3/4 368/3/4 376/3/4
f 369/3/4 371/3/4 377/3/4
f 377/3/4 371/3/4 378/3/4
f 382/3/5 380/3/5 379/3/5
f 383/3/5 380/3/5 382/3/5
f 385/3/5 382/3/5 381/3/5
f 385/3/5 384/3/5 383/3/5
f 385/3/5 383/3/5 382/3/5
f 386/3/5 384/3/5 385/3/5
f 387/3/5 384/3/5 386/3/5
f 388/3/5 384/3/5 387/3/5
f 389/3/5 387/3/5 386/3/5
f 390/3/5 387/3/5 389/3/5
f 396/3/5 392/3/5 391/3/5
f 397/2/5 393/2/5 392/2/5
f 397/3/5 392/3/5 396/3/5
f 398/3/5 394/3/5 393/3/5
f 398/2/5 393/2/5 397/2/5
f 399/3/5 394/3/5 398/3/5
f 401/3/5 397/3/5 396/3/5
f 401/3/5 396/3/5 395/3/5
f 402/3/5 397/3/5 401/3/5
f 403/3/5 400/3/5 399/3/5
f 403/3/5 399/3/5 398/3/5
f 404/3/5 400/3/5 403/3/5
f 405/3/5 401/3/5 395/3/5
f 408/3/5 400/3/5 404/3/5
f 409/3/5 406/3/5 405/3/5
f 409/3/5 405/3/5 395/3/5
f 410/3/5 406/3/5 409/3/5
f 411/3/5 406/3/5 410/3/5
f 412/3/5 408/3/5 407/3/5
f 413/3/5 400/3/5 408/3/5
f 413/3/5 408/3/5 412/3/5
f 414/3/5 400/3/5 413/3/5
f 415/3/5 411/3/5 410/3/5
f 415/3/5 412/3/5 411/3/5
f 415/3/5 413/3/5 412/3/5
f 416/3/5 413/3/5 415/3/5
f 420/3/5 418/3/5 417/3/5
f 423/2/5 420/2/5 419/2/5
f 424/3/5 418/3/5 420/3/5
f 424/2/5 420/2/5 423/2/5
f 425/3/5 418/3/5 424/3/5
f 427/2/5 422/2/5 421/2/5
f 428/2/5 422/2/5 427/2/5
f 429/3/5 427/3/5 426/3/5
f 429/3/5 428/3/5 427/3/5
f 430/3/5 428/3/5 429/3/5
f 433/3/5 432/3/5 431/3/5
f 434/3/5 432/3/5 433/3/5
f 441/3/5 436/3/5 435/3/5
f 442/3/5 436/3/5 441/3/5
f 443/1/5 438/1/5 437/1/5
f 444/1/5 438/1/5 443/1/5
f 446/3/5 440/3/5 439/3/5
f 447/3/5 440/3/5 446/3/5
f 450/3/5 449/3/5 448/3/5
f 451/3/5 449/3/5 450/3/5
f 452/3/5 446/3/5 445/3/5
f 453/3/5 446/3/5 452/3/5
f 458/2/5 455/2/5 454/2/5
f 459/2/5 455/2/5 458/2/5
f 460/3/5 457/3/5 456/3/5
f 462/3/5 460/3/5 456/3/5
f 462/3/5 461/3/5 460/3/5
f 463/3/5 461/3/5 462/3/5
f 466/3/5 465/3/5 464/3/5
f 467/3/5 465/3/5 466/3/5
f 470/3/5 469/3/5 468/3/5
f 471/3/5 469/3/5 470/3/5
f 474/3/5 473/3/5 472/3/5
f 475/3/5 473/3/5 474/3/5
f 476/3/6 477/3/6 480/3/6
f 477/2/6 478/2/6 481/2/6
f 480/3/6 477/3/6 481/3/6
f 481/2/6 478/2/6 482/2/6
f 479/3/6 480/3/6 483/3/6
f 479/3/6 483/3/6 484/3/6
f 484/3/6 483/3/6 485/3/6
f 485/3/6 486/3/6 487/3/6
f 487/3/6 486/3/6 488/3/6
f 489/1/6 490/1/6 491/1/6
f 491/1/6 490/1/6 492/1/6
f 492/1/6 490/1/6 493/1/6
f 496/3/6 497/3/6 498/3/6
f 498/3/6 497/3/6 499/3/6
f 494/3/6 495/3/6 500/3/6
f 500/3/6 495/3/6 501/3/6
f 502/3/6 503/3/6 506/3/6
f 504/1/6 505/1/6 509/1/6
f 505/2/6 506/2/6 510/2/6
f 509/1/6 505/1/6 510/1/6
f 506/3/6 503/3/6 511/3/6
f 510/2/6 506/2/6 511/2/6
f 511/3/6 503/3/6 512/3/6
f 507/2/6 508/2/6 513/2/6
f 513/2/6 508/2/6 514/2/6
f 515/3/6 516/3/6 519/3/6
f 519/3/6 516/3/6 520/3/6
f 517/3/6 518/3/6 521/3/6
f 517/3/6 521/3/6 523/3/6
f 521/3/6 522/3/6 523/3/6
f 523/3/6 522/3/6 524/3/6
f 525/3/6 526/3/6 531/3/6
f 527/1/6 528/1/6 532/1/6
f 528/2/6 529/2/6 533/2/6
f 532/1/6 528/1/6 533/1/6
f 533/2/6 529/2/6 534/2/6
f 529/3/6 530/3/6 535/3/6
f 534/2/6 529/2/6 535/2/6
f 535/3/6 530/3/6 536/3/6
f 525/3/6 531/3/6 537/3/6
f 537/3/6 531/3/6 538/3/6
f 534/3/6 535/3/6 539/3/6
f 539/3/6 535/3/6 540/3/6
f 541/3/6 542/3/6 546/3/6
f 542/2/6 543/2/6 547/2/6
f 546/3/6 542/3/6 547/3/6
f 543/3/6 544/3/6 548/3/6
f 547/2/6 543/2/6 548/2/6
f 544/2/6 545/2/6 549/2/6
f 548/3/6 544/3/6 549/3/6
f 549/2/6 545/2/6 550/2/6
f 547/3/6 548/3/6 552/3/6
f 552/3/6 548/3/6 553/3/6
f 550/3/6 551/3/6 554/3/6
f 554/3/6 551/3/6 555/3/6
f 556/3/6 557/3/6 558/3/6
f 558/3/6 557/3/6 559/3/6
f 559/3/6 557/3/6 560/3/6
f 561/3/6 562/3/6 563/3/6
f 563/3/6 562/3/6 564/3/6
f 565/3/6 566/3/6 567/3/6
f 567/3/6 566/3/6 568/3/6
f 569/3/6 570/3/6 571/3/6
f 571/3/6 570/3/6 572/3/6
f 573/3/6 574/3/6 575/3/6
f 575/3/6 574/3/6 576/3/6
