# MagicaVoxel @ Ephtracy

# group
g cloud_1

# material
mtllib cloud_1.mtl
usemtl palette

# normals
vn -1 0 0
vn 1 0 0
vn 0 0 1
vn 0 0 -1
vn 0 -1 0
vn 0 1 0

# texcoords
vt 0.958984 0.5

# verts
v -17.5 0 5.5
v -17.5 0 2.5
v -17.5 3 5.5
v -17.5 3 2.5
v -13.5 0 -0.5
v -13.5 0 -5.5
v -13.5 4 -0.5
v -13.5 4 -5.5
v -8.5 4 0.5
v -8.5 4 -5.5
v -8.5 9 0.5
v -8.5 9 -5.5
v -6.5 6 1.5
v -6.5 6 0.5
v -6.5 6 -5.5
v -6.5 6 -7.5
v -6.5 9 0.5
v -6.5 9 -5.5
v -6.5 13 1.5
v -6.5 13 -7.5
v -3.5 13 -1.5
v -3.5 13 -6.5
v -3.5 15 -1.5
v -3.5 15 -6.5
v -0.5 6 3.5
v -0.5 6 1.5
v -0.5 10 3.5
v -0.5 10 1.5
v 3.5 10 2.5
v 3.5 10 1.5
v 3.5 12 2.5
v 3.5 12 1.5
v 5.5 3 6.5
v 5.5 3 3.5
v 5.5 6 6.5
v 5.5 6 3.5
v -13.5 0 5.5
v -13.5 0 2.5
v -13.5 3 5.5
v -13.5 3 2.5
v -9.5 0 -0.5
v -9.5 0 -5.5
v -9.5 4 -0.5
v -9.5 4 -5.5
v -1.5 4 0.5
v -1.5 4 -5.5
v -1.5 6 0.5
v -1.5 6 -5.5
v 1.5 13 -1.5
v 1.5 13 -6.5
v 1.5 15 -1.5
v 1.5 15 -6.5
v 3.5 6 3.5
v 3.5 6 2.5
v 3.5 10 3.5
v 3.5 10 2.5
v 5.5 6 -5.5
v 5.5 6 -7.5
v 5.5 9 -3.5
v 5.5 9 -5.5
v 5.5 12 1.5
v 5.5 12 -3.5
v 5.5 13 1.5
v 5.5 13 -7.5
v 8.5 3 6.5
v 8.5 3 3.5
v 8.5 6 6.5
v 8.5 6 3.5
v 8.5 6 -3.5
v 8.5 6 -5.5
v 8.5 9 -3.5
v 8.5 9 -5.5
v 9.5 6 2.5
v 9.5 6 -3.5
v 9.5 12 2.5
v 9.5 12 -3.5
v 5.5 3 6.5
v 5.5 6 6.5
v 8.5 3 6.5
v 8.5 6 6.5
v -17.5 0 5.5
v -17.5 3 5.5
v -13.5 0 5.5
v -13.5 3 5.5
v -0.5 6 3.5
v -0.5 10 3.5
v 3.5 6 3.5
v 3.5 10 3.5
v 3.5 6 2.5
v 3.5 10 2.5
v 3.5 12 2.5
v 9.5 6 2.5
v 9.5 12 2.5
v -6.5 6 1.5
v -6.5 13 1.5
v -0.5 6 1.5
v -0.5 10 1.5
v 3.5 10 1.5
v 3.5 12 1.5
v 5.5 12 1.5
v 5.5 13 1.5
v -8.5 4 0.5
v -8.5 9 0.5
v -6.5 6 0.5
v -6.5 9 0.5
v -1.5 4 0.5
v -1.5 6 0.5
v -13.5 0 -0.5
v -13.5 4 -0.5
v -9.5 0 -0.5
v -9.5 4 -0.5
v -3.5 13 -1.5
v -3.5 15 -1.5
v 1.5 13 -1.5
v 1.5 15 -1.5
v 5.5 3 3.5
v 5.5 6 3.5
v 8.5 3 3.5
v 8.5 6 3.5
v -17.5 0 2.5
v -17.5 3 2.5
v -13.5 0 2.5
v -13.5 3 2.5
v 5.5 9 -3.5
v 5.5 12 -3.5
v 8.5 6 -3.5
v 8.5 9 -3.5
v 9.5 6 -3.5
v 9.5 12 -3.5
v -13.5 0 -5.5
v -13.5 4 -5.5
v -9.5 0 -5.5
v -9.5 4 -5.5
v -8.5 4 -5.5
v -8.5 9 -5.5
v -6.5 6 -5.5
v -6.5 9 -5.5
v -1.5 4 -5.5
v -1.5 6 -5.5
v 5.5 6 -5.5
v 5.5 9 -5.5
v 8.5 6 -5.5
v 8.5 9 -5.5
v -3.5 13 -6.5
v -3.5 15 -6.5
v 1.5 13 -6.5
v 1.5 15 -6.5
v -6.5 6 -7.5
v -6.5 13 -7.5
v 5.5 6 -7.5
v 5.5 13 -7.5
v -17.5 0 5.5
v -13.5 0 5.5
v -17.5 0 2.5
v -13.5 0 2.5
v -13.5 0 -0.5
v -9.5 0 -0.5
v -13.5 0 -5.5
v -9.5 0 -5.5
v 5.5 3 6.5
v 8.5 3 6.5
v 5.5 3 3.5
v 8.5 3 3.5
v -8.5 4 0.5
v -1.5 4 0.5
v -8.5 4 -5.5
v -1.5 4 -5.5
v -0.5 6 3.5
v 3.5 6 3.5
v 3.5 6 2.5
v 9.5 6 2.5
v -6.5 6 1.5
v -0.5 6 1.5
v -6.5 6 0.5
v -1.5 6 0.5
v 8.5 6 -3.5
v 9.5 6 -3.5
v -6.5 6 -5.5
v -1.5 6 -5.5
v 5.5 6 -5.5
v 8.5 6 -5.5
v -6.5 6 -7.5
v 5.5 6 -7.5
v -17.5 3 5.5
v -13.5 3 5.5
v -17.5 3 2.5
v -13.5 3 2.5
v -13.5 4 -0.5
v -9.5 4 -0.5
v -13.5 4 -5.5
v -9.5 4 -5.5
v 5.5 6 6.5
v 8.5 6 6.5
v 5.5 6 3.5
v 8.5 6 3.5
v -8.5 9 0.5
v -6.5 9 0.5
v 5.5 9 -3.5
v 8.5 9 -3.5
v -8.5 9 -5.5
v -6.5 9 -5.5
v 5.5 9 -5.5
v 8.5 9 -5.5
v -0.5 10 3.5
v 3.5 10 3.5
v 3.5 10 2.5
v -0.5 10 1.5
v 3.5 10 1.5
v 3.5 12 2.5
v 9.5 12 2.5
v 3.5 12 1.5
v 5.5 12 1.5
v 5.5 12 -3.5
v 9.5 12 -3.5
v -6.5 13 1.5
v 5.5 13 1.5
v -3.5 13 -1.5
v 1.5 13 -1.5
v -3.5 13 -6.5
v 1.5 13 -6.5
v -6.5 13 -7.5
v 5.5 13 -7.5
v -3.5 15 -1.5
v 1.5 15 -1.5
v -3.5 15 -6.5
v 1.5 15 -6.5

# faces
f 3/1/1 2/1/1 1/1/1
f 4/1/1 2/1/1 3/1/1
f 7/1/1 6/1/1 5/1/1
f 8/1/1 6/1/1 7/1/1
f 11/1/1 10/1/1 9/1/1
f 12/1/1 10/1/1 11/1/1
f 17/1/1 14/1/1 13/1/1
f 18/1/1 16/1/1 15/1/1
f 19/1/1 17/1/1 13/1/1
f 19/1/1 18/1/1 17/1/1
f 20/1/1 16/1/1 18/1/1
f 20/1/1 18/1/1 19/1/1
f 23/1/1 22/1/1 21/1/1
f 24/1/1 22/1/1 23/1/1
f 27/1/1 26/1/1 25/1/1
f 28/1/1 26/1/1 27/1/1
f 31/1/1 30/1/1 29/1/1
f 32/1/1 30/1/1 31/1/1
f 35/1/1 34/1/1 33/1/1
f 36/1/1 34/1/1 35/1/1
f 37/1/2 38/1/2 39/1/2
f 39/1/2 38/1/2 40/1/2
f 41/1/2 42/1/2 43/1/2
f 43/1/2 42/1/2 44/1/2
f 45/1/2 46/1/2 47/1/2
f 47/1/2 46/1/2 48/1/2
f 49/1/2 50/1/2 51/1/2
f 51/1/2 50/1/2 52/1/2
f 53/1/2 54/1/2 55/1/2
f 55/1/2 54/1/2 56/1/2
f 57/1/2 58/1/2 60/1/2
f 59/1/2 60/1/2 62/1/2
f 61/1/2 62/1/2 63/1/2
f 60/1/2 58/1/2 64/1/2
f 63/1/2 62/1/2 64/1/2
f 62/1/2 60/1/2 64/1/2
f 65/1/2 66/1/2 67/1/2
f 67/1/2 66/1/2 68/1/2
f 69/1/2 70/1/2 71/1/2
f 71/1/2 70/1/2 72/1/2
f 73/1/2 74/1/2 75/1/2
f 75/1/2 74/1/2 76/1/2
f 79/1/3 78/1/3 77/1/3
f 80/1/3 78/1/3 79/1/3
f 83/1/3 82/1/3 81/1/3
f 84/1/3 82/1/3 83/1/3
f 87/1/3 86/1/3 85/1/3
f 88/1/3 86/1/3 87/1/3
f 92/1/3 90/1/3 89/1/3
f 92/1/3 91/1/3 90/1/3
f 93/1/3 91/1/3 92/1/3
f 96/1/3 95/1/3 94/1/3
f 97/1/3 95/1/3 96/1/3
f 98/1/3 95/1/3 97/1/3
f 99/1/3 95/1/3 98/1/3
f 100/1/3 95/1/3 99/1/3
f 101/1/3 95/1/3 100/1/3
f 104/1/3 103/1/3 102/1/3
f 105/1/3 103/1/3 104/1/3
f 106/1/3 104/1/3 102/1/3
f 107/1/3 104/1/3 106/1/3
f 110/1/3 109/1/3 108/1/3
f 111/1/3 109/1/3 110/1/3
f 114/1/3 113/1/3 112/1/3
f 115/1/3 113/1/3 114/1/3
f 116/1/4 117/1/4 118/1/4
f 118/1/4 117/1/4 119/1/4
f 120/1/4 121/1/4 122/1/4
f 122/1/4 121/1/4 123/1/4
f 124/1/4 125/1/4 127/1/4
f 126/1/4 127/1/4 128/1/4
f 127/1/4 125/1/4 129/1/4
f 128/1/4 127/1/4 129/1/4
f 130/1/4 131/1/4 132/1/4
f 132/1/4 131/1/4 133/1/4
f 134/1/4 135/1/4 136/1/4
f 136/1/4 135/1/4 137/1/4
f 134/1/4 136/1/4 138/1/4
f 138/1/4 136/1/4 139/1/4
f 140/1/4 141/1/4 142/1/4
f 142/1/4 141/1/4 143/1/4
f 144/1/4 145/1/4 146/1/4
f 146/1/4 145/1/4 147/1/4
f 148/1/4 149/1/4 150/1/4
f 150/1/4 149/1/4 151/1/4
f 154/1/5 153/1/5 152/1/5
f 155/1/5 153/1/5 154/1/5
f 158/1/5 157/1/5 156/1/5
f 159/1/5 157/1/5 158/1/5
f 162/1/5 161/1/5 160/1/5
f 163/1/5 161/1/5 162/1/5
f 166/1/5 165/1/5 164/1/5
f 167/1/5 165/1/5 166/1/5
f 170/1/5 169/1/5 168/1/5
f 173/1/5 170/1/5 168/1/5
f 173/1/5 171/1/5 170/1/5
f 174/1/5 173/1/5 172/1/5
f 175/1/5 173/1/5 174/1/5
f 176/1/5 171/1/5 173/1/5
f 176/1/5 173/1/5 175/1/5
f 177/1/5 171/1/5 176/1/5
f 179/1/5 176/1/5 175/1/5
f 180/1/5 176/1/5 179/1/5
f 181/1/5 176/1/5 180/1/5
f 182/1/5 179/1/5 178/1/5
f 182/1/5 180/1/5 179/1/5
f 183/1/5 180/1/5 182/1/5
f 184/1/6 185/1/6 186/1/6
f 186/1/6 185/1/6 187/1/6
f 188/1/6 189/1/6 190/1/6
f 190/1/6 189/1/6 191/1/6
f 192/1/6 193/1/6 194/1/6
f 194/1/6 193/1/6 195/1/6
f 196/1/6 197/1/6 200/1/6
f 200/1/6 197/1/6 201/1/6
f 198/1/6 199/1/6 202/1/6
f 202/1/6 199/1/6 203/1/6
f 204/1/6 205/1/6 206/1/6
f 204/1/6 206/1/6 207/1/6
f 207/1/6 206/1/6 208/1/6
f 209/1/6 210/1/6 211/1/6
f 211/1/6 210/1/6 212/1/6
f 212/1/6 210/1/6 213/1/6
f 213/1/6 210/1/6 214/1/6
f 215/1/6 216/1/6 217/1/6
f 217/1/6 216/1/6 218/1/6
f 215/1/6 217/1/6 219/1/6
f 218/1/6 216/1/6 220/1/6
f 215/1/6 219/1/6 221/1/6
f 219/1/6 220/1/6 221/1/6
f 220/1/6 216/1/6 222/1/6
f 221/1/6 220/1/6 222/1/6
f 223/1/6 224/1/6 225/1/6
f 225/1/6 224/1/6 226/1/6
